<svg xmlns="http://www.w3.org/2000/svg" enable-background="new 0 0 5000 4000" viewBox="0 0 5000 4000"><path fill="#f7f7f7" d="M3598.59,890.36c-178.18-216.57-489.26-308.21-731.84-155.21c-228.3,143.99-330.44,425.94-536.8,596.35
			c-216.35,178.67-454.53,188.04-716.47,156.15c-225.79-27.48-482.76-23.16-571.99,239.85c-96.75,285.21,46.01,620.85,218.8,840.72
			c170.36,216.78,407.95,361.97,669.79,418.83c521.85,113.32,1136.78-76.19,1508.59-478.81
			C3823.02,2092.02,3987.02,1362.47,3598.59,890.36z"/><path fill="#3fa7d6" d="M1518.36,1937.23c-22.31,0-44.8-1.41-66.84-4.19c-2.98-0.38-5.09-3.1-4.72-6.08
			c0.38-2.98,3.09-5.07,6.08-4.72c21.59,2.73,43.62,4.11,65.48,4.11c13.03,0,26.26-0.49,39.32-1.46c2.99-0.2,5.73,2.01,5.95,5.01
			c0.22,2.99-1.89,5.59-4.89,5.82l-0.33,0.02C1545.16,1936.73,1531.66,1937.23,1518.36,1937.23z M1723.1,1896.3
			c-2.13,0-4.15-1.25-5.02-3.34c-1.16-2.77,0.15-5.96,2.92-7.12c32.28-13.52,63.34-30.4,92.31-50.19c2.48-1.69,5.86-1.06,7.56,1.43
			c1.69,2.48,1.05,5.87-1.43,7.56c-29.58,20.2-61.29,37.43-94.24,51.24C1724.51,1896.16,1723.8,1896.3,1723.1,1896.3z
			 M1289.72,1884.99c-0.79,0-1.6-0.17-2.36-0.54c-32.18-15.53-62.94-34.4-91.44-56.09c-2.39-1.82-2.85-5.23-1.03-7.62
			c1.82-2.39,5.23-2.85,7.62-1.03c27.92,21.24,58.06,39.73,89.58,54.95c2.7,1.31,3.84,4.56,2.53,7.26
			C1293.68,1883.85,1291.74,1884.99,1289.72,1884.99z M1939.21,1728.92c-1.15,0-2.31-0.36-3.29-1.11c-2.39-1.82-2.85-5.23-1.03-7.62
			c21.26-27.91,39.76-58.04,54.99-89.56c1.31-2.7,4.56-3.84,7.26-2.53c2.71,1.31,3.84,4.56,2.53,7.26
			c-15.55,32.17-34.43,62.93-56.13,91.41C1942.48,1728.18,1940.85,1728.92,1939.21,1728.92z M1082.48,1706.68
			c-1.74,0-3.44-0.83-4.5-2.37c-20.21-29.57-37.46-61.27-51.28-94.22c-1.16-2.77,0.14-5.96,2.91-7.12c2.77-1.16,5.96,0.14,7.12,2.91
			c13.54,32.27,30.44,63.32,50.23,92.29c1.7,2.48,1.06,5.87-1.42,7.56C1084.61,1706.37,1083.54,1706.68,1082.48,1706.68z
			 M2042.96,1475.98c-0.23,0-0.46-0.01-0.69-0.04c-2.98-0.38-5.09-3.1-4.71-6.08c2.75-21.67,4.14-43.78,4.14-65.73
			c0-13.03-0.49-26.26-1.46-39.32l-0.08-1.01c-0.23-2.99,2.02-5.61,5.02-5.83c3-0.23,5.61,2.02,5.83,5.02l0.08,1.03
			c0.99,13.32,1.49,26.82,1.49,40.12c0,22.4-1.42,44.97-4.23,67.1C2048,1473.97,2045.66,1475.98,2042.96,1475.98z M992.2,1448.68
			c-2.82,0-5.2-2.17-5.42-5.03l-0.04-0.51c-0.99-13.32-1.49-26.83-1.49-40.14c0-22.23,1.4-44.63,4.16-66.59
			c0.38-2.98,3.1-5.08,6.08-4.72c2.98,0.38,5.09,3.09,4.72,6.08c-2.71,21.51-4.08,43.46-4.08,65.23c0,13.04,0.49,26.27,1.46,39.32
			l0.04,0.5c0.23,2.99-2.02,5.61-5.02,5.83C992.48,1448.68,992.34,1448.68,992.2,1448.68z M2005.91,1204.13
			c-2.12,0-4.14-1.25-5.02-3.33c-13.57-32.26-30.5-63.29-50.32-92.24c-1.7-2.48-1.06-5.86,1.41-7.56c2.48-1.7,5.87-1.06,7.56,1.41
			c20.24,29.55,37.52,61.23,51.37,94.17c1.16,2.77-0.14,5.96-2.91,7.12C2007.33,1203.99,2006.62,1204.13,2005.91,1204.13z
			 M1042.82,1180.04c-0.79,0-1.6-0.17-2.36-0.54c-2.71-1.3-3.84-4.56-2.54-7.26c15.52-32.19,34.37-62.96,56.05-91.47
			c1.82-2.39,5.23-2.86,7.62-1.04c2.39,1.82,2.86,5.23,1.04,7.62c-21.23,27.93-39.71,58.08-54.91,89.61
			C1046.79,1178.91,1044.85,1180.04,1042.82,1180.04z M1838.21,988.25c-1.15,0-2.3-0.36-3.29-1.11
			c-27.94-21.22-58.1-39.68-89.63-54.86c-2.71-1.3-3.84-4.55-2.54-7.26c1.3-2.71,4.55-3.84,7.26-2.54
			c32.19,15.5,62.98,34.34,91.5,56c2.39,1.82,2.86,5.23,1.04,7.62C1841.48,987.51,1839.85,988.25,1838.21,988.25z M1221.04,972.72
			c-1.74,0-3.44-0.83-4.5-2.37c-1.7-2.48-1.06-5.86,1.42-7.56c29.56-20.22,61.25-37.49,94.19-51.33c2.77-1.16,5.96,0.14,7.12,2.91
			c1.16,2.77-0.14,5.96-2.91,7.12c-32.27,13.55-63.31,30.47-92.26,50.28C1223.17,972.41,1222.1,972.72,1221.04,972.72z
			 M1585.14,884.88c-0.23,0-0.45-0.01-0.68-0.04c-21.43-2.68-43.3-4.04-64.98-4.04c-13.04,0-26.27,0.49-39.32,1.46l-0.76,0.06
			c-3.02,0.2-5.61-2.02-5.83-5.02c-0.23-3,2.02-5.61,5.02-5.83l0.76-0.06c13.32-0.99,26.83-1.49,40.14-1.49
			c22.14,0,44.45,1.39,66.33,4.13c2.98,0.37,5.1,3.09,4.72,6.07C1590.18,882.86,1587.84,884.88,1585.14,884.88z"/><path fill="#3fa7d6" d="M3532.68,2731.05c-22.12,0-40.11-17.99-40.11-40.11c0-22.12,17.99-40.11,40.11-40.11s40.11,17.99,40.11,40.11
			C3572.79,2713.06,3554.79,2731.05,3532.68,2731.05z M3532.68,2667.28c-13.05,0-23.66,10.61-23.66,23.66
			c0,13.05,10.61,23.66,23.66,23.66c13.05,0,23.66-10.61,23.66-23.66C3556.34,2677.89,3545.72,2667.28,3532.68,2667.28z"/><path fill="#3fa7d6" d="M1278.14,3258.1h-24.63v-34.74c0-3.86-3.13-6.99-6.99-6.99s-6.99,3.13-6.99,6.99v34.74h-24.63
			c-3.86,0-6.99,3.13-6.99,6.99c0,3.86,3.13,6.99,6.99,6.99h24.63v34.74c0,3.86,3.13,6.99,6.99,6.99s6.99-3.13,6.99-6.99v-34.74
			h24.63c3.86,0,6.99-3.13,6.99-6.99C1285.13,3261.23,1282,3258.1,1278.14,3258.1z"/><path fill="#3fa7d6" d="M3933.28,1285.13h-36.97v-52.14c0-5.79-4.7-10.49-10.49-10.49s-10.49,4.7-10.49,10.49v52.14h-36.97
			c-5.79,0-10.49,4.7-10.49,10.49s4.7,10.49,10.49,10.49h36.97v52.14c0,5.79,4.7,10.49,10.49,10.49s10.49-4.7,10.49-10.49v-52.14
			h36.97c5.79,0,10.49-4.7,10.49-10.49S3939.07,1285.13,3933.28,1285.13z"/><path fill="#3fa7d6" d="M3145.85,3470.77c-2.85,0-5.7-0.01-8.55-0.04c-2.66-0.02-4.79-2.2-4.77-4.86c0.02-2.64,2.18-4.77,4.81-4.77
			c0.02,0,0.03,0,0.05,0c32.34,0.3,65.21-1.13,97.6-4.24c2.64-0.24,5,1.68,5.25,4.33c0.25,2.65-1.68,5-4.33,5.25
			C3206.04,3469.32,3175.74,3470.77,3145.85,3470.77z M2981.05,3456.04c-0.28,0-0.57-0.02-0.86-0.08
			c-32.26-5.82-64.59-13.43-96.09-22.63c-2.55-0.74-4.02-3.42-3.27-5.97c0.75-2.55,3.42-4.01,5.97-3.27
			c31.18,9.1,63.18,16.64,95.1,22.4c2.61,0.47,4.35,2.97,3.88,5.59C2985.36,3454.41,2983.33,3456.04,2981.05,3456.04z
			 M3389.93,3438.59c-2.13,0-4.07-1.42-4.65-3.57c-0.69-2.57,0.84-5.21,3.4-5.89c31.4-8.41,62.64-18.56,92.88-30.18
			c2.48-0.95,5.26,0.29,6.22,2.77c0.95,2.48-0.28,5.26-2.77,6.22c-30.55,11.74-62.12,22-93.84,30.49
			C3390.76,3438.53,3390.34,3438.59,3389.93,3438.59z M2738.99,3377c-0.71,0-1.42-0.16-2.1-0.49
			c-29.47-14.32-58.54-30.38-86.39-47.72c-2.26-1.4-2.95-4.37-1.54-6.63c1.4-2.26,4.37-2.94,6.63-1.54
			c27.56,17.17,56.33,33.06,85.5,47.24c2.39,1.16,3.39,4.04,2.22,6.43C2742.49,3376,2740.77,3377,2738.99,3377z M3624.53,3339.76
			c-1.64,0-3.24-0.84-4.14-2.35c-1.36-2.29-0.61-5.24,1.68-6.6c27.86-16.56,55.17-34.8,81.16-54.23c2.13-1.59,5.15-1.15,6.74,0.98
			c1.59,2.13,1.16,5.14-0.97,6.74c-26.26,19.62-53.85,38.06-82.01,54.79C3626.21,3339.55,3625.36,3339.76,3624.53,3339.76z
			 M2527.18,3235.7c-1.13,0-2.27-0.4-3.19-1.21c-24.57-21.73-48.25-44.99-70.39-69.14c-1.8-1.96-1.66-5,0.3-6.8
			c1.96-1.8,5-1.67,6.8,0.3c21.91,23.9,45.35,46.92,69.67,68.43c1.99,1.76,2.18,4.8,0.42,6.79
			C2529.84,3235.15,2528.51,3235.7,2527.18,3235.7z M3823.51,3181.07c-1.19,0-2.39-0.44-3.32-1.33c-1.93-1.83-2-4.88-0.17-6.81
			c22.37-23.48,43.76-48.43,63.57-74.14c1.62-2.1,4.65-2.49,6.75-0.87c2.11,1.62,2.5,4.65,0.87,6.75
			c-20.02,25.98-41.63,51.18-64.23,74.9C3826.05,3180.57,3824.78,3181.07,3823.51,3181.07z M2361.2,3042.72
			c-1.58,0-3.13-0.78-4.05-2.2c-17.79-27.55-34.31-56.35-49.09-85.61c-1.2-2.37-0.25-5.27,2.13-6.47c2.37-1.2,5.27-0.25,6.46,2.13
			c14.63,28.96,30.97,57.46,48.58,84.72c1.44,2.23,0.8,5.21-1.43,6.65C2363,3042.47,2362.09,3042.72,2361.2,3042.72z
			 M3972.52,2974.65c-0.76,0-1.54-0.18-2.26-0.56c-2.35-1.25-3.23-4.17-1.99-6.51c15.27-28.66,29.18-58.44,41.35-88.51
			c1-2.46,3.81-3.65,6.27-2.66c2.46,1,3.65,3.8,2.66,6.27c-12.29,30.38-26.35,60.46-41.77,89.42
			C3975.91,2973.72,3974.24,2974.65,3972.52,2974.65z M2253.69,2811.98c-2.06,0-3.96-1.33-4.6-3.4
			c-9.62-31.25-17.72-63.45-24.07-95.69c-0.51-2.61,1.19-5.14,3.79-5.65c2.6-0.51,5.14,1.18,5.65,3.79
			c6.28,31.91,14.29,63.78,23.82,94.71c0.78,2.54-0.64,5.23-3.18,6.02C2254.63,2811.91,2254.16,2811.98,2253.69,2811.98z
			 M4060.53,2735.72c-0.34,0-0.69-0.04-1.04-0.11c-2.6-0.57-4.24-3.14-3.67-5.73c6.95-31.71,12.29-64.15,15.85-96.42
			c0.29-2.64,2.66-4.54,5.31-4.26c2.64,0.29,4.55,2.67,4.26,5.31c-3.6,32.6-8.99,65.38-16.01,97.42
			C4064.73,2734.19,4062.74,2735.72,4060.53,2735.72z M2212.27,2560.75c-2.6,0-4.74-2.07-4.81-4.68c-0.25-8.74-0.37-17.6-0.37-26.32
			c0-24.04,0.94-48.38,2.8-72.33c0.21-2.65,2.51-4.68,5.17-4.43c2.65,0.2,4.63,2.52,4.43,5.17c-1.84,23.7-2.77,47.79-2.77,71.58
			c0,8.64,0.12,17.4,0.37,26.05c0.07,2.66-2.02,4.87-4.68,4.95C2212.37,2560.75,2212.32,2560.75,2212.27,2560.75z M4080.44,2481.88
			c-2.53,0-4.65-1.97-4.8-4.53c-1.9-32.3-5.54-64.97-10.81-97.09l-0.23-1.38c-0.43-2.62,1.34-5.1,3.96-5.53
			c2.62-0.42,5.1,1.34,5.53,3.96l0.23,1.38c5.33,32.46,9,65.46,10.92,98.09c0.16,2.65-1.87,4.93-4.52,5.09
			C4080.63,2481.88,4080.53,2481.88,4080.44,2481.88z M2240.04,2307.68c-0.39,0-0.78-0.05-1.18-0.15c-2.58-0.65-4.14-3.26-3.49-5.84
			c8.01-31.78,17.81-63.51,29.13-94.32c0.92-2.49,3.68-3.78,6.18-2.86c2.49,0.92,3.77,3.68,2.86,6.18
			c-11.21,30.49-20.91,61.9-28.83,93.35C2244.16,2306.22,2242.19,2307.68,2240.04,2307.68z M4030.94,2230.72
			c-2,0-3.86-1.25-4.55-3.25c-10.55-30.71-22.86-61.18-36.57-90.55c-1.13-2.41-0.08-5.27,2.32-6.4c2.41-1.12,5.27-0.08,6.4,2.33
			c13.86,29.68,26.29,60.47,36.95,91.5c0.86,2.51-0.47,5.25-2.99,6.12C4031.98,2230.64,4031.46,2230.72,4030.94,2230.72z
			 M2335.35,2071.56c-0.81,0-1.63-0.2-2.39-0.64c-2.31-1.32-3.11-4.26-1.79-6.57c16.29-28.45,34.27-56.36,53.44-82.96
			c1.55-2.16,4.56-2.64,6.72-1.09c2.16,1.55,2.64,4.56,1.09,6.72c-18.98,26.33-36.78,53.96-52.9,82.11
			C2338.65,2070.7,2337.02,2071.56,2335.35,2071.56z M3916.02,2003.62c-1.53,0-3.03-0.72-3.96-2.07
			c-18.46-26.64-38.56-52.61-59.75-77.21c-1.73-2.01-1.51-5.05,0.5-6.79c2.01-1.73,5.05-1.51,6.79,0.5
			c21.41,24.85,41.72,51.09,60.37,78.01c1.51,2.18,0.97,5.18-1.21,6.7C3917.92,2003.34,3916.96,2003.62,3916.02,2003.62z
			 M2490.63,1869.79c-1.24,0-2.48-0.48-3.42-1.43c-1.87-1.89-1.85-4.94,0.04-6.81c23.34-23.04,48.15-45.09,73.73-65.54
			c2.08-1.66,5.1-1.32,6.76,0.76c1.66,2.08,1.32,5.1-0.76,6.76c-25.32,20.23-49.88,42.06-72.98,64.86
			C2493.07,1869.32,2491.85,1869.79,2490.63,1869.79z M3743.89,1816.09c-1.08,0-2.17-0.36-3.07-1.11
			c-24.98-20.7-51.34-40.32-78.35-58.32c-2.21-1.47-2.81-4.46-1.34-6.67c1.47-2.21,4.46-2.81,6.67-1.34
			c27.29,18.18,53.92,38,79.16,58.92c2.05,1.7,2.33,4.73,0.63,6.78C3746.64,1815.5,3745.27,1816.09,3743.89,1816.09z
			 M2694.42,1717.31c-1.69,0-3.34-0.9-4.22-2.48c-1.29-2.33-0.44-5.25,1.88-6.54c28.69-15.87,58.55-30.37,88.76-43.12
			c2.45-1.03,5.27,0.11,6.31,2.56c1.03,2.45-0.11,5.27-2.56,6.3c-29.9,12.62-59.45,26.98-87.85,42.68
			C2696.01,1717.11,2695.21,1717.31,2694.42,1717.31z M3527.67,1681.66c-0.66,0-1.32-0.13-1.96-0.42
			c-29.66-13.25-60.33-25.07-91.17-35.12c-2.53-0.82-3.91-3.54-3.08-6.07c0.82-2.53,3.54-3.91,6.07-3.08
			c31.15,10.15,62.14,22.09,92.11,35.48c2.43,1.08,3.51,3.93,2.43,6.36C3531.27,1680.6,3529.51,1681.66,3527.67,1681.66z
			 M2931.95,1625.79c-2.18,0-4.16-1.49-4.68-3.71c-0.61-2.59,1-5.18,3.58-5.79c21.03-4.95,42.54-9.24,63.95-12.75
			c10.98-1.8,22.13-3.43,33.15-4.85c2.63-0.35,5.05,1.52,5.39,4.16c0.34,2.64-1.52,5.05-4.16,5.39c-10.91,1.4-21.95,3.01-32.82,4.8
			c-21.19,3.48-42.49,7.72-63.3,12.62C2932.68,1625.75,2932.31,1625.79,2931.95,1625.79z M3283.21,1610.49
			c-0.23,0-0.47-0.02-0.7-0.05c-32.1-4.72-64.84-7.77-97.3-9.07c-2.66-0.11-4.72-2.35-4.62-5c0.11-2.66,2.32-4.75,5-4.62
			c32.8,1.31,65.87,4.4,98.31,9.17c2.63,0.39,4.45,2.83,4.06,5.46C3287.61,1608.76,3285.56,1610.49,3283.21,1610.49z"/><g><path fill="#fc9c14" d="M2450.8,1212.63l-800.09,687.39l14.89,311.02c0,37.1,44.75,563.08,87.32,563.08L2500,2274.16l673.15,448.63
			c42.57,0,124.74-488.8,124.74-525.9l49.76-297.61l-800.81-686.66C2518.74,1193.12,2478.9,1193.12,2450.8,1212.63z"/><path fill="#fff" d="M3142.73,2820.36H1851.84c-34.4,0-62.28-27.88-62.28-62.28V1443.16c0-34.4,27.88-62.28,62.28-62.28h1290.89
			c34.4,0,62.28,27.88,62.28,62.28v1314.92C3205.01,2792.47,3177.13,2820.36,3142.73,2820.36z"/><rect width="165.21" height="229.33" x="2008.89" y="1654.88" fill="#85c74c" transform="rotate(-4.585 2090.555 1768.932)"/><path fill="#fff" d="M2050.93,1732.84l72.6-5.82c2.78-0.22,4.86-0.06,6.22,0.49s2.31,1.5,2.86,2.86
						c0.55,1.36,0.91,3.17,1.09,5.43c0.18,2.26,0.11,4.09-0.22,5.47c-0.33,1.39-0.99,2.38-1.99,2.99c-1.5,0.91-3.69,1.48-6.56,1.71
						l-24.94,2l5.26,65.68c0.16,2,0.21,3.49,0.16,4.46c-0.05,0.97-0.36,2.11-0.91,3.42c-0.55,1.32-1.63,2.3-3.25,2.95
						c-1.61,0.66-3.77,1.09-6.47,1.31c-2.7,0.22-4.87,0.13-6.53-0.27c-1.65-0.39-2.85-1.19-3.61-2.4c-0.75-1.21-1.24-2.31-1.45-3.3
						c-0.21-0.99-0.4-2.49-0.56-4.49l-5.25-65.55l-25.07,2.01c-2.79,0.22-4.86,0.06-6.22-0.49c-1.36-0.55-2.31-1.5-2.86-2.86
						c-0.55-1.36-0.91-3.17-1.09-5.43c-0.18-2.26-0.11-4.09,0.22-5.47c0.33-1.38,0.99-2.38,1.99-2.99
						C2045.87,1733.64,2048.06,1733.07,2050.93,1732.84z"/><rect width="150.98" height="209.58" x="2216.73" y="1602.74" fill="#ffc057" transform="rotate(-1.985 2293.91 1706.43)"/><path fill="#fff" d="M2307.77,1672.02c0.6-1.22,1.64-2.09,3.14-2.63c1.5-0.53,3.4-0.84,5.72-0.92c2.31-0.08,4.15,0.05,5.52,0.4
						c1.37,0.35,2.42,0.79,3.16,1.33c0.74,0.53,1.32,1.31,1.76,2.33c0.45,1.34,0.72,3.41,0.82,6.2l2.35,66.4
						c0.06,1.84,0.05,3.21-0.03,4.13c-0.09,0.92-0.43,1.99-1.02,3.21c-1.04,2.19-4.11,3.38-9.22,3.56c-5.58,0.2-8.91-1.16-9.97-4.08
						c-0.53-1.34-0.84-3.4-0.94-6.2l-0.86-24.29l-31.7,1.12l0.86,24.41c0.06,1.84,0.05,3.21-0.03,4.13
						c-0.09,0.92-0.43,1.99-1.02,3.21c-1.04,2.19-4.11,3.38-9.22,3.56c-5.58,0.2-8.91-1.16-9.97-4.08c-0.53-1.34-0.84-3.4-0.94-6.2
						l-2.35-66.4c-0.06-1.83-0.05-3.21,0.03-4.13c0.09-0.92,0.43-1.99,1.02-3.21c1.04-2.19,4.11-3.38,9.22-3.56
						c5.58-0.2,8.94,1.16,10.09,4.08c0.45,1.34,0.72,3.41,0.82,6.2l0.86,24.41l31.7-1.12l-0.87-24.52
						c-0.06-1.83-0.05-3.21,0.03-4.13C2306.83,1674.31,2307.17,1673.24,2307.77,1672.02z"/><rect width="167.09" height="231.94" x="2414.16" y="1612.6" fill="#6bba27" transform="rotate(2.04 2498.356 1729.034)"/><path fill="#fff" d="M2510.11,1690.22l33.11,75.15c1.39,3.06,2.06,5.33,2.01,6.83c-0.11,3.18-2.78,5.96-7.99,8.33
						c-3.05,1.39-5.44,2.06-7.16,2c-1.72-0.06-3.12-0.51-4.2-1.34c-1.08-0.83-1.84-1.7-2.29-2.6c-0.46-0.9-1.09-2.25-1.91-4.04
						l-6.37-14.54l-36.67-1.31l-7.4,14.05c-0.95,1.73-1.68,2.99-2.19,3.77c-0.51,0.78-1.34,1.57-2.47,2.36
						c-1.13,0.8-2.56,1.17-4.28,1.11c-1.72-0.06-4.06-0.9-7-2.5c-5.03-2.65-7.49-5.57-7.38-8.75c0.05-1.5,0.88-3.72,2.49-6.67
						l38.38-72.73c1.04-2,2.58-3.57,4.61-4.74c2.03-1.16,4.15-1.71,6.35-1.63C2504.53,1683.12,2507.98,1685.54,2510.11,1690.22z
						 M2498.25,1721.61l-9.38,17.83l17.61,0.63L2498.25,1721.61z"/><rect width="150.98" height="209.58" x="2632.64" y="1615.49" fill="#3fa7d6" transform="rotate(2.04 2708.857 1720.755)"/><path fill="#fff" d="M2727.34,1686.44c0.8-1.37,1.98-2.27,3.51-2.69c1.53-0.42,3.43-0.6,5.71-0.52
						c2.27,0.08,4.1,0.35,5.48,0.79c1.38,0.45,2.4,0.96,3.06,1.55c0.66,0.58,1.13,1.44,1.41,2.57c0.43,1.29,0.6,3.34,0.5,6.13
						l-2.37,66.4c-0.07,1.91-0.18,3.31-0.33,4.18c-0.15,0.88-0.57,1.9-1.25,3.07c-1.2,2.11-4.34,3.08-9.45,2.9
						c-3.11-0.11-5.26-0.43-6.44-0.95c-1.18-0.52-2.15-1.31-2.91-2.38c-17.09-24.57-28.34-40.62-33.74-48.16l-1.4,39.36
						c-0.07,1.91-0.18,3.31-0.33,4.18c-0.15,0.87-0.57,1.9-1.25,3.07c-1.2,2.11-4.34,3.08-9.45,2.9c-4.95-0.18-7.94-1.36-8.98-3.55
						c-0.6-1.22-0.94-2.31-1.02-3.27c-0.08-0.96-0.09-2.36-0.03-4.19l2.38-66.75c0.11-3.03,0.56-5.23,1.37-6.6
						c0.8-1.37,1.98-2.27,3.51-2.69c1.53-0.42,3.49-0.59,5.89-0.51c2.39,0.08,4.28,0.37,5.66,0.86c1.38,0.49,2.34,1.02,2.88,1.6
						c0.31,0.25,1.19,1.32,2.64,3.21c16.01,23.49,26.72,39,32.12,46.54l1.44-40.44C2726.07,1690.01,2726.53,1687.81,2727.34,1686.44
						z"/><g><rect width="165.21" height="229.33" x="2821.49" y="1655" fill="#ee5a47" transform="rotate(6.975 2903.194 1768.498)"/><path fill="#fff" d="M2906.41,1778.08c11.71,14.36,19.94,25.09,24.7,32.18c2.47,3.56,3.57,6.44,3.3,8.65
						c-0.27,2.21-2.32,4.6-6.15,7.17c-3.83,2.57-6.85,3.72-9.06,3.45c-2.21-0.27-4.65-2.42-7.33-6.44l-24.62-36.13l-3.1,25.35
						c-0.25,2.08-0.5,3.59-0.75,4.53c-0.25,0.94-0.8,2.01-1.65,3.23c-1.5,2.19-5.02,2.95-10.57,2.27
						c-6.07-0.74-9.42-2.82-10.06-6.24c-0.35-1.45-0.34-3.69,0.03-6.73l8.83-72.29c0.24-1.99,0.49-3.48,0.74-4.46
						c0.25-0.98,0.8-2.08,1.66-3.3c1.5-2.19,5.02-2.95,10.57-2.27c6.07,0.74,9.47,2.79,10.2,6.13c0.25,1.53,0.2,3.81-0.17,6.84
						l-3.03,24.83c13.41-11.82,24.27-21.53,32.59-29.14c3.47-3.18,6.33-4.64,8.58-4.36c2.25,0.27,4.93,2.12,8.03,5.53
						c3.1,3.41,4.52,6.23,4.25,8.44c-0.27,2.21-1.89,4.67-4.86,7.39c-5.74,5.19-14.51,12.21-26.33,21.07L2906.41,1778.08z"/></g><g><polygon fill="#ee5a47" points="2372.47 2179.16 2207.78 2192.36 2198.09 2071.46 2189.47 1963.76 2354.15 1950.56"/><path fill="#fff" d="M2313.22,2030.9c4.5,2.62,6.87,5.32,7.09,8.1c0.13,1.66-0.68,4.04-2.45,7.16l-24.82,44.44l2,24.94
						c0.16,2,0.22,3.51,0.17,4.52s-0.37,2.2-0.96,3.56c-0.59,1.36-1.7,2.37-3.31,3.02c-1.61,0.66-3.81,1.09-6.6,1.32
						c-2.79,0.22-5.03,0.14-6.72-0.25c-1.7-0.39-2.95-1.23-3.75-2.52c-0.81-1.29-1.31-2.44-1.52-3.43c-0.21-0.99-0.4-2.53-0.57-4.62
						l-1.98-24.68l-31.58-39.91c-2.24-2.8-3.42-5.03-3.56-6.68c-0.22-2.78,1.48-5.62,5.1-8.49c3.62-2.87,6.26-4.38,7.92-4.51
						c1.65-0.13,2.99,0.11,4,0.73c1.56,0.84,3.27,2.5,5.13,4.98l22.83,30.76l17.64-34c1.44-2.74,2.74-4.58,3.9-5.5
						c1.15-0.92,2.53-1.45,4.14-1.58C2306.93,2028.11,2309.56,2029,2313.22,2030.9z"/></g><g><rect width="155.95" height="216.48" x="2416.98" y="1996.08" fill="#85c74c" transform="rotate(2.04 2495.59 2104.875)"/><path fill="#fff" d="M2494.79,2065.72c12.19,0.43,22.62,5.22,31.29,14.35c8.66,9.14,12.77,20.23,12.3,33.29
						c-0.47,13.06-5.15,24.03-14.04,32.91c-8.9,8.88-19.6,13.1-32.13,12.65c-12.52-0.45-23.01-5.36-31.46-14.73
						c-8.45-9.37-12.45-20.32-12.01-32.84c0.24-6.84,1.71-13.2,4.39-19.08c2.68-5.88,6.16-10.77,10.42-14.66
						c4.26-3.89,9.11-6.89,14.55-9.01C2483.55,2066.47,2489.11,2065.51,2494.79,2065.72z M2470.64,2111.5
						c-0.26,7.33,1.89,13.37,6.47,18.11c4.57,4.74,9.78,7.22,15.63,7.42c5.85,0.21,11.2-1.83,16.05-6.11
						c4.85-4.28,7.42-10.17,7.68-17.67c0.27-7.5-1.89-13.59-6.46-18.29c-4.58-4.7-9.79-7.15-15.64-7.36
						c-5.85-0.21-11.2,1.89-16.06,6.29C2473.46,2098.3,2470.9,2104.17,2470.64,2111.5z"/></g><g><rect width="165.21" height="229.33" x="2624.7" y="1966.9" fill="#ffc057" transform="rotate(6.975 2706.543 2080.318)"/><path fill="#fff" d="M2730.78,2047.96c1.03-1.28,2.41-2.08,4.12-2.4c1.71-0.32,3.8-0.33,6.27-0.03
						c2.47,0.3,4.41,0.76,5.84,1.37c1.42,0.62,2.48,1.27,3.19,1.97c0.71,0.7,1.16,1.68,1.36,2.94c0.34,1.54,0.32,3.82-0.05,6.86
						l-4.8,39.27c-1.4,11.44-6.22,21.41-14.47,29.9c-4.01,4-8.91,7.03-14.7,9.09c-5.79,2.06-12.01,2.69-18.64,1.88
						c-6.63-0.81-12.49-2.93-17.57-6.37c-5.08-3.44-9.03-7.61-11.86-12.53c-5.9-10.04-8.14-20.88-6.72-32.49l4.78-39.14
						c0.25-2.08,0.51-3.61,0.76-4.59c0.25-0.98,0.8-2.08,1.66-3.29c0.85-1.21,2.13-1.98,3.84-2.3c1.71-0.32,3.95-0.31,6.73,0.03
						c2.77,0.34,4.95,0.87,6.54,1.59c1.58,0.72,2.6,1.77,3.05,3.14c0.8,2.12,0.98,4.92,0.56,8.38l-4.76,39.01
						c-0.65,5.29,0.04,10.48,2.06,15.56c1,2.59,2.72,4.77,5.14,6.57c2.42,1.79,5.41,2.9,8.96,3.34c6.33,0.77,11.34-0.99,15.03-5.29
						s5.91-9.53,6.67-15.68l4.86-39.79C2729.02,2051.57,2729.75,2049.24,2730.78,2047.96z"/></g><path fill="#fcb43a" d="M2516.4,2419.84l386.07-379.86c101.39-99.76,246.11-156.76,398-156.76h0c35.67,0,64.59,22.66,64.59,50.62
			v517.54v497.75c0,27.96-48.22,70.41-83.89,70.41h-219.37l-545.39-536.62C2498.16,2464.97,2498.16,2437.79,2516.4,2419.84z"/><path fill="#fcb43a" d="M2483.6,2419.14l-386.07-379.86c-101.39-99.76-246.11-156.76-398-156.76h0c-35.67,0-64.59,22.66-64.59,50.62
			v517.54v503.84c0,27.96,41.4,65.01,77.07,65.01l226.19-0.69l545.39-536.62C2501.84,2464.27,2501.84,2437.09,2483.6,2419.14z"/><path fill="#ffc057" d="M3365.05,2741.32v218.95c0,32.73-34.51,59.25-77.07,59.25H1712.01c-42.56,0-77.07-26.53-77.07-59.25v-218.95
			l817.03-500.34c13.3-8.14,29.22-12.44,45.3-12.87c17.88-0.49,35.93,3.81,50.74,12.87L3365.05,2741.32z"/><polygon fill="#fc9c14" points="2653 2284.74 3365.05 2648.18 3365.05 2741.32 2640.2 2297.33"/><polygon fill="#fc9c14" points="2346.99 2284.74 1634.95 2648.18 1634.95 2741.32 2359.8 2297.33"/><path fill="#ee5a47" d="M2644.23,2584.24l-0.01,0c-12.81-24.33-38.32-40.92-67.72-40.92c-42.08,0-76.22,33.98-76.49,76l-0.01,0v-0.05
			l-0.01,0c-0.27-42.02-34.41-76-76.49-76c-29.4,0-54.91,16.6-67.72,40.92l-0.01,0C2303,2676.27,2500,2818.27,2500,2818.27v0.05
			C2500,2818.32,2697,2676.32,2644.23,2584.24z"/></g><g><circle cx="3426.28" cy="2018.23" r="199.18" fill="#ee5a47" transform="rotate(-45.001 3426.272 2018.283)"/><path fill="#fff" d="M3502.89,2043.87v-45.01c0-42.31-34.3-76.61-76.61-76.61h0c0,0,0,0,0,0c0,0,0,0,0,0l0,0
			c-42.31,0-76.61,34.3-76.61,76.61v45.01c0,24.48-6.71,33.83-19.4,54.76h192.02C3509.6,2077.7,3502.89,2068.34,3502.89,2043.87z"/><path fill="#fff" d="M3426.28,2137.69L3426.28,2137.69c-15.97,0-28.92-12.95-28.92-28.92l0,0h57.83l0,0
			C3455.19,2124.74,3442.25,2137.69,3426.28,2137.69z"/><path fill="#fff" d="M3426.28,1898.78c-12.96,0-23.47,10.51-23.47,23.47c0,12.96,10.51,23.47,23.47,23.47s23.47-10.51,23.47-23.47
			C3449.74,1909.29,3439.24,1898.78,3426.28,1898.78z M3426.28,1936.34c-7.79,0-14.1-6.31-14.1-14.1s6.31-14.1,14.1-14.1
			s14.1,6.31,14.1,14.1S3434.06,1936.34,3426.28,1936.34z"/><path fill="#ee5a47" d="M3426.28,2261.81c-65.06,0-126.23-25.34-172.23-71.34c-46.01-46.01-71.34-107.17-71.34-172.23
			s25.34-126.23,71.34-172.23c46.01-46.01,107.17-71.34,172.23-71.34c65.06,0,126.23,25.34,172.23,71.34
			c46.01,46.01,71.34,107.17,71.34,172.23s-25.34,126.23-71.34,172.23C3552.51,2236.47,3491.34,2261.81,3426.28,2261.81z
			 M3426.28,1793.66c-59.99,0-116.38,23.36-158.79,65.77c-42.42,42.42-65.78,98.81-65.78,158.79c0,59.99,23.36,116.38,65.78,158.79
			c42.42,42.42,98.81,65.77,158.79,65.77s116.38-23.36,158.79-65.77c42.42-42.42,65.78-98.81,65.78-158.79
			c0-59.98-23.36-116.38-65.78-158.79C3542.66,1817.02,3486.26,1793.66,3426.28,1793.66z"/></g><g><path fill="#85c74c" d="M3335.08,1268.07c0-3.17-1.24-6.16-3.48-8.4c-4.63-4.63-12.17-4.63-16.8,0l-62.28,62.28
			c-2.24,2.24-3.48,5.23-3.48,8.4c0,3.17,1.24,6.16,3.48,8.4c2.24,2.24,5.23,3.48,8.4,3.48c3.17,0,6.16-1.24,8.4-3.48l62.28-62.28
			C3333.84,1274.22,3335.08,1271.24,3335.08,1268.07z"/><path fill="#85c74c" d="M3395.84,1407.72l-103.64-15.57c-6.48-0.98-12.54,3.51-13.51,9.98c-0.97,6.48,3.51,12.54,9.98,13.51
			l103.64,15.57c0.59,0.09,1.19,0.13,1.78,0.13c5.82,0,10.87-4.35,11.74-10.12C3406.8,1414.75,3402.32,1408.69,3395.84,1407.72z"/><path fill="#85c74c" d="M3183.55,1195.42c-0.47-3.14-2.14-5.9-4.69-7.79c-2.55-1.88-5.69-2.66-8.82-2.19
			c-3.14,0.47-5.91,2.14-7.79,4.69c-1.89,2.55-2.66,5.69-2.19,8.82l15.57,103.64c0.87,5.77,5.91,10.12,11.74,10.12
			c0.59,0,1.19-0.05,1.78-0.13c3.14-0.47,5.91-2.14,7.79-4.69c1.89-2.55,2.66-5.69,2.19-8.82L3183.55,1195.42z"/></g><g><polyline fill="#85c74c" points="1645.52 1523.07 1853.13 1616.07 2127.35 975 1325.84 1379.89 1533.92 1473.09"/><polygon fill="#6bba27" points="1645.52 1523.07 2127.35 975 1533.92 1473.09 1572.5 1658.22"/><polygon fill="#60ad1d" points="1572.5 1658.22 1698.5 1546.81 1645.52 1523.07"/><g><circle cx="1506.41" cy="1235.1" r="96.71" fill="#fff"/><path fill="#ee5a47" d="M1506.41,1336.75c-56.05,0-101.64-45.6-101.64-101.64s45.6-101.64,101.64-101.64
				c56.05,0,101.64,45.6,101.64,101.64S1562.46,1336.75,1506.41,1336.75z M1506.41,1143.33c-50.61,0-91.78,41.17-91.78,91.78
				c0,50.61,41.17,91.78,91.78,91.78c50.61,0,91.78-41.17,91.78-91.78C1598.19,1184.5,1557.02,1143.33,1506.41,1143.33z"/><circle cx="1506.41" cy="1235.1" r="71.73" fill="#ee5a47" transform="rotate(-45.001 1506.404 1235.127)"/><path fill="#fff" d="M1504.43,1205.53h-0.24l-13.75,7.42l-2.07-8.15l17.28-9.25h9.13v79.1h-10.34V1205.53z"/></g></g></svg>