<svg xmlns="http://www.w3.org/2000/svg" data-name="1" viewBox="0 0 4680 3120"><defs><clipPath id="a"><path fill="none" d="M1525.25 1550.75s-211.42-30.61-226.72 88 45.92 206.64 48.79 279.34 9 191.33 63.34 200.9 314.53 22.06 356.19 8.67 46-107.34-4.35-122.1-138.71-43.46-140.63-76 36.36-302.3-1.91-334.82-94.71-43.99-94.71-43.99Z"/></clipPath><clipPath id="b"><path fill="none" d="M1796.54 2068.19s-28.7 40.17-34.44 116.71 0 346.3 0 346.3 44.92 49.75 108.56 59.32-9.07-23-33.94-74.62 30.61-208.55 45.92-264 32.53-170.28 32.53-170.28Z"/></clipPath><clipPath id="c"><path fill="none" d="M1668.62 2079.41s-28.7 40.18-34.44 116.71 0 346.31 0 346.31 44.92 49.74 108.56 59.31-9.07-23-33.94-74.62 30.61-208.55 45.92-264 32.53-170.29 32.53-170.29Z"/></clipPath><clipPath id="d"><path fill="none" d="M1504.51 1787.35s-36.35 96.9 11.48 160 118.62 82.27 118.62 82.27v128.2s-9.56 38.26 68.88 40.17 177.94-15.3 208.55-13.39 34.44-128.19 13.39-210.46-210.86-176-210.86-176Z"/></clipPath><clipPath id="e"><path fill="none" d="M2012.38 1496.07s.11-24.13 21.15-36.57 35.4-35.39 41.14-31.57-1 25.62-7.65 33.86 27.74 14 44 15.89 46.88-7.65 57.4-4.78-40.18 43-62.18 44-95.88 14.11-93.86 13.75-9.46-28.1-9.46-28.1Z"/></clipPath><clipPath id="f"><path fill="none" d="M1585.82 1400.67s-46.19-5.74-112.78 50.22-58 111.93-66.59 175.07-12.91 155 14.35 169.33 252.56 25.83 252.56 25.83 9.12-37.31 21.78-45.92 24.14-10 24.14-10 12.91-106.19 24.39-130.58c8.21-17.44 5.46-44.39 3.23-58.33a2.47 2.47 0 0 1 4.28-2c13.6 15.28 48.5 50.79 84.33 57.51 45.92 8.61 193.72-94.71 193.72-94.71l-20.09-48.79s-120.54 61.61-153.54 48.7-142.06-139.19-189.42-142.06-80.36 5.73-80.36 5.73Z"/></clipPath><clipPath id="g"><path fill="#5e1212" d="M1525.56 1179s-12.2-41.62 61.7-34.44 104.55 38 107.88 101.16-10.3 84.67 12.66 103.32 25.83 43 12.91 51.66-33.72 0-33.72 0-3.59 10-16.5 11.48a122.54 122.54 0 0 1-24.86 0l-103.57 9.33s-20.09 5.74-32.29-4.31l17.94-13.63s-19.37 10.76-39.46 5.74-26.55-11.48-26.55-11.48 30.13-.72 23-31.57-73.23-178.68 40.86-187.26Z"/></clipPath><clipPath id="h"><path fill="none" d="M1686.27 1270.8c1.44-22.24-7.89-53.81-7.89-53.81s-5.74 6.46-28 5.74-28.7-5.74-28.7-5.74-7.18 10.76-17.94 27.27c-6.56 10-19.5 16.67-27 36.37-9.54-5-20.07-4.63-26.4 1.7-8.41 8.41-6.25 24.2 4.82 35.26a34.05 34.05 0 0 0 16.09 9.24c.19 3.83.49 7.86.92 12.14 7.18 71-30.13 82.51-30.13 82.51s57.4 113.36 90.4 109 15.79-112.64 15.79-112.64-12.92-23-5.74-50.23c55.24 2.16 50.22-59.55 52.37-63.85s-10.02-10.71-8.59-32.96Z"/></clipPath><clipPath id="i"><path fill="none" d="m1481.61 1821.12-79.14 812.18a11.5 11.5 0 0 0 11.64 12.46 11.58 11.58 0 0 0 11.56-9.74l121.95-814.9Z"/></clipPath><clipPath id="j"><path fill="none" d="m2539.44 1602.14 60.49 162.03h292.02l-65.29-162.03h-287.22z"/></clipPath><clipPath id="k"><path fill="#fff" d="M3058.17 2504.27s-18.21 62.22-43.74 73.79-70.32 12.54-72.6 33.58 23.46 30.62 93.81 30.62 97.15-5.74 101-21.05-19.13-116.94-19.13-116.94Z"/></clipPath><clipPath id="l"><path fill="#fff" d="M2816.12 2519.81s-2.85 45-71.73 57.87-126.28 26.31-114.8 55 246.82 29.14 264 18.4 0-94.93 0-94.93Z"/></clipPath><clipPath id="m"><path fill="none" d="M3052.8 1883.63s-110.39 8.38-256.75 51.54-146.37 78.19-91.84 263 94.71 300.57 97.58 317.32 41.61 67.44 104 62.18c0-105.71-.71-438.62-17.93-464.45s107.62-23.71 107.62-23.71l50.56 449s37-.53 70-3.4 4.92-459.19 60.58-476.41 101.57-47.83 107.31-106.19-20.09-86.09-20.09-86.09Z"/></clipPath><clipPath id="n"><path fill="none" d="M2840.05 1699s-154.49-85.86-173.87-103.79.72-38.75-18.65-53.82-36.59-35.87-37.31-31.57 4.3 16.51 4.3 16.51-45.2-17.65-56.68-17.08 2.87 14.92 5 15.64-8.08 3.59-9.42 5.74 8 17.94 8 17.94-8.61-.72-5 7.89 71.75 79.64 71.75 79.64 104 142.78 162.87 160 114.79-40.43 114.79-40.43Z"/></clipPath><clipPath id="o"><path fill="#5e1212" d="M3102.18 1068.57s3.53-20.09-56.11-16.26-86.44-32.53-107.48 22-4.78 77.57 22 76.53 111 128.19 111 128.19l63.14-16.74s20.47-8.13 26-40.66 56.27-135.84-58.55-153.06Z"/></clipPath><clipPath id="p"><path fill="none" d="M2949.59 1126s-5.48 51.66-7.76 67.44-13.76 24.4-9.46 30.14 8.61 63.14 28.7 84.66 47.35-1.43 61.7 8.61 15.79 24.4 15.79 24.4 24.39-31.57 76.05-35.88 45.92 2.87 45.92 2.87l-25.83-45.92s-14.35 4.31-23 4.31-12.91-4.31-17.22-4.31-15.78 2.87-15.78 2.87l-18.66-24.39s-.76-45.92-14-37.31-27.07-31.57-31.64-40.18-13.18 1.43-21.79-5.74-14.35-38.74-14.35-38.74-20.06 20.05-28.67 7.17Z"/></clipPath><clipPath id="q"><path fill="none" d="M2852.49 1657.87s28.7-72.71 32.53-115.76 18.45-108.1 71.41-141.58 98.87-70.79 159.62-77.49 105.71 21 142.06 34.44 75.29 37.65 62 122.62-30.47 414.06-30.47 414.06-80.36 53.57-181.77 38.26-89.19 1.92-100.08-109.05-25.79-144.89-25.79-144.89-50.12 86.76-65.42 88.08-72.7-25.47-64.09-108.69Z"/></clipPath><clipPath id="r"><path fill="none" d="M3275 1483.72s236.54-34.25 253.67 98.47-51.38 231.19-54.59 312.53-10.1 214.07-70.88 224.77-351.9 24.68-398.51 9.7-51.43-120.09 4.87-136.61 155.2-48.62 157.34-85-40.7-338.24 2.1-374.58 106-49.28 106-49.28Z"/></clipPath></defs><path fill="#d7eaf4" d="M1774.87 1986.11s169.23-57.13 333.57 27.17 372 235.62 605.5 188.69 472.06-253.22 633.7-305.26 415.35-289 342.3-599.7c-88.32-375.7-333.28-310.81-692.74-441.61s-208.47-383.77-849.42-427.89c-758.21-52.19-1336.31 512.92-1127.55 1081 249.49 679.03 736.48 482.68 754.64 477.6Z"/><path fill="#5394ad" d="M2702.38 1561h-9.93v-2h9.93Zm-19.86 0h-9.93v-2h9.93Zm-19.86 0h-9.92v-2h9.92Zm-19.85 0h-9.93v-2h9.93Zm-19.86 0H2613v-2h10Zm-19.86 0h-9.93v-2h9.93Zm-19.86 0h-9.93v-2h9.93Zm-19.86 0h-9.93v-2h9.93Zm-19.85 0h-9.93v-2h9.93Zm-19.86 0h-9.93v-2h9.93Zm-19.86 0h-9.93v-2h9.93Zm-19.86 0H2474v-2h9.93Zm-19.86 0h-9.93v-2h9.93Zm-19.86 0h-9.92v-2h9.92Zm-19.85 0h-9.93v-2h9.93Zm-19.86 0h-9.93v-2h9.93Zm-19.86 0h-9.93v-2h9.93Zm-19.86 0h-9.93v-2h9.93Zm-19.86 0H2335v-2h9.92Zm-19.85 0h-9.89v-2h9.93Zm387.42-.58-.47-2a18.74 18.74 0 0 0 8.21-4.41l1.35 1.47a20.79 20.79 0 0 1-9.09 4.94Zm-407.34-2a20.86 20.86 0 0 1-7.47-7.11l1.69-1.06a18.86 18.86 0 0 0 6.76 6.43Zm422.05-11.5-1.89-.64a18.57 18.57 0 0 0 .95-5.88v-3.62h2v3.62a20.33 20.33 0 0 1-1.06 6.48Zm-432.64-5.45v-9.98h2v9.91Zm433.7-14.62h-2v-9.93h2Zm-431.72-5.29h-2v-9.93h2Zm431.72-14.56h-2v-10h2Zm-431.72-5.29h-2v-9.93h2Zm431.72-14.57h-2v-9.93h2Zm-431.72-5.29h-2v-9.93h2Zm431.72-14.56h-2v-9.93h2Zm-431.72-5.3h-2V1452h2Zm431.72-14.56h-2v-9.93h2Zm-431.72-5.29h-2v-9.93h2Zm431.72-14.57h-2v-9.93h2Zm-431.72-5.29h-2v-9.93h2Zm431.72-14.57h-2v-9.93h2Zm-431.72-5.29h-2v-9.93h2Zm431.72-14.57h-2v-9.93h2Zm-431.72-5.29h-2v-9.93h2Zm431.72-14.56h-2v-10h2Zm-431.72-5.3h-2v-9.93h2Zm431.72-14.56h-2v-9.93h2Zm-431.72-5.3h-2v-9.92h2Zm431.72-14.56h-2v-9.93h2Zm-431.72-5.29h-2V1313h2Zm431.72-14.57h-2V1298.54l2-.1v1Zm-431.72-5.29h-2v-3.66a20.63 20.63 0 0 1 1-6.48l1.9.63a18.7 18.7 0 0 0-.94 5.85Zm426.91-13.48a18.91 18.91 0 0 0-6.74-6.44l1-1.75a21.06 21.06 0 0 1 7.46 7.13Zm-420.91-3.86-1.35-1.47a20.78 20.78 0 0 1 9.08-4.9l.48 1.94a18.73 18.73 0 0 0-8.21 4.38Zm405.16-5h-10v-2h9.93Zm-19.93 0h-9.93v-2h9.93Zm-19.86 0H2658v-2h9.93Zm-19.86 0h-9.93v-2h9.93Zm-19.86 0h-9.93v-2h9.93Zm-19.86 0h-9.93v-2h9.93Zm-19.86 0h-9.92v-2h9.92Zm-19.85 0h-9.93v-2h9.93Zm-19.86 0h-9.93v-2h9.93Zm-19.86 0H2519v-2h9.93Zm-19.86 0h-9.93v-2h9.93Zm-19.86 0h-9.92v-2h9.92Zm-19.85 0h-9.93v-2h9.93Zm-19.86 0h-9.93v-2h9.93Zm-19.86 0h-9.93v-2h9.93Zm-19.86 0h-9.93v-2h9.93Zm-19.86 0h-9.9v-2h9.93Zm-19.85 0h-9.93v-2h9.93Zm-19.86 0h-9.93v-2h9.93Zm-19.86 0h-9.93v-2h9.93ZM2596.38 879.35h-2v-4h-4v-2h6v6zM2580.4 875.35h-10v-2h10Zm-19.94 0h-10v-2h10Zm-19.95 0h-10v-2h10Zm-19.94 0h-10v-2h10Zm-20 0h-10v-2h10Zm-19.94 0h-10v-2h10Zm-19.95 0h-10v-2h10Zm-19.94 0h-10v-2h10Zm-19.95 0h-10v-2h10Zm-19.94 0h-10v-2h10Zm-20 0h-10v-2h10Zm-19.94 0h-10v-2h10Zm-20 0h-10v-2h10Zm-19.94 0h-10v-2h10Zm-19.95 0h-10v-2h10Zm-19.94 0h-10v-2h10Zm-19.95 0h-10v-2h10Zm-19.94 0h-10v-2h10Zm-20 0h-10v-2h10Zm-19.94 0h-10v-2h10Zm-19.95 0h-10v-2h10Zm-19.94 0h-10v-2h10Zm-19.95 0h-10v-2h10Zm-19.94 0h-10v-2h10Zm-20 0h-10v-2h10Zm-19.94 0h-10v-2h10Zm-20 0h-10v-2h10Zm-19.94 0h-10v-2h10Zm-20 0h-10v-2h10Zm-19.94 0h-10v-2h10Zm-20 0h-10v-2h10Zm-19.94 0h-10v-2h10Zm-19.95 0h-10v-2h10Zm-19.94 0h-10v-2h10Zm-20 0h-10v-2h10Zm-19.94 0h-10v-2h10Zm-19.95 0h-10v-2h10Zm-19.94 0h-10v-2h10Zm-20 0h-10v-2h10Zm-19.94 0h-10v-2h10Zm-20 0h-10v-2h10Zm-19.94 0h-10v-2h10Zm-20 0h-10v-2h10Zm-19.94 0h-10v-2h10Zm-20 0h-10v-2h10Zm-19.94 0h-10v-2h10Zm-20 0h-10v-2h10Zm-19.94 0h-10v-2h10Zm-20 0h-10v-2h10Zm-19.94 0h-10v-2h10ZM1579.15 879.35h-2v-6h6v2h-4v4zM1579.15 1187.82h-2v-10.29h2Zm0-20.57h-2V1157h2Zm0-20.56h-2v-10.29h2Zm0-20.57h-2v-10.28h2Zm0-20.56h-2v-10.28h2Zm0-20.57h-2v-10.28h2Zm0-20.56h-2v-10.28h2Zm0-20.56h-2v-10.29h2Zm0-20.57h-2V1013h2Zm0-20.56h-2v-10.29h2Zm0-20.57h-2v-10.28h2Zm0-20.56h-2v-10.28h2Zm0-20.57h-2v-10.28h2Zm0-20.56h-2V910.2h2Zm0-20.57h-2v-10.28h2ZM1583.15 1204.1h-6v-6h2v4h4v2zM2580.4 1204.1h-10v-2h10Zm-19.94 0h-10v-2h10Zm-19.95 0h-10v-2h10Zm-19.94 0h-10v-2h10Zm-20 0h-10v-2h10Zm-19.94 0h-10v-2h10Zm-19.95 0h-10v-2h10Zm-19.94 0h-10v-2h10Zm-19.95 0h-10v-2h10Zm-19.94 0h-10v-2h10Zm-20 0h-10v-2h10Zm-19.94 0h-10v-2h10Zm-20 0h-10v-2h10Zm-19.94 0h-10v-2h10Zm-19.95 0h-10v-2h10Zm-19.94 0h-10v-2h10Zm-19.95 0h-10v-2h10Zm-19.94 0h-10v-2h10Zm-20 0h-10v-2h10Zm-19.94 0h-10v-2h10Zm-19.95 0h-10v-2h10Zm-19.94 0h-10v-2h10Zm-19.95 0h-10v-2h10Zm-19.94 0h-10v-2h10Zm-20 0h-10v-2h10Zm-19.94 0h-10v-2h10Zm-20 0h-10v-2h10Zm-19.94 0h-10v-2h10Zm-20 0h-10v-2h10Zm-19.94 0h-10v-2h10Zm-20 0h-10v-2h10Zm-19.94 0h-10v-2h10Zm-19.95 0h-10v-2h10Zm-19.94 0h-10v-2h10Zm-20 0h-10v-2h10Zm-19.94 0h-10v-2h10Zm-19.95 0h-10v-2h10Zm-19.94 0h-10v-2h10Zm-20 0h-10v-2h10Zm-19.94 0h-10v-2h10Zm-20 0h-10v-2h10Zm-19.94 0h-10v-2h10Zm-20 0h-10v-2h10Zm-19.94 0h-10v-2h10Zm-20 0h-10v-2h10Zm-19.94 0h-10v-2h10Zm-20 0h-10v-2h10Zm-19.94 0h-10v-2h10Zm-20 0h-10v-2h10Zm-19.94 0h-10v-2h10ZM2596.38 1204.1h-6v-2h4v-4h2v6zM2596.38 1187.82h-2v-10.29h2Zm0-20.57h-2V1157h2Zm0-20.56h-2v-10.29h2Zm0-20.57h-2v-10.28h2Zm0-20.56h-2v-10.28h2Zm0-20.57h-2v-10.28h2Zm0-20.56h-2v-10.28h2Zm0-20.56h-2v-10.29h2Zm0-20.57h-2V1013h2Zm0-20.56h-2v-10.29h2Zm0-20.57h-2v-10.28h2Zm0-20.56h-2v-10.28h2Zm0-20.57h-2v-10.28h2Zm0-20.56h-2V910.2h2Zm0-20.57h-2v-10.28h2ZM1484.33 809.14c-1.78 0-3.55 0-5.31-.07v-2c3.31.08 6.65.09 10 0v2q-2.32.07-4.69.07Zm14.78-.5-.13-2c3.3-.22 6.63-.53 9.91-.91l.23 2c-3.31.37-6.68.68-10.01.91Zm-30.12 0c-3.33-.24-6.69-.55-10-.94l.23-2c3.27.39 6.61.7 9.9.93Zm50.09-2.26-.32-2c3.26-.53 6.55-1.14 9.78-1.83l.42 2c-3.27.63-6.59 1.25-9.88 1.79Zm-70-.09c-3.28-.54-6.6-1.17-9.86-1.87l.42-2c3.22.69 6.51 1.31 9.77 1.85Zm89.69-4.07-.51-1.94c3.2-.84 6.42-1.76 9.57-2.75l.6 1.91c-3.22.96-6.43 1.89-9.69 2.74Zm-109.32-.13c-3.22-.85-6.47-1.79-9.64-2.8l.6-1.9c3.14 1 6.36 1.92 9.55 2.76Zm128.49-5.87-.68-1.88c3.1-1.14 6.22-2.36 9.26-3.64l.78 1.84c-3.11 1.26-6.25 2.46-9.39 3.64Zm-147.67-.22c-3.12-1.15-6.27-2.4-9.34-3.7l.78-1.84c3 1.29 6.16 2.52 9.25 3.66Zm166.17-7.62-.86-1.8c3-1.42 6-2.94 8.88-4.5l.94 1.77c-2.94 1.58-5.95 3.15-8.96 4.54Zm-184.66-.21c-3-1.44-6-3-9-4.55l1-1.76c2.91 1.56 5.89 3.08 8.87 4.51Zm202.36-9.28-1-1.71c1.57-.94 3.15-1.92 4.7-2.9q1.88-1.18 3.72-2.41l1.1 1.67q-1.86 1.23-3.75 2.43a90.063 90.063 0 0 1-4.77 2.93Zm-220-.24q-2.19-1.32-4.34-2.68c-1.39-.88-2.78-1.78-4.15-2.7l1.11-1.66c1.36.9 2.73 1.8 4.11 2.67s2.85 1.79 4.3 2.65Zm236.79-10.86-1.19-1.62c2.67-1.95 5.32-4 7.89-6.07l1.26 1.56c-2.63 2.11-5.31 4.17-8 6.14Zm-253.5-.28c-2.69-2-5.36-4-8-6.14l1.26-1.56c2.56 2.09 5.21 4.13 7.87 6.09Zm269.13-12.34-1.33-1.5c2.47-2.19 4.92-4.47 7.29-6.78l1.39 1.44c-2.42 2.33-4.91 4.67-7.39 6.85Zm-284.73-.31c-2.49-2.22-5-4.53-7.34-6.86l1.4-1.43c2.36 2.31 4.8 4.6 7.27 6.8Zm299.11-13.71-1.46-1.37c2.25-2.41 4.48-4.91 6.62-7.42l1.53 1.29c-2.2 2.55-4.45 5.07-6.73 7.51Zm-313.47-.34c-2.27-2.44-4.51-5-6.67-7.51l1.53-1.3c2.13 2.52 4.36 5 6.61 7.45Zm326.48-15-1.58-1.22c2-2.61 4-5.31 5.9-8l1.64 1.15c-1.91 2.76-3.91 5.48-6 8.12Zm-339.46-.37c-2-2.64-4-5.37-5.94-8.1l1.64-1.15c1.89 2.71 3.87 5.41 5.89 8Zm351-16.07-1.69-1.07c1.77-2.79 3.49-5.66 5.13-8.52l1.74 1c-1.67 2.93-3.44 5.83-5.23 8.64ZM1303 709a228.51 228.51 0 0 1-5.16-8.63l1.74-1c1.63 2.87 3.35 5.74 5.11 8.54Zm372.43-17-1.78-.91c1.5-2.94 2.94-6 4.3-9l1.82.82c-1.42 3.09-2.88 6.09-4.39 9.09Zm-382.33-.45c-1.51-3-3-6-4.33-9.07l1.82-.82c1.35 3 2.8 6 4.29 9Zm390.58-17.85-1.85-.74c1.21-3.06 2.37-6.2 3.43-9.33l1.9.65c-1.16 3.13-2.3 6.3-3.53 9.4Zm-398.81-.49c-1.22-3.1-2.38-6.28-3.45-9.44l1.9-.64c1.06 3.13 2.21 6.28 3.42 9.35Zm405.31-18.5-1.92-.55c.92-3.17 1.77-6.41 2.54-9.61l2 .46c-.88 3.22-1.74 6.48-2.67 9.68Zm-411.76-.53c-.92-3.21-1.78-6.48-2.55-9.73l2-.46c.76 3.22 1.61 6.46 2.52 9.64Zm416.43-19-2-.37c.62-3.24 1.16-6.54 1.63-9.82l2 .28c-.48 3.31-1.05 6.64-1.68 9.91Zm-421.07-.59c-.61-3.27-1.15-6.61-1.61-9.91l2-.28c.45 3.28 1 6.58 1.6 9.82Zm423.9-19.29-2-.19c.31-3.28.55-6.62.7-9.92l2 .09c-.2 3.33-.44 6.72-.75 10.02Zm-426.68-.6c-.3-3.32-.53-6.69-.68-10l2-.09c.15 3.3.38 6.64.68 9.93Zm427.63-19.46h-2v-.37c0-3.31-.08-6.65-.23-10l2-.09c.15 3.33.23 6.7.23 10Zm-426.53-.6h-2c0-3.34.08-6.72.24-10l2 .1c-.2 3.26-.28 6.59-.28 9.9ZM1695.67 575c-.3-3.29-.69-6.62-1.15-9.88l2-.28c.47 3.3.86 6.65 1.16 10Zm-422.67-.24-2-.18c.31-3.32.7-6.68 1.17-10l2 .28c-.47 3.29-.86 6.62-1.17 9.9Zm419.91-19.46c-.61-3.25-1.31-6.52-2.07-9.73l1.94-.47c.77 3.25 1.48 6.55 2.1 9.83Zm-417.13-.23-2-.37c.62-3.28 1.33-6.58 2.1-9.83l1.95.47c-.73 3.21-1.43 6.48-2.05 9.73Zm412.53-19.13c-.92-3.17-1.92-6.36-3-9.49l1.89-.64c1.07 3.15 2.09 6.38 3 9.58Zm-407.9-.22-1.92-.56c.92-3.2 1.94-6.42 3-9.58l1.89.65a237.15 237.15 0 0 0-2.97 9.49Zm401.48-18.63c-1.21-3.08-2.51-6.17-3.87-9.19l1.82-.82c1.37 3.05 2.69 6.17 3.91 9.28Zm-395.05-.2-1.86-.73c1.22-3.09 2.53-6.2 3.9-9.23l1.82.82c-1.36 3.01-2.7 6.08-3.86 9.14Zm386.88-18c-1.5-3-3.08-5.9-4.72-8.78l1.74-1c1.65 2.9 3.25 5.88 4.76 8.86Zm-378.72-.1-1.78-.9c1.5-3 3.1-5.94 4.75-8.83l1.74 1c-1.64 2.85-3.23 5.8-4.71 8.73Zm368.89-17.2c-1.77-2.79-3.62-5.58-5.52-8.29l1.64-1.15c1.91 2.74 3.79 5.55 5.57 8.37Zm-359.07-.06-1.69-1.07c1.78-2.82 3.65-5.63 5.56-8.35l1.64 1.14c-1.9 2.75-3.75 5.49-5.52 8.28Zm347.65-16.25c-2-2.62-4.12-5.22-6.26-7.74l1.52-1.29c2.16 2.54 4.29 5.17 6.33 7.81Zm-336.25 0-1.58-1.22c2-2.64 4.16-5.26 6.32-7.8l1.52 1.3c-2.14 2.44-4.25 5.07-6.27 7.68Zm323.37-15.13c-2.25-2.42-4.59-4.81-7-7.12l1.4-1.43c2.39 2.33 4.75 4.75 7 7.18Zm-310.49 0-1.46-1.37c2.27-2.43 4.63-4.85 7-7.18l1.36 1.4c-2.32 2.28-4.66 4.67-6.91 7.09Zm296.26-13.88c-2.47-2.2-5-4.36-7.59-6.44l1.26-1.55c2.59 2.09 5.16 4.28 7.66 6.49Zm-282 0-1.33-1.5c2.49-2.21 5.07-4.4 7.66-6.5l1.26 1.56c-2.6 2-5.16 4.17-7.62 6.36Zm266.56-12.49c-2.66-2-5.4-3.87-8.15-5.7l1.11-1.66c2.77 1.84 5.54 3.77 8.22 5.75Zm-251.09 0-1.18-1.61c2.69-2 5.46-3.92 8.24-5.76L1367 418c-2.79 1.79-5.53 3.71-8.2 5.67Zm234.54-11c-2.83-1.69-5.74-3.35-8.64-4.91l1-1.76c2.93 1.58 5.86 3.24 8.72 5Zm-217.95 0-1-1.72c2.86-1.71 5.81-3.38 8.75-5l.94 1.76c-2.97 1.47-5.89 3.18-8.72 4.83Zm200.45-9.36c-3-1.42-6-2.8-9-4.08l.78-1.84c3.06 1.29 6.14 2.68 9.14 4.11Zm-182.9-.07-.86-1.8c3-1.44 6.1-2.83 9.18-4.12l.77 1.84c-3.06 1.15-6.14 2.53-9.12 3.95Zm164.62-7.65c-3.1-1.14-6.27-2.22-9.42-3.21l.6-1.91c3.18 1 6.38 2.1 9.51 3.25Zm-146.25-.08-.68-1.88c3.13-1.15 6.34-2.23 9.53-3.23l.6 1.9c-3.19.86-6.37 1.94-9.48 3.08Zm127.27-5.89c-3.19-.84-6.44-1.62-9.67-2.31l.41-2c3.27.69 6.55 1.48 9.77 2.33Zm-108.26-.07-.51-1.93c3.23-.85 6.51-1.63 9.78-2.32l.41 2c-3.26.51-6.52 1.29-9.71 2.12Zm88.81-4.09c-3.25-.53-6.57-1-9.85-1.38l.23-2c3.31.39 6.66.86 9.94 1.4Zm-69.35 0-.32-2c3.28-.54 6.63-1 9.94-1.39l.23 2c-3.31.23-6.66.69-9.88 1.22Zm49.59-2.27c-3.29-.23-6.63-.39-9.94-.46v-2c3.34.08 6.71.23 10 .47Zm-29.83 0-.14-2c3.32-.23 6.7-.39 10-.46v2c-3.26-.11-6.6.05-9.89.27ZM2092.47 750.76h-10v-2h10Zm-20 0h-10v-2h10Zm-20 0h-10v-2h10Zm-20 0h-10v-2h10Zm-20 0h-10v-2h10Zm-20 0h-10v-2h10Zm-20 0h-10v-2h10Zm-20 0h-10v-2h10Zm-20 0h-10v-2h10Zm-20 0h-10v-2h10Zm-20 0h-10v-2h10Zm-20 0h-10.14v-2h10.14Zm230.25-.47-.32-2a33 33 0 0 0 9.21-2.94l.88 1.79a35.07 35.07 0 0 1-9.88 3.15Zm-250.54-1.06a35.33 35.33 0 0 1-9.27-4.39l1.11-1.66a33.23 33.23 0 0 0 8.75 4.13Zm268.78-7.86-1.36-1.47a33.4 33.4 0 0 0 6.12-7.5l1.72 1a36.11 36.11 0 0 1-6.59 7.97Zm-285.8-3.37a35.72 35.72 0 0 1-5.39-8.72l1.84-.8a33.54 33.54 0 0 0 5.08 8.24Zm296.11-14-1.94-.5a33.12 33.12 0 0 0 1-8.19v-1.51h2v1.47a35.25 35.25 0 0 1-1.06 8.73Zm-304.16-4.59a35 35 0 0 1-.24-4.1v-6h2v6a33.35 33.35 0 0 0 .23 3.87Zm305.25-15.58h-2v-10h2Zm-303.49-4.54h-2v-10h2Zm303.49-15.47h-2v-10h2Zm-303.49-4.54h-2v-10h2Zm303.49-15.47h-2v-10h2Zm-303.49-4.54h-2v-10h2Zm303.49-15.47h-2v-10h2Zm-303.49-4.54h-2v-10h2Zm303.49-15.47h-2v-10h2Zm-303.49-4.54h-2v-10h2Zm303.49-15.47h-2v-10h2Zm-303.49-4.53h-2v-10h2Zm303.49-15.48h-2v-10h2Zm-303.49-4.53h-2v-10h2Zm303.49-15.48h-2v-10h2Zm-303.49-4.53h-2v-10h2Zm303.49-15.48h-2v-10h2Zm-303.49-4.53h-2v-10h2Zm303.49-15.48h-2v-10h2Zm-303.49-4.53h-2v-10h2Zm303.49-15.48h-2v-10h2Zm-303.49-4.53h-2v-10h2Zm303.49-15.48h-2v-10h2Zm-303.49-4.53h-2v-10h2Zm303.49-15.48h-2v-5.94a32.14 32.14 0 0 0-.24-3.93l2-.24a36.32 36.32 0 0 1 .25 4.17Zm-303.49-4.53h-2v-1.41A35.26 35.26 0 0 1 1828 449l1.94.49a33.27 33.27 0 0 0-1 8.26Zm298.73-14.68a33.41 33.41 0 0 0-5.11-8.23l1.53-1.29a35.79 35.79 0 0 1 5.41 8.72Zm-293.95-3.91-1.71-1a35.59 35.59 0 0 1 6.49-7.93l1.35 1.47a34 34 0 0 0-6.13 7.42Zm281.61-10.76a33 33 0 0 0-8.75-4.12l.58-1.92a35.8 35.8 0 0 1 9.28 4.37Zm-267.47-2.19-.88-1.79a35.2 35.2 0 0 1 9.78-3.11l.32 2a32.93 32.93 0 0 0-9.22 2.86Zm249.15-3.35h-10v-2h9.94Zm-20 0h-10v-2h10Zm-20 0h-10v-2h10Zm-20 0h-10v-2h10Zm-20 0h-10v-2h10Zm-20 0h-10v-2h10Zm-20 0h-10v-2h10Zm-20 0h-10v-2h10Zm-20 0h-10v-2h10Zm-20 0h-10v-2h10Zm-20 0h-10v-2h10Zm-20 0h-10v-2h10ZM2503.05 750.76h-10v-2h10Zm-20 0h-10v-2h10Zm-20 0h-10v-2h10Zm-20 0h-10v-2h10Zm-20 0h-10v-2h10Zm-20 0h-10v-2h10Zm-20 0h-10v-2h10Zm-20 0h-10v-2h10Zm-20 0h-10v-2h10Zm-20 0h-10v-2h10Zm-20 0h-10v-2h10Zm-20 0h-10.15v-2h10.14Zm230.25-.47-.33-2a33 33 0 0 0 9.22-2.94l.88 1.79a35.18 35.18 0 0 1-9.88 3.15Zm-250.54-1.06a35.33 35.33 0 0 1-9.27-4.39l1.1-1.66a33.53 33.53 0 0 0 8.75 4.13Zm268.77-7.86-1.35-1.47a34 34 0 0 0 6.12-7.5l1.71 1a35.55 35.55 0 0 1-6.59 7.97ZM2245.74 738a35.41 35.41 0 0 1-5.39-8.72l1.83-.8a33.88 33.88 0 0 0 5.09 8.24Zm296.11-14-1.94-.49a33.25 33.25 0 0 0 1-8.2v-1.51h2v1.47a35.24 35.24 0 0 1-1.06 8.73Zm-304.16-4.59a35 35 0 0 1-.24-4.1v-6h2v6a33.35 33.35 0 0 0 .22 3.87Zm305.24-15.58h-2v-10h2Zm-303.48-4.54h-2v-10h2Zm303.48-15.47h-2v-10h2Zm-303.48-4.54h-2v-10h2Zm303.48-15.47h-2v-10h2Zm-303.48-4.54h-2v-10h2Zm303.48-15.47h-2v-10h2Zm-303.48-4.54h-2v-10h2Zm303.48-15.47h-2v-10h2Zm-303.48-4.54h-2v-10h2Zm303.48-15.47h-2v-10h2Zm-303.48-4.54h-2v-10h2Zm303.48-15.47h-2v-10h2Zm-303.48-4.53h-2v-10h2Zm303.48-15.48h-2v-10h2Zm-303.48-4.53h-2v-10h2Zm303.48-15.48h-2v-10h2Zm-303.48-4.53h-2v-10h2Zm303.48-15.48h-2v-10h2Zm-303.48-4.53h-2v-10h2Zm303.48-15.48h-2v-10h2Zm-303.48-4.53h-2v-10h2Zm303.48-15.48h-2v-10h2Zm-303.48-4.53h-2v-10h2Zm303.48-15.48h-2v-5.94a34.26 34.26 0 0 0-.23-3.93l2-.24a36.31 36.31 0 0 1 .24 4.17Zm-303.48-4.53h-2v-1.41a35.26 35.26 0 0 1 1.1-8.75l1.94.49a33.27 33.27 0 0 0-1 8.26Zm298.72-14.68a33.67 33.67 0 0 0-5.1-8.23l1.53-1.29a35.79 35.79 0 0 1 5.41 8.72Zm-293.94-3.91-1.72-1a35.64 35.64 0 0 1 6.5-7.93l1.35 1.47a33.72 33.72 0 0 0-6.13 7.42Zm281.61-10.76a33 33 0 0 0-8.76-4.12l.58-1.92a35.65 35.65 0 0 1 9.28 4.37Zm-267.48-2.19-.87-1.79a35 35 0 0 1 9.77-3.11l.32 2a33 33 0 0 0-9.22 2.86Zm249.16-3.35h-10v-2h9.94Zm-20 0h-10v-2h10Zm-20 0h-10v-2h10Zm-20 0h-10v-2h10Zm-20 0h-10v-2h10Zm-20 0h-10v-2h10Zm-20 0h-10v-2h10Zm-20 0h-10v-2h10Zm-20 0h-10v-2h10Zm-20 0h-10v-2h10Zm-20 0h-10v-2h10Zm-20 0h-10v-2h10ZM2992.44 961.07c-2.29 0-4.62 0-6.92-.09l.05-2c3.32.09 6.67.11 10 .07v2Zm13.17-.33-.1-2c3.31-.16 6.65-.39 9.95-.69l.18 2c-3.32.29-6.7.52-10.03.69Zm-30.12-.22c-3.33-.21-6.7-.49-10-.84l.21-2c3.28.33 6.63.61 9.93.83Zm50.14-1.56-.25-2c3.28-.42 6.6-.91 9.86-1.46l.33 2c-3.29.55-6.63 1.04-9.94 1.5Zm-70.11-.5c-3.3-.47-6.64-1-9.91-1.61l.35-2c3.26.59 6.56 1.13 9.84 1.6Zm89.93-2.82-.41-2c3.24-.67 6.51-1.42 9.72-2.22l.48 1.94c-3.24.85-6.53 1.64-9.79 2.28Zm-109.69-.79c-3.25-.72-6.53-1.52-9.76-2.38l.51-1.93c3.2.85 6.46 1.64 9.69 2.36Zm129.18-4.07-.55-1.92c3.15-.92 6.35-1.92 9.51-3l.64 1.9c-3.19 1.08-6.42 2.09-9.6 3.02Zm-148.6-1.06c-3.18-1-6.39-2-9.54-3.14l.66-1.89c3.12 1.1 6.31 2.14 9.47 3.11Zm167.67-5.3-.71-1.87c3.1-1.17 6.21-2.42 9.27-3.71l.78 1.84c-3.08 1.32-6.22 2.56-9.35 3.74Zm-186.62-1.34c-3.1-1.22-6.22-2.53-9.28-3.87l.81-1.83c3 1.33 6.13 2.62 9.2 3.84Zm205.14-6.5-.85-1.81c3-1.41 6-2.9 8.94-4.42l.92 1.77c-2.95 1.54-5.99 3.04-9.01 4.46ZM2879 935c-3-1.46-6-3-8.94-4.58l1-1.76c2.91 1.56 5.89 3.09 8.87 4.54Zm241.38-7.66-1-1.74c2.87-1.63 5.76-3.35 8.57-5.1l1.06 1.7c-2.83 1.74-5.73 3.47-8.63 5.12Zm-259.08-1.85c-2.87-1.69-5.75-3.46-8.56-5.26l1.08-1.68c2.79 1.79 5.64 3.54 8.5 5.22Zm276.15-8.76-1.12-1.66c2.74-1.85 5.48-3.79 8.15-5.75l1.19 1.62c-2.67 1.95-5.46 3.9-8.22 5.77Zm-293-2.09c-2.74-1.9-5.47-3.89-8.13-5.91l1.21-1.59c2.64 2 5.35 4 8.06 5.86Zm309.25-9.81-1.25-1.56c2.59-2.06 5.18-4.2 7.69-6.36l1.3 1.51a418.4 418.4 0 0 1-7.79 6.39Zm-325.27-2.31-.92-.76a262.13 262.13 0 0 1-6.73-5.76l1.33-1.5c2.18 1.94 4.43 3.86 6.68 5.72l.91.75Zm340.5-10.8-1.36-1.46c2.42-2.26 4.83-4.59 7.16-6.93l1.42 1.41c-2.4 2.34-4.83 4.69-7.27 6.96Zm-355.54-2.52a264.81 264.81 0 0 1-7.13-7.09l1.44-1.39c2.3 2.38 4.68 4.74 7.07 7Zm369.71-11.72-1.47-1.35c2.24-2.44 4.46-5 6.61-7.47l1.52 1.3c-2.21 2.52-4.45 5.04-6.71 7.5Zm-383.68-2.72c-2.23-2.48-4.43-5-6.56-7.62l1.54-1.27c2.11 2.55 4.3 5.09 6.51 7.55Zm396.71-12.57-1.57-1.23c2-2.61 4.07-5.28 6-8l1.62 1.17c-2 2.73-4.04 5.42-6.1 8.04Zm-409.53-2.91c-2-2.65-4-5.37-6-8.09l1.64-1.16c1.9 2.7 3.89 5.41 5.9 8Zm421.33-13.33-1.66-1.11c1.84-2.75 3.65-5.58 5.38-8.39l1.71 1.05c-1.79 2.81-3.62 5.66-5.48 8.43ZM2775 842.84c-1.82-2.8-3.6-5.67-5.31-8.53l1.72-1c1.69 2.84 3.46 5.69 5.27 8.47Zm443.43-14-1.75-1c1.62-2.87 3.21-5.83 4.72-8.77l1.78.91c-1.55 3.02-3.18 5.94-4.78 8.85Zm-453.71-3.25c-1.59-2.94-3.15-5.94-4.63-8.93l1.8-.88c1.46 3 3 5.94 4.59 8.85ZM3227.55 811l-1.81-.84c1.39-3 2.74-6.06 4-9.11l1.85.77c-1.28 3.03-2.59 6.12-4.04 9.18Zm-471.76-3.4c-1.36-3-2.68-6.16-3.92-9.26l1.85-.74c1.23 3.07 2.54 6.16 3.89 9.18Zm479.49-15.11-1.87-.7c1.15-3.1 2.26-6.26 3.29-9.39l1.9.62c-1.04 3.12-2.16 6.31-3.32 9.43Zm-487-3.55c-1.12-3.14-2.19-6.35-3.18-9.53l1.91-.6c1 3.16 2.05 6.34 3.16 9.46Zm493.23-15.51-1.92-.55c.91-3.17 1.77-6.41 2.55-9.61l1.94.47c-.76 3.19-1.62 6.45-2.54 9.65Zm-499.22-3.68c-.87-3.22-1.69-6.5-2.44-9.75l1.95-.45c.74 3.23 1.55 6.49 2.42 9.68Zm504-15.81-2-.4c.66-3.25 1.27-6.54 1.8-9.8l2 .32c-.51 3.24-1.09 6.57-1.79 9.84Zm-508.46-3.78c-.62-3.28-1.18-6.62-1.67-9.92l2-.29c.49 3.27 1 6.58 1.65 9.84Zm511.7-16-2-.24c.41-3.28.76-6.62 1-9.92l2 .17c-.23 3.23-.53 6.6-.99 9.9Zm-514.65-3.85c-.36-3.3-.66-6.67-.89-10l2-.14c.23 3.31.53 6.66.89 9.93Zm516.35-16.17-2-.09c.15-3.29.24-6.65.27-10h2c-.02 3.3-.11 6.68-.26 10Zm-517.75-3.87c-.08-2.7-.12-5.46-.12-8.18v-1.87h2v1.86c0 2.7 0 5.43.12 8.11ZM3249.39 694v-.31c-.1-3.32-.28-6.67-.51-10l2-.14c.23 3.32.4 6.69.51 10v.45Zm-513.75-3.84-2-.09c.15-3.34.37-6.71.64-10l2 .17c-.28 3.28-.49 6.63-.64 9.94ZM3248 673.82c-.36-3.3-.78-6.62-1.27-9.89l2-.29c.49 3.29.92 6.64 1.28 10Zm-510.68-3.5-2-.24c.4-3.31.88-6.65 1.41-9.94l2 .32c-.55 3.26-1.03 6.54-1.43 9.86Zm507.75-16.22c-.61-3.25-1.29-6.53-2-9.76l1.95-.44c.74 3.25 1.43 6.55 2.05 9.83Zm-504.56-3.43-2-.4c.67-3.27 1.4-6.57 2.19-9.8l1.94.47c-.76 3.21-1.49 6.48-2.15 9.73Zm500.11-16c-.87-3.2-1.81-6.43-2.8-9.59l1.91-.6c1 3.19 1.95 6.44 2.82 9.67Zm-495.39-3.36-1.93-.54c.92-3.21 1.91-6.44 2.95-9.6l1.9.62c-1.05 3.14-2.04 6.35-2.94 9.52Zm489.42-15.7c-1.11-3.12-2.3-6.27-3.54-9.34l1.86-.74c1.24 3.09 2.44 6.26 3.56 9.41Zm-483.21-3.23-1.88-.69c1.16-3.12 2.4-6.26 3.69-9.34l1.84.77c-1.29 3.05-2.52 6.17-3.67 9.26Zm475.77-15.3c-1.35-3-2.79-6.06-4.25-9l1.79-.89c1.48 3 2.92 6.05 4.29 9.1ZM2759.09 594l-1.82-.84c1.41-3 2.89-6.06 4.41-9l1.78.91c-1.46 2.93-2.98 5.93-4.37 8.93Zm459.24-14.8c-1.58-2.9-3.24-5.82-4.94-8.66l1.72-1c1.71 2.87 3.38 5.81 5 8.74Zm-450.16-2.94-1.74-1c1.63-2.9 3.34-5.81 5.09-8.65l1.7 1c-1.73 2.87-3.43 5.76-5.05 8.64Zm439.94-14.19c-1.8-2.78-3.68-5.56-5.59-8.26l1.63-1.15c1.92 2.72 3.82 5.52 5.64 8.32Zm-429.51-2.79-1.66-1.11c1.85-2.77 3.78-5.54 5.75-8.24l1.61 1.18a247.37 247.37 0 0 0-5.7 8.16Zm418-13.5c-2-2.63-4.1-5.25-6.22-7.8l1.54-1.28c2.13 2.57 4.24 5.21 6.27 7.86Zm-406.28-2.62-1.57-1.24c2.06-2.62 4.2-5.24 6.36-7.77l1.53 1.29c-2.15 2.56-4.28 5.11-6.32 7.71Zm393.55-12.73c-2.21-2.46-4.5-4.92-6.8-7.29l1.44-1.39c2.32 2.39 4.62 4.86 6.85 7.35ZM2803.25 528l-1.47-1.35c2.25-2.45 4.59-4.9 6.94-7.26l1.42 1.41c-2.33 2.32-4.65 4.74-6.89 7.2ZM3170 516.1c-2.4-2.28-4.86-4.55-7.34-6.74l1.32-1.5c2.5 2.21 5 4.49 7.4 6.8Zm-352.69-2.26-1.36-1.46c2.45-2.29 5-4.54 7.48-6.71l1.31 1.52c-2.5 2.15-4.99 4.39-7.43 6.65Zm337.76-10.94c-2.56-2.09-5.2-4.16-7.84-6.16l1.21-1.59c2.66 2 5.31 4.09 7.89 6.2Zm-322.66-2.08-1.24-1.56c2.29-1.83 4.64-3.64 7-5.37l1-.73 1.18 1.61-1 .73c-2.35 1.72-4.66 3.5-6.94 5.32Zm306.76-9.93c-2.71-1.88-5.5-3.75-8.28-5.53l1.07-1.68c2.81 1.79 5.62 3.67 8.35 5.57ZM2848.48 489l-1.13-1.65c2.76-1.87 5.6-3.72 8.43-5.48l1 1.7c-2.78 1.76-5.57 3.58-8.3 5.43Zm273.91-8.86c-2.85-1.67-5.77-3.31-8.68-4.87l.95-1.76c2.93 1.57 5.88 3.22 8.75 4.91Zm-257-1.68-1-1.74c2.89-1.65 5.86-3.27 8.82-4.8l.92 1.77c-2.91 1.54-5.86 3.14-8.73 4.78Zm239.45-7.72c-3-1.44-6-2.85-9-4.18l.81-1.83c3.05 1.34 6.11 2.76 9.1 4.21Zm-221.76-1.47-.85-1.81c3-1.42 6.1-2.8 9.17-4.1l.78 1.84c-3.04 1.3-6.1 2.67-9.09 4.08Zm203.54-6.53c-3.07-1.21-6.21-2.38-9.33-3.47l.66-1.89c3.14 1.1 6.31 2.28 9.4 3.49Zm-185.19-1.26-.71-1.87c3.12-1.18 6.3-2.31 9.47-3.37l.63 1.89c-3.13 1.06-6.29 2.19-9.38 3.36Zm166.4-5.31c-1.14-.35-2.29-.69-3.44-1-2.05-.6-4.12-1.18-6.15-1.72l.51-1.93c2 .54 4.14 1.12 6.2 1.73 1.16.33 2.31.68 3.46 1Zm-147.49-1-.56-1.92c3.2-.94 6.46-1.82 9.7-2.63l.48 1.94c-3.2.8-6.44 1.68-9.61 2.61Zm128.21-4.1c-2.81-.63-5.66-1.21-8.45-1.73l-1.32-.25.36-2 1.33.24c2.81.53 5.68 1.12 8.52 1.75Zm-108.87-.73-.41-2c3.26-.68 6.59-1.31 9.88-1.86l.33 2c-3.26.52-6.55 1.18-9.79 1.86Zm89.26-2.85c-3.26-.46-6.59-.87-9.89-1.21l.2-2c3.33.34 6.68.75 10 1.22Zm-69.6-.46-.25-2c3.3-.43 6.66-.79 10-1.09l.18 2c-3.27.31-6.64.67-9.92 1.06Zm49.77-1.58c-3.29-.21-6.64-.36-10-.44l.05-2c3.34.08 6.72.24 10 .45Zm-29.91-.19-.1-2c3.33-.17 6.71-.28 10-.32v2c-3.23.06-6.59.15-9.89.32Z"/><ellipse cx="2393.22" cy="2645.67" fill="#d7eaf4" rx="1236.5" ry="114.33"/><ellipse cx="2873.96" cy="2633.02" fill="#c0d7e2" rx="373.53" ry="75.52"/><ellipse cx="1947.28" cy="2624.86" fill="#c0d7e2" rx="373.53" ry="75.52"/><path fill="#376f92" d="m1417.15 2092.22-69.83 537.63 105.33-528.07-35.5-9.56zM1721.99 2085.39l69.84 537.64-105.34-528.07 35.5-9.57z"/><path fill="#67a4c3" d="M1525.25 1550.75s-211.42-30.61-226.72 88 45.92 206.64 48.79 279.34 9 191.33 63.34 200.9 314.53 22.06 356.19 8.67 46-107.34-4.35-122.1-138.71-43.46-140.63-76 36.36-302.3-1.91-334.82-94.71-43.99-94.71-43.99Z"/><path fill="#376f92" d="M1411.88 1545.4c-38.1 3.64-66 41.47-70.22 79.52s9.88 75.65 26.3 110.23 35.66 68.57 42.79 106.18c5.16 27.22 3.78 55.51 10.68 82.34 14.46 56.24 64 98.14 118.22 118.85s113.42 23.64 171.43 26.34l144.2 6.7c6.65.31 13.7.54 19.53-2.69 13.67-7.55 12-27.82 6-42.23-20.52-49.1-67.13-82.18-114.58-106.25-35.12-17.81-76.36-37.28-85.47-75.58-10.85-45.59 30.51-85.37 46.26-129.51 24.21-67.82-17.73-145.86-79.56-182.78s-137.78-40.94-209.6-35.68Z" clip-path="url(#a)"/><path fill="#649b96" d="M1860.16 2549.24c4.92 5.31 34 47 79.88 56.58s67 28.7 30.61 37.31-54.21 12.44-133.29 0-102-32.06-104-51 19.14-91.59 40.18-87.76 86.62 44.87 86.62 44.87Z"/><path fill="#ff8f6b" d="M1796.54 2068.19s-28.7 40.17-34.44 116.71 0 346.3 0 346.3 44.92 49.75 108.56 59.32-9.07-23-33.94-74.62 30.61-208.55 45.92-264 32.53-170.28 32.53-170.28Z"/><g clip-path="url(#b)"><path fill="#f65b2b" d="M1957.55 2076.5c-7.06-16.24-23.83-26.79-41.23-30.09s-35.4-.29-52.46 4.46c-39.67 11.05-77.32 32.14-103.38 64s-39.37 75.21-30.51 115.43c2.31 10.49 7.4 22 17.7 25 6.76 2 14-.27 20.6-2.63a622.06 622.06 0 0 0 175.73-96.8l-.25-33c15.63-8.41 20.86-30.13 13.8-46.37ZM1900.57 2576.68c-3.38-1.69-7.41-.6-11.09.24-29 6.58-59.75-5.54-82.48-24.75s-38.91-44.85-54.73-70.06l-50.72 45c35.78 50.55 95 83.75 156.81 87.9 10.68.72 21.85.52 31.49-4.15s17.3-14.88 16-25.5c-.5-3.47-2.12-7.1-5.28-8.68Z"/></g><path fill="#79b2ae" d="M1732.24 2560.46c4.92 5.32 34 47 79.88 56.59s67 28.7 30.61 37.31-54.21 12.43-133.29 0-102-32.07-104-51 19.14-91.59 40.18-87.77 86.62 44.87 86.62 44.87Z"/><path fill="#ff8f6b" d="M1668.62 2079.41s-28.7 40.18-34.44 116.71 0 346.31 0 346.31 44.92 49.74 108.56 59.31-9.07-23-33.94-74.62 30.61-208.55 45.92-264 32.53-170.29 32.53-170.29Z"/><g clip-path="url(#c)"><path fill="#f65b2b" d="M1828.55 2089.46c-7.06-16.24-23.83-26.8-41.23-30.1s-35.4-.28-52.46 4.47c-39.67 11-77.32 32.14-103.38 64s-39.37 75.21-30.51 115.42c2.31 10.49 7.4 22 17.7 25 6.75 2 14-.28 20.6-2.64a622.41 622.41 0 0 0 175.73-96.78l-.25-33c15.63-8.42 20.86-30.13 13.8-46.37ZM1771.57 2589.63c-3.38-1.69-7.41-.6-11.09.24-29 6.59-59.75-5.53-82.48-24.75s-38.91-44.85-54.73-70l-50.72 45c35.78 50.55 95 83.75 156.81 87.89 10.68.72 21.85.52 31.49-4.14s17.3-14.88 16-25.51c-.5-3.52-2.13-7.15-5.28-8.73Z"/></g><path fill="#ffba55" d="M1504.51 1787.35s-36.35 96.9 11.48 160 118.62 82.27 118.62 82.27v128.2s-9.56 38.26 68.88 40.17 177.94-15.3 208.55-13.39 34.44-128.19 13.39-210.46-210.86-176-210.86-176Z"/><path fill="#e79329" d="M1488.1 1808.83c4.69 39.1 16.51 78 39.39 110.08s57.65 56.69 96.65 62.2c6.35.9 14 2.21 16.32 8.2 2 5.4-1.76 11.39-.93 17.1 1.47 10.07 14.75 12.45 24.92 12.36a235.15 235.15 0 0 0-8.38 73.14c.47 10.92 1.84 22.22 7.6 31.51 10.59 17.11 32.77 22.72 52.86 24 42.47 2.58 84.47-7.42 126.55-13.72 17.54-2.61 35.93-4.48 52.65 1.45 20.6 7.29 35.35 25.13 53.22 37.71a117.72 117.72 0 0 0 84.08 20c-91.6 9.33-180.13 37.82-270.93 53.12a951 951 0 0 1-234.82 10.02c-8.89-.72-18.19-1.72-25.55-6.75-10.31-7.05-14.35-20.42-14.94-32.9-2-42.86 27.23-80.82 34.87-123 6.66-36.75-4.33-76.3-29-104.35-36.44-41.46-100.58-59.74-119-111.77Z" clip-path="url(#d)"/><path fill="#ff8f6b" d="M2012.38 1496.07s.11-24.13 21.15-36.57 35.4-35.39 41.14-31.57-1 25.62-7.65 33.86 27.74 14 44 15.89 46.88-7.65 57.4-4.78-40.18 43-62.18 44-95.88 14.11-93.86 13.75-9.46-28.1-9.46-28.1Z"/><path fill="#f65b2b" d="M2168.88 1460c-21-9-45 6.15-67.59 2.72-4.06-.62-8-1.83-12-2.72.44-.51.85-1 1.25-1.57a26.41 26.41 0 0 0-24.17-41.86l3.22 2c4.75 1.55 7 7.39 6.11 12.31s-4 9.08-7.21 13-6.52 7.82-7.88 12.63c-.69 2.43-.68 5.42 1.23 7.08 1.2 1.06 2.72 12.53 2.72 12.53 6.07-3.25 13.66-1.22 19.64 2.19s11.23 8.13 17.63 10.66c10.31 4.08 21.91 1.91 32.78-.32 13.23-2.72 26.91-5.62 37.87-13.53a10 10 0 0 0 3.67-4c1.85-4.61-2.75-9.24-7.27-11.12Z" clip-path="url(#e)"/><path fill="#f63c4e" d="M1585.82 1400.67s-46.19-5.74-112.78 50.22-58 111.93-66.59 175.07-12.91 155 14.35 169.33 252.56 25.83 252.56 25.83 9.12-37.31 21.78-45.92 24.14-10 24.14-10 12.91-106.19 24.39-130.58c8.21-17.44 5.46-44.39 3.23-58.33a2.47 2.47 0 0 1 4.28-2c13.6 15.28 48.5 50.79 84.33 57.51 45.92 8.61 193.72-94.71 193.72-94.71l-20.09-48.79s-120.54 61.61-153.54 48.7-142.06-139.19-189.42-142.06-80.36 5.73-80.36 5.73Z"/><g clip-path="url(#f)"><path fill="#b82e41" d="M2037.39 1546.36c-5.16 6.5-13.05 10.12-20.63 13.5l-90.6 40.45c-12.05 5.38-24.22 10.8-37.14 13.45-31.41 6.44-64.39-4.31-91-22.18s-48-42.38-69-66.59a224 224 0 0 0 22.77 66.74l16.17 12c11.83 14.06 18.62 31.55 27.89 47.42s22.45 31.09 40.35 35.21c24 5.52 47.17-10.25 66.62-25.3q55.23-42.75 109.19-87.13c17.08-14.05 34.49-28.73 44.9-48.25-9.91.56-13.38 12.94-19.52 20.68Z"/><path fill="#b82e41" d="M1832.92 1535.68c3.62 12 3 24.77 2.31 37.26a36.51 36.51 0 0 0 17.69-17.58q5.1 6 10.75 11.49c2.54 2.48 5.51 5 9.07 5.08 4.07.07 7.51-3.27 9.16-7s2-7.87 2.87-11.84c3.74-16.55 17-29.15 30.41-39.51s28.12-20 37.1-34.41c-23.27 4.92-46.72 9.86-70.5 10.1s-48.2-4.54-68-17.66l-5.4 38c12.13 2.9 20.92 14.1 24.54 26.07ZM1570.78 1705.1c-6-7.2-7.89-16.81-9.85-25.95a522.83 522.83 0 0 0-35.16-106.47c2.19 11 2.38 22.88 2.18 34l-1.92 108a44.6 44.6 0 0 0-31.59 30.06l22.68-14.07c-4.22 3.33-1.08 11.91 4.56 13.68 6.07 1.9 12.48-.79 18.69-2.17 13.31-3 27.12.16 40.45 3a1028 1028 0 0 0 159 21.19l-142.26-46.52c-9.83-3.24-20.19-6.85-26.78-14.75Z"/><path fill="#0054ce" d="M1508.61 1541.68a40.64 40.64 0 0 1 3.46 3c-.12-.23-.24-.47-.37-.7Z"/></g><path fill="#001d73" d="M1525.56 1179s-12.2-41.62 61.7-34.44 104.55 38 107.88 101.16-10.3 84.67 12.66 103.32 25.83 43 12.91 51.66-33.72 0-33.72 0-3.59 10-16.5 11.48a122.54 122.54 0 0 1-24.86 0l-103.57 9.33s-20.09 5.74-32.29-4.31l17.94-13.63s-19.37 10.76-39.46 5.74-26.55-11.48-26.55-11.48 30.13-.72 23-31.57-73.23-178.68 40.86-187.26Z"/><path fill="#5e1212" d="M1525.56 1179s-12.2-41.62 61.7-34.44 104.55 38 107.88 101.16-10.3 84.67 12.66 103.32 25.83 43 12.91 51.66-33.72 0-33.72 0-3.59 10-16.5 11.48a122.54 122.54 0 0 1-24.86 0l-103.57 9.33s-20.09 5.74-32.29-4.31l17.94-13.63s-19.37 10.76-39.46 5.74-26.55-11.48-26.55-11.48 30.13-.72 23-31.57-73.23-178.68 40.86-187.26Z"/><path fill="#440b0b" d="M1537.9 1192c5.3-10.78 17.45-18.59 30.78-22.29s27.8-3.72 41.77-2.34c22.35 2.22 46.07 9.11 57.8 25 8.17 11.07 9.17 24.72 8.52 37.69a179.66 179.66 0 0 1-6.34 39c-3.77 13.56-9.14 27.73-4.38 41.08 4.55 12.74 17.43 22 29.71 30.62l44.71 31.2c10.55 7.37 22.12 16.69 20.63 28-1.35 10.27-13.5 17.56-25.73 19.7s-24.89.52-37.38.43c-35.42-.24-69 11.85-103.22 19.32a397.72 397.72 0 0 1-72.92 8.92c-22 .64-44.7-.66-64.46-8.65s-36-23.85-37-42l51.72-1.51c6.17-.17 12.59-.41 18-2.79 13.69-6 14.79-21.67 13.19-34.42a287.78 287.78 0 0 0-16.53-66.26c-4.5-11.88-9.82-23.63-12.13-35.93s6-36.31 13.47-47.14 49.79-17.63 49.79-17.63Z" clip-path="url(#g)"/><path fill="#ff8f6b" d="M1686.27 1270.8c1.44-22.24-7.89-53.81-7.89-53.81s-5.74 6.46-28 5.74-28.7-5.74-28.7-5.74-7.18 10.76-17.94 27.27c-6.56 10-19.5 16.67-27 36.37-9.54-5-20.07-4.63-26.4 1.7-8.41 8.41-6.25 24.2 4.82 35.26a34.05 34.05 0 0 0 16.09 9.24c.19 3.83.49 7.86.92 12.14 7.18 71-30.13 82.51-30.13 82.51s57.4 113.36 90.4 109 15.79-112.64 15.79-112.64-12.92-23-5.74-50.23c55.24 2.16 50.22-59.55 52.37-63.85s-10.02-10.71-8.59-32.96Z"/><g clip-path="url(#h)"><path fill="#f65b2b" d="M1696.65 1197.24c-2.78-6.94-10.63-10.24-17.86-12.15a124.38 124.38 0 0 0-73.42 3.2c-12.92 4.65-25.41 11.78-33.53 22.85-2.24 3.06-4.15 7.22-2.21 10.48l6.21 35.24-1.66 20.6a114.76 114.76 0 0 0 41.93-32.82 27.14 27.14 0 0 1 5.4-5.71c4.52-3.11 10.47-2.78 16-2.49 11.77.62 23.84.44 34.92-3.57s21.12-12.44 24.37-23.77c1.07-3.87 1.34-8.1-.15-11.86ZM1653.29 1366.47c-13.19 1.71-28.69-.09-38.79-7.59-.84-.63-2.1-1.26-2.8-.49a2 2 0 0 0-.34 1.47 43.75 43.75 0 0 0 25.49 37.79c3.51 1.54 7.72 2.57 11.07.69s4.67-6.06 5.55-9.85c1.7-7.28 3-15.23-.18-22ZM1563 1292c-3 3-1.91 9 2.45 13.33s10.33 5.46 13.33 2.46 1.91-9-2.45-13.34S1566 1289 1563 1292Z"/></g><ellipse cx="1644.3" cy="1272.24" fill="#5e1212" rx="6.82" ry="10.76"/><ellipse cx="1646.45" cy="1270.1" fill="#fff" rx="3.19" ry="5.04"/><path fill="#5e1212" d="m1651.12 1241.39-6.39-.27a43.61 43.61 0 0 0-5.87.15 19.78 19.78 0 0 0-5.42 1.3 24.2 24.2 0 0 0-5.28 3.12 9.82 9.82 0 0 1 3.66-5.81 12.85 12.85 0 0 1 6.62-2.59 16.9 16.9 0 0 1 6.85.75 15 15 0 0 1 5.83 3.35ZM1666.18 1316c-4.43.32-8.8.47-13 1a26.15 26.15 0 0 0-5.91 1.29 4.41 4.41 0 0 0-1.84 1.17 1.24 1.24 0 0 0-.22.49 3.25 3.25 0 0 1 0 .33c0 .15.06.29.1.45a7.52 7.52 0 0 0 1.3 2.21 11.9 11.9 0 0 0 1.88 2.06 13.31 13.31 0 0 0 5.09 2.57c3.86 1.06 8.24.87 12.6.2a21.25 21.25 0 0 1-13.21 2.89 14.78 14.78 0 0 1-6.82-2.67c-.5-.37-1-.82-1.42-1.24a8.75 8.75 0 0 1-1.25-1.4 10.74 10.74 0 0 1-2-3.43 10.34 10.34 0 0 1-.25-1.16 8.06 8.06 0 0 1 0-1.3 6 6 0 0 1 .38-1.33 4.65 4.65 0 0 1 .7-1.14 7.79 7.79 0 0 1 3.66-2.27 17.23 17.23 0 0 1 3.56-.7 28.46 28.46 0 0 1 3.44-.15 46.47 46.47 0 0 1 13.21 2.13Z"/><circle cx="1613.09" cy="1305.7" r="16.96" fill="#f65b2b"/><path fill="#ff8f6b" d="M1676.66 1809.64s12.48-46.88 52.66-44.49 53.57 44.49 53.57 44.49Z"/><path fill="#c67a56" d="m1481.61 1821.12-79.14 812.18a11.5 11.5 0 0 0 11.64 12.46 11.58 11.58 0 0 0 11.56-9.74l121.95-814.9Z"/><path fill="#a0593d" d="M1402.42 2691c.15-8.92 109.89-795.82 109.89-795.82h-69.59l-7.38-54.86 138.53 14.71 10.71 237.14L1475 2651.09Z" clip-path="url(#i)"/><path fill="#a0593d" d="m3007.83 1821.12 77.6 801.46a11.51 11.51 0 0 1-11.64 12.46 11.6 11.6 0 0 1-11.56-9.74l-120.4-804.18Z"/><rect width="1790.84" height="63.14" x="1369.69" y="1807.74" fill="#c67a56" rx="7"/><path fill="#67a4c3" d="m2377.47 1570.72-.37.93-92.9 235.83h-522.68v-15.79l155.32-14.34 90.39-216.67h363.07l7.17 10.04z"/><path fill="#376f92" d="m2377.47 1570.72-.37.93-347.87 8.97-92.47 226.86h-175.24v-15.79l155.32-14.34 90.39-216.67h363.07l7.17 10.04z"/><path fill="#fff" d="M2166.81 1747.05c-9.45 0-18.14-2.94-24.73-9.09-8.48-7.89-12.24-19.75-10.61-33.4 1.6-13.42 8.26-27 18.73-38.25 21.79-23.38 53.6-29.29 70.9-13.16s13.66 48.26-8.13 71.65c-13.48 14.47-30.81 22.25-46.16 22.25Zm29.51-99c-14.22 0-30.47 7.38-43.19 21-9.9 10.63-16.18 23.41-17.69 36-1.48 12.35 1.85 23 9.36 30 15.69 14.62 45 8.8 65.25-13s24-51.38 8.33-66c-5.85-5.43-13.6-8.05-22.06-8.05ZM2436.35 1698.57c-25.6 13.06-38.38 39.25-28.56 58.51s38.53 24.28 64.13 11.23 38.38-39.25 28.56-58.51-38.48-24.28-64.13-11.23Zm28.31 55.5c-15.15 7.73-32.14 4.76-37.95-6.64s1.75-26.9 16.9-34.62 32.14-4.75 37.95 6.64-1.75 26.9-16.9 34.62Z"/><path fill="#fff" d="M2461 1673.55v92a32.22 32.22 0 0 1-32.12 32.12h-36.53a32.25 32.25 0 0 1-32.12-32.12v-92Z"/><path fill="#eaeaea" d="M2461 1673.55v92a32.22 32.22 0 0 1-32.12 32.12h-36.53a31.9 31.9 0 0 1-22.27-9 79.47 79.47 0 0 0 12.71-8.94c16.46-13.68 33.35-27.94 42.75-47.19 8.86-18.17 10.06-38.67 12.12-59Z"/><path fill="#fff" d="m2327.09 1785.71 14.2 21.77h142.07l13.32-21.77h-169.59z"/><path fill="#f63c4e" d="m2588.45 1809.87-84.66-229.26h342.96l81.2 206.32 72.61 8.93v14.64l-412.11-.63z"/><path fill="#ffcfd6" d="m2539.44 1602.14 60.49 162.03h292.02l-65.29-162.03h-287.22z"/><g clip-path="url(#j)"><path fill="#fff" d="m2807.76 1557.08-145.43 228.63 45.5 10.89 143.78-219-43.85-20.52zM2722.54 1567.84c-11.14 8.87-160.62 183.74-160.62 183.74l17.85 12.59 154.16-190.58Z"/></g><path fill="#fff" d="M3058.17 2504.27s-18.21 62.22-43.74 73.79-70.32 12.54-72.6 33.58 23.46 30.62 93.81 30.62 97.15-5.74 101-21.05-19.13-116.94-19.13-116.94Z"/><path fill="#fff" d="M3058.17 2504.27s-18.21 62.22-43.74 73.79-70.32 12.54-72.6 33.58 23.46 30.62 93.81 30.62 97.15-5.74 101-21.05-19.13-116.94-19.13-116.94Z"/><path fill="#79b2ae" d="M2928 2611.39c19.2 12.4 43.71 13.63 66.27 10s44.16-11.75 66.47-16.71a244.58 244.58 0 0 1 47.92-5.77c9.81-.21 20 .26 28.77 4.61s15.88 13.5 15 23.27c-1.2 13.52-15.67 21.34-28.54 25.65a255.22 255.22 0 0 1-129.92 8.26c-12.19-2.42-24.41-5.83-34.87-12.53s-19.06-17.12-21.2-29.36Z" clip-path="url(#k)"/><path fill="#fff" d="M2816.12 2519.81s-2.85 45-71.73 57.87-126.28 26.31-114.8 55 246.82 29.14 264 18.4 0-94.93 0-94.93Z"/><path fill="#fff" d="M2816.12 2519.81s-2.85 45-71.73 57.87-126.28 26.31-114.8 55 246.82 29.14 264 18.4 0-94.93 0-94.93Z"/><path fill="#79b2ae" d="M2607.94 2616.86c41.38 26.24 93.55 29.1 142.19 23.18s96.14-19.72 144.94-24c12.11-1.06 27.08 0 32.38 11 5.9 12.18-5.39 25.73-16.92 32.81-31.09 19.07-69.26 21.74-105.72 22.29a1236.05 1236.05 0 0 1-165.89-8.71c-13-1.56-26.52-3.53-37.37-10.87s-18.12-21.71-13.19-33.85Z" clip-path="url(#l)"/><path fill="#217277" d="M3052.8 1883.63s-110.39 8.38-256.75 51.54-146.37 78.19-91.84 263 94.71 300.57 97.58 317.32 41.61 67.44 104 62.18c0-105.71-.71-438.62-17.93-464.45s107.62-23.71 107.62-23.71l50.56 449s37-.53 70-3.4 4.92-459.19 60.58-476.41 101.57-47.83 107.31-106.19-20.09-86.09-20.09-86.09Z"/><g clip-path="url(#m)"><path fill="#195959" d="m3178.34 2062.53-151.88 30.58c-18.81 3.79-39.18 7.41-56.53-.81l-16.86 24.4c-10.47 46 4 93.46 13.76 139.63 26.11 124.09 17.6 253.47 43.49 377.6 1.7 8.18 4.19 17.23 11.39 21.47 8.43 5 19.09 1 28-3.09 48-22.12 99.51-51.67 114.66-102.34 6-20.19 5.48-41.69 4.41-62.74-7.25-142.39-34.9-289.23 9.56-424.7ZM2786 2103.82a146.64 146.64 0 0 0 63.69 16.17l-12.46 19.18c10.48 9.16 12.09 24.6 13 38.49l16 253.45c1.52 24 1.14 52.37-18.31 66.54-20.26 14.76-48.18 5.12-73.12 2.62-5-.51-10.43-.59-14.64 2.17-7.45 4.9-7.36 15.74-5.79 24.52a184.47 184.47 0 0 0 72 115.06c12.72 9.28 28.34 17.18 43.67 13.6 9.55-2.23 17.62-8.7 23.94-16.19 23.92-28.32 25.13-68.77 25.16-105.83q.16-194.58.34-389.15l16.66-47.2-130.8-5.18c-8.72-.35-21.06 3.18-19.34 11.75Z"/></g><path fill="#ff8f6b" d="M2840.05 1699s-154.49-85.86-173.87-103.79.72-38.75-18.65-53.82-36.59-35.87-37.31-31.57 4.3 16.51 4.3 16.51-45.2-17.65-56.68-17.08 2.87 14.92 5 15.64-8.08 3.59-9.42 5.74 8 17.94 8 17.94-8.61-.72-5 7.89 71.75 79.64 71.75 79.64 104 142.78 162.87 160 114.79-40.43 114.79-40.43Z"/><g clip-path="url(#n)"><path fill="#f65b2b" d="M2935.17 1707.8c-8.55-19.82-23.83-36.16-41.12-49.08s-36.67-22.73-55.94-32.47l-147.92-74.77-22.14 42.68a418.49 418.49 0 0 1 103.57 85.51c35.39 40.41 64.79 89.16 112.72 113.43 9.76 5 21.06 8.79 31.52 5.59 13-4 20.58-17.49 24-30.61a93.91 93.91 0 0 0-4.69-60.28ZM2614.05 1513.71a59 59 0 0 1-8.11-22l-3.1-5.53a21.06 21.06 0 0 1 .29 14.37 8.63 8.63 0 0 1-3.53 4.93 9.49 9.49 0 0 1-5.09.86c-17.13-.76-32.84-13.8-49.74-11a8.51 8.51 0 0 0-5.27 2.44c-2.06 2.41-1.32 6.32.83 8.64s5.3 3.41 8.36 4.22c17.95 4.71 38 2.91 53.94 12.34 5.72 3.38 11.14 8.24 17.77 8.37 1 0 2.26-.21 2.65-1.16a2.77 2.77 0 0 0-.23-2c-2.1-5.25-5.82-9.67-8.77-14.48ZM2582.49 1542.59l-28.56-19.76-7.12 1a121 121 0 0 0 25.56 19.88c3.14 1.83 6.73 3.57 10.27 2.76a2.19 2.19 0 0 0 1.39-.78c.71-1.07-.48-2.37-1.54-3.1ZM2544.15 1542.4a31.42 31.42 0 0 1 13.22 4.71c3.56 2.26 6.65 5.24 10.39 7.18s8.52 2.7 12 .37a202.65 202.65 0 0 0-31.66-14.09Z"/></g><path fill="#fff" d="M2883.87 1620.56s-36 30-53.16 55-27.29 74 17.22 94 77.35-1.69 80.86-20.68-44.92-128.32-44.92-128.32Z"/><path fill="#001d73" d="M3102.18 1068.57s3.53-20.09-56.11-16.26-86.44-32.53-107.48 22-4.78 77.57 22 76.53 111 128.19 111 128.19l63.14-16.74s20.47-8.13 26-40.66 56.27-135.84-58.55-153.06Z"/><path fill="#5e1212" d="M3102.18 1068.57s3.53-20.09-56.11-16.26-86.44-32.53-107.48 22-4.78 77.57 22 76.53 111 128.19 111 128.19l63.14-16.74s20.47-8.13 26-40.66 56.27-135.84-58.55-153.06Z"/><path fill="#440b0b" d="M3092 1079.13c2.11-6.12-1.38-13.14-6.76-16.73s-12.19-4.37-18.66-4.1c-24.65 1-49.19 15.34-72.8 8.16-12.38-3.76-22.4-13-34.5-17.58-2.6-1-5.44-1.74-8.12-1a14.16 14.16 0 0 0-5.07 3 76 76 0 0 0-27.27 47.9c-2.57 18.63 2.62 38.32 14.49 52.91 14.4 17.7 37.54 27.51 49.16 47.15 13.4 22.64 8.19 53 22.36 75.12 7.12 11.13 18.57 19 30.93 23.71 14.14 5.36 33.11 5.28 41.09-7.57 5.59-9 3.75-21.44 10.17-29.88 1.31 2.95 3.3 5.8 6.25 7.1s7 .5 8.46-2.37c4.21 7.1 9.58 15 17.78 15.82 10.37 1 17.81-9.67 21.7-19.33 9.47-23.57 12.59-49.14 15.22-74.41 1.88-18.06 3.5-36.76-2.21-54s-20.74-32.72-38.89-33.15c-5-.12-11.41.15-13.46-4.44-1.28-2.88 0-6.17.43-9.3a15.87 15.87 0 0 0-9.08-16Z" clip-path="url(#o)"/><path fill="#ff8f6b" d="M2949.59 1126s-5.48 51.66-7.76 67.44-13.76 24.4-9.46 30.14 8.61 63.14 28.7 84.66 47.35-1.43 61.7 8.61 15.79 24.4 15.79 24.4 24.39-31.57 76.05-35.88 45.92 2.87 45.92 2.87l-25.83-45.92s-14.35 4.31-23 4.31-12.91-4.31-17.22-4.31-15.78 2.87-15.78 2.87l-18.66-24.39s-.76-45.92-14-37.31-27.07-31.57-31.64-40.18-13.18 1.43-21.79-5.74-14.35-38.74-14.35-38.74-20.06 20.05-28.67 7.17Z"/><g clip-path="url(#p)"><path fill="#f65b2b" d="M2972.25 1136.14c5.5 6.35 8 14.76 12.85 21.61s14.12 12.16 21.51 8.17a51 51 0 0 0 33.92 35.34c-10.86-30.79-.73-66.94-15.49-96.06a62.27 62.27 0 0 0-38.92-31.58c-11.57-3.1-24.41-2.62-35 3.06s-18.33 17-18.11 29l3.51 16c3.64 14.46 23.02 22.32 35.73 14.46ZM3147.76 1267a220.34 220.34 0 0 0-32-60.83c-2.28-3-5.23-6.34-9-6.19l-46.12 42.43q6.45 13.21 12.89 26.43a10.14 10.14 0 0 0 2 3.13c3.21 3 8.23.75 12.54.14 6.36-.89 12.52 2.13 18.65 4.08a57.52 57.52 0 0 0 38-1.27 6.39 6.39 0 0 0 3.2-2.15c1.08-1.64.48-3.85-.16-5.77ZM3075.48 1340.26a53.16 53.16 0 0 1-20.19-25c-2.85-7.32-5.14-16.45-12.63-18.83-6.36-2-12.84 2.15-18.47 5.75-19.2 12.26-43 19.85-64.89 13.68l11.69 33.2c2.35 10.44 11.3 18.51 21.38 22.1s21.14 3.29 31.73 1.73a140.62 140.62 0 0 0 53.83-19.83c1.49-.93 3.05-2 3.66-3.65 1.41-3.73-2.78-6.96-6.11-9.15Z"/></g><ellipse cx="2974.83" cy="1196.28" fill="#5e1212" rx="6.33" ry="12.91"/><ellipse cx="2972.82" cy="1192.92" fill="#fff" rx="3.1" ry="6.33"/><path fill="#5e1212" d="M2968.5 1163.28a16.42 16.42 0 0 1 8-3.38 16.88 16.88 0 0 1 8.93 1.1 15.34 15.34 0 0 1 3.94 2.38 16 16 0 0 1 3.07 3.31 17.62 17.62 0 0 1 3.1 8.07 62.37 62.37 0 0 0-5.48-6c-.45-.46-1-.82-1.44-1.25s-1-.77-1.52-1.08a17.58 17.58 0 0 0-3.22-1.74 22.45 22.45 0 0 0-7.25-1.64 45.52 45.52 0 0 0-8.13.23ZM2956.43 1256.55a48.45 48.45 0 0 1 10.24-4.25 43.11 43.11 0 0 1 5.48-1.23 19.73 19.73 0 0 1 6-.16 5.63 5.63 0 0 1 .85.18l.44.12.47.19.47.21.5.32a4 4 0 0 1 .94.9 4.31 4.31 0 0 1 .61 1.3 4.13 4.13 0 0 1 .08 1.29 5.76 5.76 0 0 1-.55 1.95 12.21 12.21 0 0 1-15.21 6.36c3.67-.47 7.05-1.75 9.25-4a11.52 11.52 0 0 0 2.49-3.88 2.55 2.55 0 0 0 .15-.68s0-.06 0-.05v.08h-.05a.2.2 0 0 1-.07-.06h-.16l-.16-.07h-.23a2.68 2.68 0 0 0-.48-.1 22.71 22.71 0 0 0-4.89 0c-1.74.12-3.51.33-5.28.54-3.58.29-7.18.78-10.89 1.04Z"/><path fill="#fff" d="M3014.16 1365.13s3.83-37.31 55.49-55.48 87.68-23.92 107-11.48 41.3 47.83 41.3 47.83-81.34-51.66-203.79 19.13Z"/><path fill="#ffba55" d="M2852.49 1657.87s28.7-72.71 32.53-115.76 18.45-108.1 71.41-141.58 98.87-70.79 159.62-77.49 105.71 21 142.06 34.44 75.29 37.65 62 122.62-30.47 414.06-30.47 414.06-80.36 53.57-181.77 38.26-89.19 1.92-100.08-109.05-25.79-144.89-25.79-144.89-50.12 86.76-65.42 88.08-72.7-25.47-64.09-108.69Z"/><path fill="#e79329" d="M3401.41 1470.58c-.95-4.32-3.32-9.6-7.75-9.37l-44 6.48q-60.55 3.38-121 8c-22.3 1.71-45 3.65-65.74 11.88-7.77 3.07-15.33 7.1-21.14 13.11-11.91 12.29-14.62 30.58-16.42 47.6a1335.49 1335.49 0 0 0-6.64 184.48c.76 22.85 2.11 45.75.35 68.55a253.09 253.09 0 0 1-11.11 56.84c-15.13-5.27-28.85-13.26-39.69-25.3-12.22-13.58-19.41-30.88-25.38-48.14a487.15 487.15 0 0 1-20.47-81.09c-1.27-7.81-3.09-16.75-10-20.54-2.78-1.51-6.21-2-8.37-4.36-6.56-7 5.76-19.45.57-27.57-1.65 3.59-7.4 3.17-9.95.15s-2.79-7.3-2.91-11.25l-2.52-81.5a329.73 329.73 0 0 1-53.69 173.08c-3 4.53-6.25 9.17-11.07 11.64-9.15 4.7-20.88-.31-27.09-8.51s-8.25-18.72-10.12-28.83l-12 12.57a126.94 126.94 0 0 1-13.73-98.58l-57.73 76.29c12.42 31.87 51.77 42.08 77.65 64.45a95.52 95.52 0 0 1 32 59.83c3.71 29.8-6.8 60.75 1.1 89.73 5.61 20.56 20.21 37.89 37.79 49.93s38.05 19.23 58.72 24.44a361.15 361.15 0 0 0 233.83-20.46c30.95-13.87 60.38-32.58 82-58.75 11.26-13.65 20.42-29.77 22.22-47.38.28-2.7.34-5.59-1-8-2.36-4.26-7.53-4.91-12.67-4.31 18.44-24.61 28.09-55.5 35.86-85.63a1165.54 1165.54 0 0 0 33.2-198.35c2.3-30.36 3.49-61.31-3.1-91.13Z" clip-path="url(#q)"/><path fill="#376f92" d="m3395.92 2089.52 78.13 601.52-117.85-590.82 39.72-10.7zM3054.85 2081.89l-78.13 601.52 117.85-590.82-39.72-10.7z"/><path fill="#67a4c3" d="M3275 1483.72s236.54-34.25 253.67 98.47-51.38 231.19-54.59 312.53-10.1 214.07-70.88 224.77-351.9 24.68-398.51 9.7-51.43-120.09 4.87-136.61 155.2-48.62 157.34-85-40.7-338.24 2.1-374.58 106-49.28 106-49.28Z"/><path fill="#376f92" d="M3386 1455.63c-53.5-2.05-101.58 37.53-125.91 85.22s-29.69 102.47-34.63 155.78q-7.91 85.06-15.79 170.14c-3.84 41.29-10.09 87.27-42.5 113.13-15.16 12.1-34.22 18-52.91 23.27a1204.69 1204.69 0 0 1-211.57 39.23c-34.44 3.25-70.86 5.62-99.51 25 66.33-83.92 133-168.24 212-240.43 20.06-18.34 41.46-36.62 53-61.23 14.83-31.56 11.16-68.18 11.32-103 .27-60.81 13.93-122.88 48-173.27s90.3-87.6 151.06-89.92Z" clip-path="url(#r)"/><g opacity=".53"><rect width="408.88" height="265.39" x="2392.92" y="1210.64" fill="#fff" rx="6.83"/><path fill="#67a4c3" d="M2451.46 1307.54h39.52v125.49h-39.52zM2533.84 1272.59h39.52v160.44h-39.52zM2616.22 1307.54h39.52v125.49h-39.52zM2698.6 1250.36h39.52v182.68h-39.52z"/></g><rect width="963.39" height="311.35" x="1713.5" y="826.67" fill="#67a4c3" rx="44.5"/><path fill="#c2e3f2" d="M2018.23 982.35A107.23 107.23 0 1 1 1911 875.12a107.14 107.14 0 0 1 107.23 107.23Z"/><circle cx="1909.38" cy="963.44" r="36.31" fill="#fff"/><path fill="#fff" d="M1968.34 1047.89V1073a107.37 107.37 0 0 1-114.67 0v-25.09a48.3 48.3 0 0 1 48.15-48.15h18.37a48.3 48.3 0 0 1 48.15 48.13Z"/><path fill="#c2e3f2" d="M2399.35 874.32h225.57v216.04h-225.57z"/><circle cx="2514.48" cy="947.17" r="36.31" fill="#fff"/><path fill="#fff" d="M2475 983.48h82.17a16.25 16.25 0 0 1 16.25 16.25v89.36h-114.65v-89.36a16.25 16.25 0 0 1 16.23-16.25Z"/><rect width="292.72" height="30.18" x="2058.73" y="888.62" fill="#c2e3f2" rx="4.31"/><rect width="136.46" height="21.96" x="2068.27" y="950.85" fill="#fff" rx="3.13"/><rect width="136.46" height="21.96" x="2068.27" y="994.28" fill="#fff" rx="3.13"/><rect width="136.46" height="21.96" x="2068.27" y="1037.71" fill="#fff" rx="3.13"/><g opacity=".76"><path fill="#c2e3f2" d="M1826.61 562a202 202 0 1 1-404 0c0-111.57 90.42-202 202-202s202 90.41 202 202Z"/><circle cx="1621.57" cy="526.37" r="68.39" fill="#fff"/><path fill="#fff" d="M1732.63 685.43v47.28a202.23 202.23 0 0 1-216 0v-47.28c0-49.84 40.8-90.69 90.69-90.69h34.6c49.91 0 90.71 40.85 90.71 90.69Z"/></g><rect width="287.42" height="309.23" x="1950" y="399.44" fill="#67a4c3" rx="12"/><path fill="#fff" d="M2000.04 454.5h188.67v33.41h-188.67zM2003.7 532.87h136.46v8.02H2003.7zM2003.7 582.25h136.46v8.02H2003.7zM2003.7 631.64h136.46v8.02H2003.7z"/><rect width="287.42" height="309.23" x="2338.85" y="399.44" fill="#c2e3f2" rx="12"/><path fill="#fff" d="M2388.89 454.5h188.67v33.41h-188.67zM2388.89 532.87h136.46v8.02h-136.46zM2388.89 582.25h136.46v8.02h-136.46zM2388.89 631.64h136.46v8.02h-136.46z"/><path fill="#67a4c3" d="M3297.23 655.55c-3.43-107.77-76.61-197.95-175.87-226.8-7.56-2.2-15.26-4.07-23.1-5.53A244.41 244.41 0 1 0 3117 899.38c7.2-2 14.26-4.23 21.18-6.79 81.78-30.42 142.84-103.31 156.39-191.85a246.7 246.7 0 0 0 2.84-37.3c-.05-2.64-.1-5.28-.18-7.89ZM3115 832.12a180.61 180.61 0 0 1-20.44 6.17 179.75 179.75 0 0 1-221.19-167.58c-.1-2.41-.15-4.84-.15-7.27A179.72 179.72 0 0 1 3232.17 650c.31 4.45.49 8.93.49 13.47A179.55 179.55 0 0 1 3115 832.12Z"/><path fill="#c2e3f2" d="m3098.26 423.22-12.62 63.47a180 180 0 0 0-140.13 32.7l-38.13-52.29a244.87 244.87 0 0 1 190.88-43.88Z"/><path fill="#ffba55" d="M3297.36 663.44a246.7 246.7 0 0 1-2.84 37.3l-64-9.78a181.29 181.29 0 0 0 2.1-27.52c0-4.54-.18-9-.49-13.47a179.84 179.84 0 0 0-114.59-154.27 177.5 177.5 0 0 0-31.9-9l12.62-63.47c7.84 1.46 15.54 3.33 23.1 5.53 99.26 28.85 172.44 119 175.87 226.8.08 2.6.13 5.24.13 7.88Z"/><path fill="#c2e3f2" d="M3138.13 892.59c-6.92 2.56-14 4.84-21.18 6.79a244.87 244.87 0 0 1-219.66-47.5l40.82-50.21A179.66 179.66 0 0 0 3115 832.12Z"/></svg>