<svg xmlns="http://www.w3.org/2000/svg" xmlns:v="https://svgstorm.com" viewBox="0 0 1195 1147" width="1195" height="1147">

<g fill="None" fill-opacity="0.0" stroke="#F04A2A" stroke-opacity="1.00" stroke-width="0.3"><path d="&#10;M 305.00 225.00 &#10;C 304.99 225.50 305.00 226.00 305.00 226.00&#10;C 305.00 272.08 308.37 320.88 304.00 366.00&#10;C 305.51 382.66 303.47 399.21 304.00 416.00 C 304.53 432.79 304.05 450.12 304.00 467.00 C 303.95 483.88 304.67 501.11 304.00 518.00 C 303.33 534.89 305.72 552.18 304.00 569.00 C 302.28 585.82 312.81 591.21 325.00 599.00&#10;C 336.30 606.21 348.66 612.61 359.92 620.08 C 371.19 627.54 382.97 633.29 394.25 640.75 C 405.54 648.20 417.44 654.85 428.92 662.08 C 440.40 669.30 451.42 675.58 462.92 683.08 C 474.42 690.57 485.67 695.68 497.31 703.70 C 508.94 711.71 519.90 716.13 531.77 725.23 C 543.64 734.33 559.72 729.35 570.77 720.77 C 581.82 712.19 594.45 707.36 605.77 699.77 C 617.09 692.18 628.46 685.92 639.92 678.92 C 651.38 671.92 662.66 664.81 674.25 658.25 C 685.85 651.70 697.29 643.03 708.92 636.92 C 720.55 630.81 731.49 621.26 743.30 616.30 C 755.11 611.34 765.49 597.66 778.00 596.00&#10;C 792.13 589.01 802.42 581.27 801.00 564.00 C 799.58 546.73 801.08 524.58 801.00 508.00 C 800.92 491.42 796.15 469.47 809.08 461.08 C 822.00 452.69 831.07 447.50 843.75 439.75 C 856.43 431.99 864.90 426.78 878.08 419.08 C 891.26 411.39 904.00 406.69 904.00 389.00&#10;C 904.00 370.74 904.39 345.57 904.00 328.00 C 903.61 310.43 908.97 285.34 894.70 276.30 C 880.42 267.27 869.76 261.39 856.70 253.30 C 843.63 245.22 831.61 237.96 819.23 230.77 C 806.85 223.58 791.22 208.69 777.23 216.23 C 763.24 223.77 751.81 231.20 739.08 239.08 C 726.36 246.96 712.77 253.97 701.08 262.08 C 689.39 270.19 669.59 274.49 669.00 290.00&#10;C 668.15 312.20 670.07 335.59 668.00 357.00&#10;C 667.99 368.02 670.97 384.49 660.77 389.77 C 650.57 395.05 644.11 399.52 634.92 404.92 C 625.74 410.32 618.24 415.23 609.31 420.31 C 600.37 425.38 592.64 430.78 583.92 435.92 C 575.20 441.06 566.76 446.27 558.00 451.00&#10;C 552.87 453.77 547.86 459.36 542.00 461.00&#10;C 537.42 456.59 542.35 444.82 541.00 438.00 C 539.65 431.18 541.63 420.55 541.00 413.00 C 540.37 405.45 541.26 396.94 541.00 389.00 C 540.74 381.06 541.10 372.13 541.00 364.00 C 540.90 355.87 541.00 347.18 541.00 339.00&#10;C 541.00 320.07 540.36 300.91 541.00 282.00 C 541.64 263.09 539.30 243.82 541.00 225.00&#10;C 534.63 215.84 522.71 210.88 513.08 204.92 C 503.46 198.96 494.02 192.34 484.08 186.92 C 474.13 181.51 464.22 173.84 454.23 168.77 C 444.24 163.70 434.33 153.34 423.01 153.01 C 411.68 152.67 400.36 163.73 390.70 168.70 C 381.03 173.67 370.36 180.72 361.25 186.25 C 352.13 191.77 339.65 198.69 331.69 204.69 C 323.74 210.70 305.22 213.78 305.00 225.00&#10;M 498.00 229.00 &#10;C 490.60 234.41 481.39 239.77 473.31 244.30 C 465.22 248.84 456.85 256.27 448.31 259.31 C 439.76 262.34 432.06 273.97 422.97 273.97 C 413.89 273.98 406.14 262.57 397.75 259.25 C 389.37 255.92 380.90 248.75 372.75 244.25 C 364.61 239.74 355.80 234.30 348.00 229.00&#10;C 355.35 223.71 364.07 217.48 372.23 213.23 C 380.39 208.98 389.43 201.97 397.70 198.70 C 405.96 195.42 414.18 183.87 423.03 184.03 C 431.87 184.18 439.84 195.59 448.23 198.77 C 456.62 201.95 464.78 209.86 473.23 213.77 C 481.68 217.68 489.52 224.88 498.00 229.00&#10;M 862.00 292.00 &#10;C 837.17 306.26 811.60 320.90 788.00 337.00&#10;C 762.15 322.34 736.54 306.52 711.00 291.00&#10;C 718.12 285.31 727.06 279.47 735.23 275.23 C 743.40 270.99 752.43 262.87 760.70 259.70 C 768.97 256.53 778.32 244.34 787.01 245.01 C 795.70 245.68 803.48 257.11 812.08 259.92 C 820.67 262.74 828.99 271.46 837.25 275.75 C 845.50 280.05 856.21 285.33 862.00 292.00&#10;M 351.00 265.00 &#10;C 356.65 268.72 364.42 271.90 369.70 276.30 C 374.98 280.71 384.72 283.01 389.23 287.77 C 393.74 292.53 405.73 294.36 408.00 300.00&#10;C 411.58 308.89 406.38 321.32 408.00 331.00 C 409.62 340.68 407.26 351.97 408.00 362.00 C 408.74 372.03 407.65 382.82 408.00 393.00 C 408.35 403.18 407.80 413.77 408.00 424.00 C 408.20 434.23 407.82 444.80 408.00 455.00 C 408.18 465.20 407.72 475.91 408.00 486.00 C 408.28 496.09 407.44 507.18 408.00 517.00 C 408.56 526.82 405.54 536.80 411.00 545.00&#10;C 416.58 553.39 428.14 555.88 436.08 561.92 C 444.03 567.96 453.59 571.96 462.23 577.77 C 470.87 583.58 478.72 588.14 488.25 593.75 C 497.77 599.36 503.12 604.40 514.23 609.77 C 525.34 615.14 523.53 629.88 523.00 643.00 C 522.47 656.12 523.40 672.58 523.00 686.00&#10;C 459.86 648.85 397.45 609.65 335.00 571.00&#10;C 327.68 564.56 333.29 549.59 332.00 539.00 C 330.71 528.41 332.58 514.32 332.00 503.00 C 331.42 491.68 332.27 478.61 332.00 467.00 C 331.73 455.39 332.12 443.77 332.00 432.00 C 331.88 420.23 332.05 407.86 332.00 396.00 C 331.95 384.14 332.03 371.87 332.00 360.00 C 331.97 348.13 332.01 336.89 332.00 325.00 C 331.99 313.11 332.01 300.94 332.00 289.00 C 331.99 277.06 332.00 264.96 332.00 253.00&#10;C 338.17 257.28 345.57 259.95 351.00 265.00&#10;M 495.00 488.00 &#10;C 483.25 495.58 471.22 503.26 459.00 510.00&#10;C 453.60 512.98 448.28 516.15 443.00 519.00&#10;C 441.80 519.85 439.25 524.34 437.00 523.00&#10;C 432.99 520.61 437.08 509.24 436.00 504.00 C 434.92 498.76 436.49 489.16 436.00 483.00 C 435.51 476.84 436.23 468.53 436.00 462.00 C 435.77 455.47 436.09 448.73 436.00 442.00 C 435.91 435.27 436.03 427.84 436.00 421.00 C 435.97 414.16 435.98 406.83 436.00 400.00 C 436.02 393.17 435.93 385.72 436.00 379.00 C 436.07 372.28 435.81 365.50 436.00 359.00 C 436.19 352.50 435.59 344.09 436.00 338.00 C 436.41 331.91 435.10 322.08 436.00 317.00 C 436.90 311.92 433.09 299.46 438.00 298.00&#10;C 438.46 297.86 439.00 298.00 439.00 298.00&#10;C 448.12 294.42 457.61 287.83 466.00 283.00&#10;C 476.74 273.36 491.63 266.58 504.00 259.00&#10;C 506.95 257.19 510.33 256.27 513.00 254.00&#10;C 513.00 328.67 513.00 403.33 513.00 478.00&#10;C 506.53 480.20 501.15 484.92 495.00 488.00&#10;M 703.00 319.00 &#10;C 713.72 325.64 726.85 331.65 736.70 339.30 C 746.54 346.96 762.26 350.67 770.00 360.00&#10;C 776.20 367.47 770.28 384.13 772.00 395.00 C 773.72 405.87 770.71 420.77 772.00 432.00&#10;C 771.13 431.05 769.32 431.46 769.00 430.00&#10;C 749.48 421.38 731.46 407.40 713.00 397.00&#10;C 706.05 393.08 696.27 390.38 696.00 381.00 C 695.73 371.62 696.14 358.16 696.00 348.00 C 695.86 337.84 696.10 325.37 696.00 315.00&#10;C 698.73 315.31 700.59 317.84 703.00 319.00&#10;M 805.00 430.00 &#10;C 804.01 430.68 803.08 431.54 802.00 432.00&#10;C 800.47 425.30 800.61 415.32 801.00 408.00 C 801.39 400.68 799.89 389.69 801.00 383.00 C 802.12 376.31 797.49 363.65 803.00 360.00&#10;C 804.04 359.31 804.99 359.48 806.00 359.00&#10;C 830.25 347.51 851.38 327.99 876.00 317.00&#10;C 874.68 327.51 877.76 342.99 876.00 353.00 C 874.24 363.01 880.11 380.89 874.25 388.25 C 868.38 395.60 857.71 395.91 850.92 401.92 C 844.12 407.93 835.12 410.60 827.92 415.92 C 820.73 421.24 812.19 424.65 805.00 430.00&#10;M 757.00 456.00 &#10;C 746.49 462.86 735.96 470.56 724.75 476.75 C 713.55 482.95 702.82 490.22 691.75 496.75 C 680.69 503.29 669.75 510.04 658.75 516.75 C 647.76 523.47 636.74 529.93 625.75 536.75 C 614.76 543.58 603.73 549.71 592.75 556.75 C 581.78 563.80 570.58 569.06 559.75 576.75 C 548.93 584.45 537.29 592.54 526.25 583.75 C 515.22 574.96 504.41 571.49 493.25 563.75 C 482.10 556.00 470.77 550.23 459.00 544.00&#10;C 469.23 536.64 480.35 530.01 491.25 523.25 C 502.14 516.48 513.86 510.62 524.70 503.70 C 535.53 496.77 547.20 490.98 558.08 484.08 C 568.95 477.17 580.09 470.90 591.08 464.08 C 602.07 457.26 613.02 450.78 624.08 444.08 C 635.14 437.38 646.17 431.10 657.23 424.23 C 668.29 417.36 679.04 407.13 690.23 415.77 C 701.42 424.41 712.23 427.77 723.25 435.75 C 734.27 443.73 746.04 448.12 757.00 456.00&#10;M 765.00 570.00 &#10;C 764.56 570.16 764.00 570.00 764.00 570.00&#10;C 693.09 614.10 621.07 656.57 550.00 700.00&#10;C 550.00 671.67 550.00 643.33 550.00 615.00&#10;C 621.92 572.46 693.39 528.44 765.00 485.00&#10;C 766.31 484.29 767.79 483.83 769.00 483.00&#10;C 770.52 481.96 771.22 478.78 774.00 480.00&#10;C 770.79 494.60 774.88 513.29 773.00 528.00 C 771.12 542.71 779.60 562.49 765.00 570.00 Z"/>
</g>
<g fill="None" fill-opacity="0.0" stroke="#13202F" stroke-opacity="1.00" stroke-width="0.3"><path d="&#10;M 498.00 229.00 &#10;C 489.52 224.88 481.68 217.68 473.23 213.77 C 464.78 209.86 456.62 201.95 448.23 198.77 C 439.84 195.59 431.87 184.18 423.03 184.03 C 414.18 183.87 405.96 195.42 397.70 198.70 C 389.43 201.97 380.39 208.98 372.23 213.23 C 364.07 217.48 355.35 223.71 348.00 229.00&#10;C 355.80 234.30 364.61 239.74 372.75 244.25 C 380.90 248.75 389.37 255.92 397.75 259.25 C 406.14 262.57 413.89 273.98 422.97 273.97 C 432.06 273.97 439.76 262.34 448.31 259.31 C 456.85 256.27 465.22 248.84 473.31 244.30 C 481.39 239.77 490.60 234.41 498.00 229.00 Z"/>
</g>
<g fill="None" fill-opacity="0.0" stroke="#46242E" stroke-opacity="1.00" stroke-width="0.3"><path d="&#10;M 303.00 366.00 &#10;C 303.49 365.92 304.00 366.00 304.00 366.00&#10;C 304.83 356.81 303.51 347.19 304.00 338.00 C 304.49 328.81 303.53 319.11 304.00 310.00 C 304.47 300.89 303.24 290.87 304.00 282.00 C 304.76 273.13 302.43 262.33 304.00 254.00 C 305.57 245.67 300.24 232.42 305.00 226.00&#10;C 305.00 226.00 304.99 225.50 305.00 225.00&#10;C 300.28 226.01 303.85 239.28 303.00 244.00 C 302.15 248.72 303.36 258.08 303.00 264.00 C 302.64 269.92 303.15 278.60 303.00 285.00 C 302.85 291.40 303.02 298.37 303.00 305.00 C 302.98 311.63 302.92 319.31 303.00 326.00 C 303.08 332.69 302.74 339.34 303.00 346.00 C 303.26 352.66 302.40 359.37 303.00 366.00 Z"/>
</g>
<g fill="None" fill-opacity="0.0" stroke="#672A2F" stroke-opacity="1.00" stroke-width="0.3"><path d="&#10;M 541.00 339.00 &#10;C 541.00 338.96 542.00 339.00 542.00 339.00&#10;C 542.00 339.00 542.00 338.50 542.00 338.00&#10;C 542.00 300.84 545.31 261.99 542.00 225.00&#10;C 542.00 225.00 541.16 225.23 541.00 225.00&#10;C 539.30 243.82 541.64 263.09 541.00 282.00 C 540.36 300.91 541.00 320.07 541.00 339.00 Z"/>
</g>
<g fill="None" fill-opacity="0.0" stroke="#081834" stroke-opacity="1.00" stroke-width="0.3"><path d="&#10;M 542.00 338.00 &#10;C 545.77 332.91 542.06 322.71 543.00 316.00 C 543.94 309.29 542.78 300.02 543.00 293.00 C 543.22 285.98 543.36 276.91 543.00 270.00 C 542.64 263.09 544.19 253.29 543.00 247.00 C 541.81 240.71 546.27 229.14 542.00 225.00&#10;C 545.31 261.99 542.00 300.84 542.00 338.00 Z"/>
</g>
<g fill="None" fill-opacity="0.0" stroke="#B94328" stroke-opacity="1.00" stroke-width="0.3"><path d="&#10;M 304.00 366.00 &#10;C 308.37 320.88 305.00 272.08 305.00 226.00&#10;C 300.24 232.42 305.57 245.67 304.00 254.00 C 302.43 262.33 304.76 273.13 304.00 282.00 C 303.24 290.87 304.47 300.89 304.00 310.00 C 303.53 319.11 304.49 328.81 304.00 338.00 C 303.51 347.19 304.83 356.81 304.00 366.00 Z"/>
</g>
<g fill="None" fill-opacity="0.0" stroke="#13202F" stroke-opacity="1.00" stroke-width="0.3"><path d="&#10;M 862.00 292.00 &#10;C 856.21 285.33 845.50 280.05 837.25 275.75 C 828.99 271.46 820.67 262.74 812.08 259.92 C 803.48 257.11 795.70 245.68 787.01 245.01 C 778.32 244.34 768.97 256.53 760.70 259.70 C 752.43 262.87 743.40 270.99 735.23 275.23 C 727.06 279.47 718.12 285.31 711.00 291.00&#10;C 736.54 306.52 762.15 322.34 788.00 337.00&#10;C 811.60 320.90 837.17 306.26 862.00 292.00 Z"/>
</g>
<g fill="None" fill-opacity="0.0" stroke="#051833" stroke-opacity="1.00" stroke-width="0.3"><path d="&#10;M 335.00 571.00 &#10;C 327.76 562.09 334.89 545.67 333.00 534.00 C 331.11 522.33 333.87 506.49 333.00 494.00 C 332.13 481.51 333.37 467.89 333.00 455.00 C 332.63 442.11 333.15 428.09 333.00 415.00 C 332.85 401.91 333.03 388.12 333.00 375.00 C 332.97 361.88 332.92 349.13 333.00 336.00 C 333.08 322.87 332.76 309.10 333.00 296.00 C 333.24 282.90 332.00 269.61 334.00 257.00&#10;C 340.36 257.47 345.64 265.92 351.00 265.00&#10;C 345.57 259.95 338.17 257.28 332.00 253.00&#10;C 332.00 264.96 331.99 277.06 332.00 289.00 C 332.01 300.94 331.99 313.11 332.00 325.00 C 332.01 336.89 331.97 348.13 332.00 360.00 C 332.03 371.87 331.95 384.14 332.00 396.00 C 332.05 407.86 331.88 420.23 332.00 432.00 C 332.12 443.77 331.73 455.39 332.00 467.00 C 332.27 478.61 331.42 491.68 332.00 503.00 C 332.58 514.32 330.71 528.41 332.00 539.00 C 333.29 549.59 327.68 564.56 335.00 571.00 Z"/>
</g>
<g fill="None" fill-opacity="0.0" stroke="#061833" stroke-opacity="1.00" stroke-width="0.3"><path d="&#10;M 504.00 259.00 &#10;C 503.06 259.25 506.31 261.64 507.25 259.24 C 508.18 256.85 510.67 258.36 512.00 257.00&#10;C 512.00 330.00 512.00 403.00 512.00 476.00&#10;C 506.29 479.27 498.42 482.54 495.00 488.00&#10;C 501.15 484.92 506.53 480.20 513.00 478.00&#10;C 513.00 403.33 513.00 328.67 513.00 254.00&#10;C 510.33 256.27 506.95 257.19 504.00 259.00 Z"/>
</g>
<g fill="None" fill-opacity="0.0" stroke="#12202F" stroke-opacity="1.00" stroke-width="0.3"><path d="&#10;M 335.00 571.00 &#10;C 397.45 609.65 459.86 648.85 523.00 686.00&#10;C 523.40 672.58 522.47 656.12 523.00 643.00 C 523.53 629.88 525.34 615.14 514.23 609.77 C 503.12 604.40 497.77 599.36 488.25 593.75 C 478.72 588.14 470.87 583.58 462.23 577.77 C 453.59 571.96 444.03 567.96 436.08 561.92 C 428.14 555.88 416.58 553.39 411.00 545.00&#10;C 402.43 536.92 408.20 520.68 407.00 508.00 C 405.80 495.32 407.53 479.35 407.00 466.00 C 406.47 452.65 407.20 437.60 407.00 424.00 C 406.80 410.40 406.99 396.69 407.00 383.00 C 407.01 369.31 406.80 354.69 407.00 341.00 C 407.20 327.31 406.01 312.82 408.00 300.00&#10;C 405.73 294.36 393.74 292.53 389.23 287.77 C 384.72 283.01 374.98 280.71 369.70 276.30 C 364.42 271.90 356.65 268.72 351.00 265.00&#10;C 345.64 265.92 340.36 257.47 334.00 257.00&#10;C 332.00 269.61 333.24 282.90 333.00 296.00 C 332.76 309.10 333.08 322.87 333.00 336.00 C 332.92 349.13 332.97 361.88 333.00 375.00 C 333.03 388.12 332.85 401.91 333.00 415.00 C 333.15 428.09 332.63 442.11 333.00 455.00 C 333.37 467.89 332.13 481.51 333.00 494.00 C 333.87 506.49 331.11 522.33 333.00 534.00 C 334.89 545.67 327.76 562.09 335.00 571.00 Z"/>
</g>
<g fill="None" fill-opacity="0.0" stroke="#12202E" stroke-opacity="1.00" stroke-width="0.3"><path d="&#10;M 504.00 259.00 &#10;C 491.63 266.58 476.74 273.36 466.00 283.00&#10;C 455.87 292.10 439.37 292.32 439.00 308.00 C 438.63 323.68 439.17 344.23 439.00 361.00 C 438.83 377.77 439.08 396.75 439.00 414.00 C 438.92 431.25 439.04 449.55 439.00 467.00 C 438.96 484.45 439.03 502.50 439.00 520.00&#10;C 445.75 517.41 452.26 509.28 459.00 510.00&#10;C 471.22 503.26 483.25 495.58 495.00 488.00&#10;C 498.42 482.54 506.29 479.27 512.00 476.00&#10;C 512.00 403.00 512.00 330.00 512.00 257.00&#10;C 510.67 258.36 508.18 256.85 507.25 259.24 C 506.31 261.64 503.06 259.25 504.00 259.00 Z"/>
</g>
<g fill="None" fill-opacity="0.0" stroke="#071633" stroke-opacity="1.00" stroke-width="0.3"><path d="&#10;M 439.00 298.00 &#10;C 433.82 308.19 439.63 322.38 438.00 334.00 C 436.37 345.62 438.76 359.90 438.00 372.00 C 437.24 384.10 438.33 396.67 438.00 409.00 C 437.67 421.33 438.16 434.57 438.00 447.00 C 437.84 459.43 438.08 471.51 438.00 484.00 C 437.92 496.49 438.06 509.47 438.00 522.00&#10;C 439.67 520.89 441.13 519.70 443.00 519.00&#10;C 448.28 516.15 453.60 512.98 459.00 510.00&#10;C 452.26 509.28 445.75 517.41 439.00 520.00&#10;C 439.03 502.50 438.96 484.45 439.00 467.00 C 439.04 449.55 438.92 431.25 439.00 414.00 C 439.08 396.75 438.83 377.77 439.00 361.00 C 439.17 344.23 438.63 323.68 439.00 308.00 C 439.37 292.32 455.87 292.10 466.00 283.00&#10;C 457.61 287.83 448.12 294.42 439.00 298.00 Z"/>
</g>
<g fill="None" fill-opacity="0.0" stroke="#7B392D" stroke-opacity="1.00" stroke-width="0.3"><path d="&#10;M 668.00 356.00 &#10;C 668.00 356.50 668.00 357.00 668.00 357.00&#10;C 670.07 335.59 668.15 312.20 669.00 290.00&#10;C 666.05 310.64 667.98 334.45 668.00 356.00 Z"/>
</g>
<g fill="None" fill-opacity="0.0" stroke="#C04827" stroke-opacity="1.00" stroke-width="0.3"><path d="&#10;M 437.00 523.00 &#10;C 437.01 513.66 436.98 504.35 437.00 495.00 C 437.02 485.65 436.97 476.36 437.00 467.00 C 437.03 457.64 436.93 448.38 437.00 439.00 C 437.07 429.62 436.85 419.33 437.00 410.00 C 437.15 400.67 436.65 391.14 437.00 382.00 C 437.35 372.86 436.23 362.81 437.00 354.00 C 437.77 345.19 435.29 334.14 437.00 326.00 C 438.71 317.86 432.88 304.34 438.00 298.00&#10;C 433.09 299.46 436.90 311.92 436.00 317.00 C 435.10 322.08 436.41 331.91 436.00 338.00 C 435.59 344.09 436.19 352.50 436.00 359.00 C 435.81 365.50 436.07 372.28 436.00 379.00 C 435.93 385.72 436.02 393.17 436.00 400.00 C 435.98 406.83 435.97 414.16 436.00 421.00 C 436.03 427.84 435.91 435.27 436.00 442.00 C 436.09 448.73 435.77 455.47 436.00 462.00 C 436.23 468.53 435.51 476.84 436.00 483.00 C 436.49 489.16 434.92 498.76 436.00 504.00 C 437.08 509.24 432.99 520.61 437.00 523.00 Z"/>
</g>
<g fill="None" fill-opacity="0.0" stroke="#432830" stroke-opacity="1.00" stroke-width="0.3"><path d="&#10;M 437.00 523.00 &#10;C 439.25 524.34 441.80 519.85 443.00 519.00&#10;C 441.13 519.70 439.67 520.89 438.00 522.00&#10;C 438.06 509.47 437.92 496.49 438.00 484.00 C 438.08 471.51 437.84 459.43 438.00 447.00 C 438.16 434.57 437.67 421.33 438.00 409.00 C 438.33 396.67 437.24 384.10 438.00 372.00 C 438.76 359.90 436.37 345.62 438.00 334.00 C 439.63 322.38 433.82 308.19 439.00 298.00&#10;C 439.00 298.00 438.46 297.86 438.00 298.00&#10;C 432.88 304.34 438.71 317.86 437.00 326.00 C 435.29 334.14 437.77 345.19 437.00 354.00 C 436.23 362.81 437.35 372.86 437.00 382.00 C 436.65 391.14 437.15 400.67 437.00 410.00 C 436.85 419.33 437.07 429.62 437.00 439.00 C 436.93 448.38 437.03 457.64 437.00 467.00 C 436.97 476.36 437.02 485.65 437.00 495.00 C 436.98 504.35 437.01 513.66 437.00 523.00 Z"/>
</g>
<g fill="None" fill-opacity="0.0" stroke="#051933" stroke-opacity="1.00" stroke-width="0.3"><path d="&#10;M 411.00 545.00 &#10;C 405.54 536.80 408.56 526.82 408.00 517.00 C 407.44 507.18 408.28 496.09 408.00 486.00 C 407.72 475.91 408.18 465.20 408.00 455.00 C 407.82 444.80 408.20 434.23 408.00 424.00 C 407.80 413.77 408.35 403.18 408.00 393.00 C 407.65 382.82 408.74 372.03 408.00 362.00 C 407.26 351.97 409.62 340.68 408.00 331.00 C 406.38 321.32 411.58 308.89 408.00 300.00&#10;C 406.01 312.82 407.20 327.31 407.00 341.00 C 406.80 354.69 407.01 369.31 407.00 383.00 C 406.99 396.69 406.80 410.40 407.00 424.00 C 407.20 437.60 406.47 452.65 407.00 466.00 C 407.53 479.35 405.80 495.32 407.00 508.00 C 408.20 520.68 402.43 536.92 411.00 545.00 Z"/>
</g>
<g fill="None" fill-opacity="0.0" stroke="#2E2232" stroke-opacity="1.00" stroke-width="0.3"><path d="&#10;M 713.00 397.00 &#10;C 710.33 394.30 704.22 386.97 698.00 386.00&#10;C 698.66 363.75 696.67 340.80 699.00 319.00&#10;C 700.68 318.82 704.80 322.96 703.00 319.00&#10;C 700.59 317.84 698.73 315.31 696.00 315.00&#10;C 696.10 325.37 695.86 337.84 696.00 348.00 C 696.14 358.16 695.73 371.62 696.00 381.00 C 696.27 390.38 706.05 393.08 713.00 397.00 Z"/>
</g>
<g fill="None" fill-opacity="0.0" stroke="#13202F" stroke-opacity="1.00" stroke-width="0.3"><path d="&#10;M 806.00 359.00 &#10;C 799.96 365.10 804.28 378.73 803.00 387.00 C 801.72 395.27 804.04 395.95 803.00 402.00 C 801.96 408.05 804.47 413.25 803.00 418.00 C 801.53 422.75 805.09 429.80 805.00 430.00&#10;C 812.19 424.65 820.73 421.24 827.92 415.92 C 835.12 410.60 844.12 407.93 850.92 401.92 C 857.71 395.91 868.38 395.60 874.25 388.25 C 880.11 380.89 874.24 363.01 876.00 353.00 C 877.76 342.99 874.68 327.51 876.00 317.00&#10;C 851.38 327.99 830.25 347.51 806.00 359.00 Z"/>
</g>
<g fill="None" fill-opacity="0.0" stroke="#12212F" stroke-opacity="1.00" stroke-width="0.3"><path d="&#10;M 713.00 397.00 &#10;C 731.46 407.40 749.48 421.38 769.00 430.00&#10;C 768.59 428.67 772.34 425.09 771.00 419.00 C 769.66 412.91 771.43 412.61 771.00 404.00 C 770.57 395.39 771.47 382.64 771.00 374.00 C 770.54 365.36 773.51 366.23 770.00 360.00&#10;C 762.26 350.67 746.54 346.96 736.70 339.30 C 726.85 331.65 713.72 325.64 703.00 319.00&#10;C 704.80 322.96 700.68 318.82 699.00 319.00&#10;C 696.67 340.80 698.66 363.75 698.00 386.00&#10;C 704.22 386.97 710.33 394.30 713.00 397.00 Z"/>
</g>
<g fill="None" fill-opacity="0.0" stroke="#535E67" stroke-opacity="1.00" stroke-width="0.3"><path d="&#10;M 579.00 333.00 &#10;C 585.00 333.00 591.00 333.00 597.00 333.00&#10;C 591.40 332.46 584.66 332.45 579.00 333.00 Z"/>
</g>
<g fill="None" fill-opacity="0.0" stroke="#A9B1B6" stroke-opacity="1.00" stroke-width="0.3"><path d="&#10;M 543.00 339.00 &#10;C 543.88 348.77 542.89 359.20 543.00 369.00 C 543.11 378.80 543.53 390.43 543.00 400.00 C 542.47 409.57 544.59 421.09 543.00 430.00 C 541.41 438.91 547.04 453.17 542.00 460.00&#10;C 542.00 460.50 542.00 461.00 542.00 461.00&#10;C 547.86 459.36 552.87 453.77 558.00 451.00&#10;C 562.06 447.67 565.98 444.42 570.75 441.75 C 575.52 439.09 580.48 436.10 585.23 433.23 C 589.98 430.36 594.99 427.72 599.70 424.70 C 604.41 421.68 609.38 419.09 614.23 416.23 C 619.07 413.37 623.10 409.78 628.23 407.23 C 633.36 404.68 637.49 401.46 642.75 398.75 C 648.00 396.03 651.18 392.33 657.23 390.23 C 663.28 388.13 666.73 382.60 667.00 377.00 C 667.27 371.40 664.38 358.50 667.00 356.00&#10;C 661.44 347.10 645.12 344.74 635.68 340.32 C 626.24 335.90 608.00 333.00 597.00 333.00&#10;C 591.00 333.00 585.00 333.00 579.00 333.00&#10;C 566.25 333.00 555.04 336.75 543.00 339.00 Z"/>
</g>
<g fill="None" fill-opacity="0.0" stroke="#B69A9A" stroke-opacity="1.00" stroke-width="0.3"><path d="&#10;M 542.00 461.00 &#10;C 542.00 461.00 542.00 460.50 542.00 460.00&#10;C 542.00 439.95 542.69 420.07 542.00 400.00 C 541.31 379.93 543.79 359.02 542.00 339.00&#10;C 542.00 339.00 541.00 338.96 541.00 339.00&#10;C 541.00 347.18 540.90 355.87 541.00 364.00 C 541.10 372.13 540.74 381.06 541.00 389.00 C 541.26 396.94 540.37 405.45 541.00 413.00 C 541.63 420.55 539.65 431.18 541.00 438.00 C 542.35 444.82 537.42 456.59 542.00 461.00 Z"/>
</g>
<g fill="None" fill-opacity="0.0" stroke="#99C7D6" stroke-opacity="1.00" stroke-width="0.3"><path d="&#10;M 542.00 460.00 &#10;C 547.04 453.17 541.41 438.91 543.00 430.00 C 544.59 421.09 542.47 409.57 543.00 400.00 C 543.53 390.43 543.11 378.80 543.00 369.00 C 542.89 359.20 543.88 348.77 543.00 339.00&#10;C 543.00 339.00 542.25 339.25 542.00 339.00&#10;C 543.79 359.02 541.31 379.93 542.00 400.00 C 542.69 420.07 542.00 439.95 542.00 460.00 Z"/>
</g>
<g fill="None" fill-opacity="0.0" stroke="#9FBFCA" stroke-opacity="1.00" stroke-width="0.3"><path d="&#10;M 558.00 451.00 &#10;C 566.76 446.27 575.20 441.06 583.92 435.92 C 592.64 430.78 600.37 425.38 609.31 420.31 C 618.24 415.23 625.74 410.32 634.92 404.92 C 644.11 399.52 650.57 395.05 660.77 389.77 C 670.97 384.49 667.99 368.02 668.00 357.00&#10;C 668.00 357.00 668.00 356.50 668.00 356.00&#10;C 668.00 356.00 667.14 356.22 667.00 356.00&#10;C 664.38 358.50 667.27 371.40 667.00 377.00 C 666.73 382.60 663.28 388.13 657.23 390.23 C 651.18 392.33 648.00 396.03 642.75 398.75 C 637.49 401.46 633.36 404.68 628.23 407.23 C 623.10 409.78 619.07 413.37 614.23 416.23 C 609.38 419.09 604.41 421.68 599.70 424.70 C 594.99 427.72 589.98 430.36 585.23 433.23 C 580.48 436.10 575.52 439.09 570.75 441.75 C 565.98 444.42 562.06 447.67 558.00 451.00 Z"/>
</g>
<g fill="None" fill-opacity="0.0" stroke="#081631" stroke-opacity="1.00" stroke-width="0.3"><path d="&#10;M 803.00 360.00 &#10;C 798.30 364.68 803.49 376.34 802.00 383.00 C 800.51 389.66 802.75 399.56 802.00 407.00 C 801.25 414.44 802.56 424.34 802.00 432.00&#10;C 803.08 431.54 804.01 430.68 805.00 430.00&#10;C 805.09 429.80 801.53 422.75 803.00 418.00 C 804.47 413.25 801.96 408.05 803.00 402.00 C 804.04 395.95 801.72 395.27 803.00 387.00 C 804.28 378.73 799.96 365.10 806.00 359.00&#10;C 804.99 359.48 804.04 359.31 803.00 360.00 Z"/>
</g>
<g fill="None" fill-opacity="0.0" stroke="#061632" stroke-opacity="1.00" stroke-width="0.3"><path d="&#10;M 769.00 430.00 &#10;C 769.32 431.46 771.13 431.05 772.00 432.00&#10;C 770.71 420.77 773.72 405.87 772.00 395.00 C 770.28 384.13 776.20 367.47 770.00 360.00&#10;C 773.51 366.23 770.54 365.36 771.00 374.00 C 771.47 382.64 770.57 395.39 771.00 404.00 C 771.43 412.61 769.66 412.91 771.00 419.00 C 772.34 425.09 768.59 428.67 769.00 430.00 Z"/>
</g>
<g fill="None" fill-opacity="0.0" stroke="#85332B" stroke-opacity="1.00" stroke-width="0.3"><path d="&#10;M 802.00 432.00 &#10;C 802.56 424.34 801.25 414.44 802.00 407.00 C 802.75 399.56 800.51 389.66 802.00 383.00 C 803.49 376.34 798.30 364.68 803.00 360.00&#10;C 797.49 363.65 802.12 376.31 801.00 383.00 C 799.89 389.69 801.39 400.68 801.00 408.00 C 800.61 415.32 800.47 425.30 802.00 432.00 Z"/>
</g>
<g fill="None" fill-opacity="0.0" stroke="#A9B1B7" stroke-opacity="1.00" stroke-width="0.3"><path d="&#10;M 325.00 599.00 &#10;C 312.81 591.21 302.28 585.82 304.00 569.00 C 305.72 552.18 303.33 534.89 304.00 518.00 C 304.67 501.11 303.95 483.88 304.00 467.00 C 304.05 450.12 304.53 432.79 304.00 416.00 C 303.47 399.21 305.51 382.66 304.00 366.00&#10;C 304.00 366.00 303.49 365.92 303.00 366.00&#10;C 292.46 367.73 280.60 371.54 271.23 376.23 C 261.86 380.92 253.90 386.18 245.75 392.75 C 237.61 399.33 232.07 406.49 225.75 414.75 C 219.44 423.02 214.57 431.18 210.31 441.31 C 206.04 451.43 203.52 463.42 201.93 474.93 C 200.34 486.44 201.15 501.98 204.01 512.99 C 206.87 524.01 209.53 534.28 215.23 543.77 C 220.93 553.27 225.54 559.67 233.25 567.75 C 240.96 575.84 247.51 580.14 256.92 586.08 C 266.33 592.02 276.43 593.95 287.33 597.67 C 298.22 601.39 313.90 597.32 325.00 599.00 Z"/>
</g>
<g fill="None" fill-opacity="0.0" stroke="#9EC0CB" stroke-opacity="1.00" stroke-width="0.3"><path d="&#10;M 778.00 596.00 &#10;C 778.95 595.87 780.04 596.00 781.00 596.00&#10;C 796.92 591.24 803.50 578.29 802.00 562.00 C 800.50 545.71 802.51 523.11 802.00 507.00 C 801.49 490.89 797.92 468.80 811.23 461.23 C 824.53 453.66 833.49 447.92 845.70 440.70 C 857.90 433.47 868.20 426.95 879.75 419.75 C 891.29 412.54 907.97 407.60 906.00 391.00&#10;C 907.00 390.89 908.73 391.47 909.00 390.00&#10;C 907.35 389.66 905.93 388.29 904.00 389.00&#10;C 904.00 406.69 891.26 411.39 878.08 419.08 C 864.90 426.78 856.43 431.99 843.75 439.75 C 831.07 447.50 822.00 452.69 809.08 461.08 C 796.15 469.47 800.92 491.42 801.00 508.00 C 801.08 524.58 799.58 546.73 801.00 564.00 C 802.42 581.27 792.13 589.01 778.00 596.00 Z"/>
</g>
<g fill="None" fill-opacity="0.0" stroke="#A9B1B7" stroke-opacity="1.00" stroke-width="0.3"><path d="&#10;M 781.00 596.00 &#10;C 783.33 596.00 785.67 596.00 788.00 596.00&#10;C 822.37 592.72 861.66 593.98 896.00 596.00&#10;C 947.41 594.25 985.78 549.66 991.00 499.00 C 996.22 448.34 958.93 400.42 909.00 390.00&#10;C 908.73 391.47 907.00 390.89 906.00 391.00&#10;C 907.97 407.60 891.29 412.54 879.75 419.75 C 868.20 426.95 857.90 433.47 845.70 440.70 C 833.49 447.92 824.53 453.66 811.23 461.23 C 797.92 468.80 801.49 490.89 802.00 507.00 C 802.51 523.11 800.50 545.71 802.00 562.00 C 803.50 578.29 796.92 591.24 781.00 596.00 Z"/>
</g>
<g fill="None" fill-opacity="0.0" stroke="#12202F" stroke-opacity="1.00" stroke-width="0.3"><path d="&#10;M 757.00 456.00 &#10;C 746.04 448.12 734.27 443.73 723.25 435.75 C 712.23 427.77 701.42 424.41 690.23 415.77 C 679.04 407.13 668.29 417.36 657.23 424.23 C 646.17 431.10 635.14 437.38 624.08 444.08 C 613.02 450.78 602.07 457.26 591.08 464.08 C 580.09 470.90 568.95 477.17 558.08 484.08 C 547.20 490.98 535.53 496.77 524.70 503.70 C 513.86 510.62 502.14 516.48 491.25 523.25 C 480.35 530.01 469.23 536.64 459.00 544.00&#10;C 470.77 550.23 482.10 556.00 493.25 563.75 C 504.41 571.49 515.22 574.96 526.25 583.75 C 537.29 592.54 548.93 584.45 559.75 576.75 C 570.58 569.06 581.78 563.80 592.75 556.75 C 603.73 549.71 614.76 543.58 625.75 536.75 C 636.74 529.93 647.76 523.47 658.75 516.75 C 669.75 510.04 680.69 503.29 691.75 496.75 C 702.82 490.22 713.55 482.95 724.75 476.75 C 735.96 470.56 746.49 462.86 757.00 456.00 Z"/>
</g>
<g fill="None" fill-opacity="0.0" stroke="#722F2C" stroke-opacity="1.00" stroke-width="0.3"><path d="&#10;M 769.00 483.00 &#10;C 770.16 482.49 770.78 481.33 772.00 481.00&#10;C 771.06 496.11 773.25 514.19 772.00 529.00 C 770.75 543.81 777.37 561.15 765.00 570.00&#10;C 779.60 562.49 771.12 542.71 773.00 528.00 C 774.88 513.29 770.79 494.60 774.00 480.00&#10;C 771.22 478.78 770.52 481.96 769.00 483.00 Z"/>
</g>
<g fill="None" fill-opacity="0.0" stroke="#071633" stroke-opacity="1.00" stroke-width="0.3"><path d="&#10;M 769.00 483.00 &#10;C 767.79 483.83 766.31 484.29 765.00 485.00&#10;C 765.78 484.74 769.84 485.55 771.00 483.00&#10;C 770.22 497.87 772.04 515.39 771.00 530.00 C 769.96 544.61 775.89 560.47 764.00 570.00&#10;C 764.00 570.00 764.56 570.16 765.00 570.00&#10;C 777.37 561.15 770.75 543.81 772.00 529.00 C 773.25 514.19 771.06 496.11 772.00 481.00&#10;C 770.78 481.33 770.16 482.49 769.00 483.00 Z"/>
</g>
<g fill="None" fill-opacity="0.0" stroke="#12202F" stroke-opacity="1.00" stroke-width="0.3"><path d="&#10;M 765.00 485.00 &#10;C 693.39 528.44 621.92 572.46 550.00 615.00&#10;C 550.00 643.33 550.00 671.67 550.00 700.00&#10;C 621.07 656.57 693.09 614.10 764.00 570.00&#10;C 775.89 560.47 769.96 544.61 771.00 530.00 C 772.04 515.39 770.22 497.87 771.00 483.00&#10;C 769.84 485.55 765.78 484.74 765.00 485.00 Z"/>
</g>
<g fill="None" fill-opacity="0.0" stroke="#C6CED1" stroke-opacity="1.00" stroke-width="0.3"><path d="&#10;M 788.00 596.00 &#10;C 807.00 596.00 826.00 596.00 845.00 596.00&#10;C 852.33 596.00 859.67 596.00 867.00 596.00&#10;C 874.33 596.00 881.67 596.00 889.00 596.00&#10;C 891.33 596.00 893.67 596.08 896.00 596.00&#10;C 861.66 593.98 822.37 592.72 788.00 596.00 Z"/>
</g>

<g fill="None" fill-opacity="0.0" stroke="#74828D" stroke-opacity="1.00" stroke-width="0.3"><path d="&#10;M 867.00 597.00 &#10;C 874.37 597.00 882.32 596.64 889.00 596.00&#10;C 881.67 596.00 874.33 596.00 867.00 596.00&#10;C 867.00 596.00 866.96 597.00 867.00 597.00 Z"/>
</g>




















































<g fill="#F04A2A" fill-opacity="1.00" stroke="None">
<path d="&#10;M 305.00 225.00 &#10;C 304.99 225.50 305.00 226.00 305.00 226.00&#10;C 305.00 272.08 308.37 320.88 304.00 366.00&#10;C 305.51 382.66 303.47 399.21 304.00 416.00 C 304.53 432.79 304.05 450.12 304.00 467.00 C 303.95 483.88 304.67 501.11 304.00 518.00 C 303.33 534.89 305.72 552.18 304.00 569.00 C 302.28 585.82 312.81 591.21 325.00 599.00&#10;C 336.30 606.21 348.66 612.61 359.92 620.08 C 371.19 627.54 382.97 633.29 394.25 640.75 C 405.54 648.20 417.44 654.85 428.92 662.08 C 440.40 669.30 451.42 675.58 462.92 683.08 C 474.42 690.57 485.67 695.68 497.31 703.70 C 508.94 711.71 519.90 716.13 531.77 725.23 C 543.64 734.33 559.72 729.35 570.77 720.77 C 581.82 712.19 594.45 707.36 605.77 699.77 C 617.09 692.18 628.46 685.92 639.92 678.92 C 651.38 671.92 662.66 664.81 674.25 658.25 C 685.85 651.70 697.29 643.03 708.92 636.92 C 720.55 630.81 731.49 621.26 743.30 616.30 C 755.11 611.34 765.49 597.66 778.00 596.00&#10;C 792.13 589.01 802.42 581.27 801.00 564.00 C 799.58 546.73 801.08 524.58 801.00 508.00 C 800.92 491.42 796.15 469.47 809.08 461.08 C 822.00 452.69 831.07 447.50 843.75 439.75 C 856.43 431.99 864.90 426.78 878.08 419.08 C 891.26 411.39 904.00 406.69 904.00 389.00&#10;C 904.00 370.74 904.39 345.57 904.00 328.00 C 903.61 310.43 908.97 285.34 894.70 276.30 C 880.42 267.27 869.76 261.39 856.70 253.30 C 843.63 245.22 831.61 237.96 819.23 230.77 C 806.85 223.58 791.22 208.69 777.23 216.23 C 763.24 223.77 751.81 231.20 739.08 239.08 C 726.36 246.96 712.77 253.97 701.08 262.08 C 689.39 270.19 669.59 274.49 669.00 290.00&#10;C 668.15 312.20 670.07 335.59 668.00 357.00&#10;C 667.99 368.02 670.97 384.49 660.77 389.77 C 650.57 395.05 644.11 399.52 634.92 404.92 C 625.74 410.32 618.24 415.23 609.31 420.31 C 600.37 425.38 592.64 430.78 583.92 435.92 C 575.20 441.06 566.76 446.27 558.00 451.00&#10;C 552.87 453.77 547.86 459.36 542.00 461.00&#10;C 537.42 456.59 542.35 444.82 541.00 438.00 C 539.65 431.18 541.63 420.55 541.00 413.00 C 540.37 405.45 541.26 396.94 541.00 389.00 C 540.74 381.06 541.10 372.13 541.00 364.00 C 540.90 355.87 541.00 347.18 541.00 339.00&#10;C 541.00 320.07 540.36 300.91 541.00 282.00 C 541.64 263.09 539.30 243.82 541.00 225.00&#10;C 534.63 215.84 522.71 210.88 513.08 204.92 C 503.46 198.96 494.02 192.34 484.08 186.92 C 474.13 181.51 464.22 173.84 454.23 168.77 C 444.24 163.70 434.33 153.34 423.01 153.01 C 411.68 152.67 400.36 163.73 390.70 168.70 C 381.03 173.67 370.36 180.72 361.25 186.25 C 352.13 191.77 339.65 198.69 331.69 204.69 C 323.74 210.70 305.22 213.78 305.00 225.00&#10;M 498.00 229.00 &#10;C 490.60 234.41 481.39 239.77 473.31 244.30 C 465.22 248.84 456.85 256.27 448.31 259.31 C 439.76 262.34 432.06 273.97 422.97 273.97 C 413.89 273.98 406.14 262.57 397.75 259.25 C 389.37 255.92 380.90 248.75 372.75 244.25 C 364.61 239.74 355.80 234.30 348.00 229.00&#10;C 355.35 223.71 364.07 217.48 372.23 213.23 C 380.39 208.98 389.43 201.97 397.70 198.70 C 405.96 195.42 414.18 183.87 423.03 184.03 C 431.87 184.18 439.84 195.59 448.23 198.77 C 456.62 201.95 464.78 209.86 473.23 213.77 C 481.68 217.68 489.52 224.88 498.00 229.00&#10;M 862.00 292.00 &#10;C 837.17 306.26 811.60 320.90 788.00 337.00&#10;C 762.15 322.34 736.54 306.52 711.00 291.00&#10;C 718.12 285.31 727.06 279.47 735.23 275.23 C 743.40 270.99 752.43 262.87 760.70 259.70 C 768.97 256.53 778.32 244.34 787.01 245.01 C 795.70 245.68 803.48 257.11 812.08 259.92 C 820.67 262.74 828.99 271.46 837.25 275.75 C 845.50 280.05 856.21 285.33 862.00 292.00&#10;M 351.00 265.00 &#10;C 356.65 268.72 364.42 271.90 369.70 276.30 C 374.98 280.71 384.72 283.01 389.23 287.77 C 393.74 292.53 405.73 294.36 408.00 300.00&#10;C 411.58 308.89 406.38 321.32 408.00 331.00 C 409.62 340.68 407.26 351.97 408.00 362.00 C 408.74 372.03 407.65 382.82 408.00 393.00 C 408.35 403.18 407.80 413.77 408.00 424.00 C 408.20 434.23 407.82 444.80 408.00 455.00 C 408.18 465.20 407.72 475.91 408.00 486.00 C 408.28 496.09 407.44 507.18 408.00 517.00 C 408.56 526.82 405.54 536.80 411.00 545.00&#10;C 416.58 553.39 428.14 555.88 436.08 561.92 C 444.03 567.96 453.59 571.96 462.23 577.77 C 470.87 583.58 478.72 588.14 488.25 593.75 C 497.77 599.36 503.12 604.40 514.23 609.77 C 525.34 615.14 523.53 629.88 523.00 643.00 C 522.47 656.12 523.40 672.58 523.00 686.00&#10;C 459.86 648.85 397.45 609.65 335.00 571.00&#10;C 327.68 564.56 333.29 549.59 332.00 539.00 C 330.71 528.41 332.58 514.32 332.00 503.00 C 331.42 491.68 332.27 478.61 332.00 467.00 C 331.73 455.39 332.12 443.77 332.00 432.00 C 331.88 420.23 332.05 407.86 332.00 396.00 C 331.95 384.14 332.03 371.87 332.00 360.00 C 331.97 348.13 332.01 336.89 332.00 325.00 C 331.99 313.11 332.01 300.94 332.00 289.00 C 331.99 277.06 332.00 264.96 332.00 253.00&#10;C 338.17 257.28 345.57 259.95 351.00 265.00&#10;M 495.00 488.00 &#10;C 483.25 495.58 471.22 503.26 459.00 510.00&#10;C 453.60 512.98 448.28 516.15 443.00 519.00&#10;C 441.80 519.85 439.25 524.34 437.00 523.00&#10;C 432.99 520.61 437.08 509.24 436.00 504.00 C 434.92 498.76 436.49 489.16 436.00 483.00 C 435.51 476.84 436.23 468.53 436.00 462.00 C 435.77 455.47 436.09 448.73 436.00 442.00 C 435.91 435.27 436.03 427.84 436.00 421.00 C 435.97 414.16 435.98 406.83 436.00 400.00 C 436.02 393.17 435.93 385.72 436.00 379.00 C 436.07 372.28 435.81 365.50 436.00 359.00 C 436.19 352.50 435.59 344.09 436.00 338.00 C 436.41 331.91 435.10 322.08 436.00 317.00 C 436.90 311.92 433.09 299.46 438.00 298.00&#10;C 438.46 297.86 439.00 298.00 439.00 298.00&#10;C 448.12 294.42 457.61 287.83 466.00 283.00&#10;C 476.74 273.36 491.63 266.58 504.00 259.00&#10;C 506.95 257.19 510.33 256.27 513.00 254.00&#10;C 513.00 328.67 513.00 403.33 513.00 478.00&#10;C 506.53 480.20 501.15 484.92 495.00 488.00&#10;M 703.00 319.00 &#10;C 713.72 325.64 726.85 331.65 736.70 339.30 C 746.54 346.96 762.26 350.67 770.00 360.00&#10;C 776.20 367.47 770.28 384.13 772.00 395.00 C 773.72 405.87 770.71 420.77 772.00 432.00&#10;C 771.13 431.05 769.32 431.46 769.00 430.00&#10;C 749.48 421.38 731.46 407.40 713.00 397.00&#10;C 706.05 393.08 696.27 390.38 696.00 381.00 C 695.73 371.62 696.14 358.16 696.00 348.00 C 695.86 337.84 696.10 325.37 696.00 315.00&#10;C 698.73 315.31 700.59 317.84 703.00 319.00&#10;M 805.00 430.00 &#10;C 804.01 430.68 803.08 431.54 802.00 432.00&#10;C 800.47 425.30 800.61 415.32 801.00 408.00 C 801.39 400.68 799.89 389.69 801.00 383.00 C 802.12 376.31 797.49 363.65 803.00 360.00&#10;C 804.04 359.31 804.99 359.48 806.00 359.00&#10;C 830.25 347.51 851.38 327.99 876.00 317.00&#10;C 874.68 327.51 877.76 342.99 876.00 353.00 C 874.24 363.01 880.11 380.89 874.25 388.25 C 868.38 395.60 857.71 395.91 850.92 401.92 C 844.12 407.93 835.12 410.60 827.92 415.92 C 820.73 421.24 812.19 424.65 805.00 430.00&#10;M 757.00 456.00 &#10;C 746.49 462.86 735.96 470.56 724.75 476.75 C 713.55 482.95 702.82 490.22 691.75 496.75 C 680.69 503.29 669.75 510.04 658.75 516.75 C 647.76 523.47 636.74 529.93 625.75 536.75 C 614.76 543.58 603.73 549.71 592.75 556.75 C 581.78 563.80 570.58 569.06 559.75 576.75 C 548.93 584.45 537.29 592.54 526.25 583.75 C 515.22 574.96 504.41 571.49 493.25 563.75 C 482.10 556.00 470.77 550.23 459.00 544.00&#10;C 469.23 536.64 480.35 530.01 491.25 523.25 C 502.14 516.48 513.86 510.62 524.70 503.70 C 535.53 496.77 547.20 490.98 558.08 484.08 C 568.95 477.17 580.09 470.90 591.08 464.08 C 602.07 457.26 613.02 450.78 624.08 444.08 C 635.14 437.38 646.17 431.10 657.23 424.23 C 668.29 417.36 679.04 407.13 690.23 415.77 C 701.42 424.41 712.23 427.77 723.25 435.75 C 734.27 443.73 746.04 448.12 757.00 456.00&#10;M 765.00 570.00 &#10;C 764.56 570.16 764.00 570.00 764.00 570.00&#10;C 693.09 614.10 621.07 656.57 550.00 700.00&#10;C 550.00 671.67 550.00 643.33 550.00 615.00&#10;C 621.92 572.46 693.39 528.44 765.00 485.00&#10;C 766.31 484.29 767.79 483.83 769.00 483.00&#10;C 770.52 481.96 771.22 478.78 774.00 480.00&#10;C 770.79 494.60 774.88 513.29 773.00 528.00 C 771.12 542.71 779.60 562.49 765.00 570.00 Z"/>
</g>
<g fill="#13202F" fill-opacity="1.00" stroke="None">
<path d="&#10;M 498.00 229.00 &#10;C 489.52 224.88 481.68 217.68 473.23 213.77 C 464.78 209.86 456.62 201.95 448.23 198.77 C 439.84 195.59 431.87 184.18 423.03 184.03 C 414.18 183.87 405.96 195.42 397.70 198.70 C 389.43 201.97 380.39 208.98 372.23 213.23 C 364.07 217.48 355.35 223.71 348.00 229.00&#10;C 355.80 234.30 364.61 239.74 372.75 244.25 C 380.90 248.75 389.37 255.92 397.75 259.25 C 406.14 262.57 413.89 273.98 422.97 273.97 C 432.06 273.97 439.76 262.34 448.31 259.31 C 456.85 256.27 465.22 248.84 473.31 244.30 C 481.39 239.77 490.60 234.41 498.00 229.00 Z"/>
</g>
<g fill="#46242E" fill-opacity="1.00" stroke="None">
<path d="&#10;M 303.00 366.00 &#10;C 303.49 365.92 304.00 366.00 304.00 366.00&#10;C 304.83 356.81 303.51 347.19 304.00 338.00 C 304.49 328.81 303.53 319.11 304.00 310.00 C 304.47 300.89 303.24 290.87 304.00 282.00 C 304.76 273.13 302.43 262.33 304.00 254.00 C 305.57 245.67 300.24 232.42 305.00 226.00&#10;C 305.00 226.00 304.99 225.50 305.00 225.00&#10;C 300.28 226.01 303.85 239.28 303.00 244.00 C 302.15 248.72 303.36 258.08 303.00 264.00 C 302.64 269.92 303.15 278.60 303.00 285.00 C 302.85 291.40 303.02 298.37 303.00 305.00 C 302.98 311.63 302.92 319.31 303.00 326.00 C 303.08 332.69 302.74 339.34 303.00 346.00 C 303.26 352.66 302.40 359.37 303.00 366.00 Z"/>
</g>
<g fill="#672A2F" fill-opacity="1.00" stroke="None">
<path d="&#10;M 541.00 339.00 &#10;C 541.00 338.96 542.00 339.00 542.00 339.00&#10;C 542.00 339.00 542.00 338.50 542.00 338.00&#10;C 542.00 300.84 545.31 261.99 542.00 225.00&#10;C 542.00 225.00 541.16 225.23 541.00 225.00&#10;C 539.30 243.82 541.64 263.09 541.00 282.00 C 540.36 300.91 541.00 320.07 541.00 339.00 Z"/>
</g>
<g fill="#081834" fill-opacity="1.00" stroke="None">
<path d="&#10;M 542.00 338.00 &#10;C 545.77 332.91 542.06 322.71 543.00 316.00 C 543.94 309.29 542.78 300.02 543.00 293.00 C 543.22 285.98 543.36 276.91 543.00 270.00 C 542.64 263.09 544.19 253.29 543.00 247.00 C 541.81 240.71 546.27 229.14 542.00 225.00&#10;C 545.31 261.99 542.00 300.84 542.00 338.00 Z"/>
</g>
<g fill="#B94328" fill-opacity="1.00" stroke="None">
<path d="&#10;M 304.00 366.00 &#10;C 308.37 320.88 305.00 272.08 305.00 226.00&#10;C 300.24 232.42 305.57 245.67 304.00 254.00 C 302.43 262.33 304.76 273.13 304.00 282.00 C 303.24 290.87 304.47 300.89 304.00 310.00 C 303.53 319.11 304.49 328.81 304.00 338.00 C 303.51 347.19 304.83 356.81 304.00 366.00 Z"/>
</g>
<g fill="#13202F" fill-opacity="1.00" stroke="None">
<path d="&#10;M 862.00 292.00 &#10;C 856.21 285.33 845.50 280.05 837.25 275.75 C 828.99 271.46 820.67 262.74 812.08 259.92 C 803.48 257.11 795.70 245.68 787.01 245.01 C 778.32 244.34 768.97 256.53 760.70 259.70 C 752.43 262.87 743.40 270.99 735.23 275.23 C 727.06 279.47 718.12 285.31 711.00 291.00&#10;C 736.54 306.52 762.15 322.34 788.00 337.00&#10;C 811.60 320.90 837.17 306.26 862.00 292.00 Z"/>
</g>
<g fill="#051833" fill-opacity="1.00" stroke="None">
<path d="&#10;M 335.00 571.00 &#10;C 327.76 562.09 334.89 545.67 333.00 534.00 C 331.11 522.33 333.87 506.49 333.00 494.00 C 332.13 481.51 333.37 467.89 333.00 455.00 C 332.63 442.11 333.15 428.09 333.00 415.00 C 332.85 401.91 333.03 388.12 333.00 375.00 C 332.97 361.88 332.92 349.13 333.00 336.00 C 333.08 322.87 332.76 309.10 333.00 296.00 C 333.24 282.90 332.00 269.61 334.00 257.00&#10;C 340.36 257.47 345.64 265.92 351.00 265.00&#10;C 345.57 259.95 338.17 257.28 332.00 253.00&#10;C 332.00 264.96 331.99 277.06 332.00 289.00 C 332.01 300.94 331.99 313.11 332.00 325.00 C 332.01 336.89 331.97 348.13 332.00 360.00 C 332.03 371.87 331.95 384.14 332.00 396.00 C 332.05 407.86 331.88 420.23 332.00 432.00 C 332.12 443.77 331.73 455.39 332.00 467.00 C 332.27 478.61 331.42 491.68 332.00 503.00 C 332.58 514.32 330.71 528.41 332.00 539.00 C 333.29 549.59 327.68 564.56 335.00 571.00 Z"/>
</g>
<g fill="#061833" fill-opacity="1.00" stroke="None">
<path d="&#10;M 504.00 259.00 &#10;C 503.06 259.25 506.31 261.64 507.25 259.24 C 508.18 256.85 510.67 258.36 512.00 257.00&#10;C 512.00 330.00 512.00 403.00 512.00 476.00&#10;C 506.29 479.27 498.42 482.54 495.00 488.00&#10;C 501.15 484.92 506.53 480.20 513.00 478.00&#10;C 513.00 403.33 513.00 328.67 513.00 254.00&#10;C 510.33 256.27 506.95 257.19 504.00 259.00 Z"/>
</g>
<g fill="#12202F" fill-opacity="1.00" stroke="None">
<path d="&#10;M 335.00 571.00 &#10;C 397.45 609.65 459.86 648.85 523.00 686.00&#10;C 523.40 672.58 522.47 656.12 523.00 643.00 C 523.53 629.88 525.34 615.14 514.23 609.77 C 503.12 604.40 497.77 599.36 488.25 593.75 C 478.72 588.14 470.87 583.58 462.23 577.77 C 453.59 571.96 444.03 567.96 436.08 561.92 C 428.14 555.88 416.58 553.39 411.00 545.00&#10;C 402.43 536.92 408.20 520.68 407.00 508.00 C 405.80 495.32 407.53 479.35 407.00 466.00 C 406.47 452.65 407.20 437.60 407.00 424.00 C 406.80 410.40 406.99 396.69 407.00 383.00 C 407.01 369.31 406.80 354.69 407.00 341.00 C 407.20 327.31 406.01 312.82 408.00 300.00&#10;C 405.73 294.36 393.74 292.53 389.23 287.77 C 384.72 283.01 374.98 280.71 369.70 276.30 C 364.42 271.90 356.65 268.72 351.00 265.00&#10;C 345.64 265.92 340.36 257.47 334.00 257.00&#10;C 332.00 269.61 333.24 282.90 333.00 296.00 C 332.76 309.10 333.08 322.87 333.00 336.00 C 332.92 349.13 332.97 361.88 333.00 375.00 C 333.03 388.12 332.85 401.91 333.00 415.00 C 333.15 428.09 332.63 442.11 333.00 455.00 C 333.37 467.89 332.13 481.51 333.00 494.00 C 333.87 506.49 331.11 522.33 333.00 534.00 C 334.89 545.67 327.76 562.09 335.00 571.00 Z"/>
</g>
<g fill="#12202E" fill-opacity="1.00" stroke="None">
<path d="&#10;M 504.00 259.00 &#10;C 491.63 266.58 476.74 273.36 466.00 283.00&#10;C 455.87 292.10 439.37 292.32 439.00 308.00 C 438.63 323.68 439.17 344.23 439.00 361.00 C 438.83 377.77 439.08 396.75 439.00 414.00 C 438.92 431.25 439.04 449.55 439.00 467.00 C 438.96 484.45 439.03 502.50 439.00 520.00&#10;C 445.75 517.41 452.26 509.28 459.00 510.00&#10;C 471.22 503.26 483.25 495.58 495.00 488.00&#10;C 498.42 482.54 506.29 479.27 512.00 476.00&#10;C 512.00 403.00 512.00 330.00 512.00 257.00&#10;C 510.67 258.36 508.18 256.85 507.25 259.24 C 506.31 261.64 503.06 259.25 504.00 259.00 Z"/>
</g>
<g fill="#071633" fill-opacity="1.00" stroke="None">
<path d="&#10;M 439.00 298.00 &#10;C 433.82 308.19 439.63 322.38 438.00 334.00 C 436.37 345.62 438.76 359.90 438.00 372.00 C 437.24 384.10 438.33 396.67 438.00 409.00 C 437.67 421.33 438.16 434.57 438.00 447.00 C 437.84 459.43 438.08 471.51 438.00 484.00 C 437.92 496.49 438.06 509.47 438.00 522.00&#10;C 439.67 520.89 441.13 519.70 443.00 519.00&#10;C 448.28 516.15 453.60 512.98 459.00 510.00&#10;C 452.26 509.28 445.75 517.41 439.00 520.00&#10;C 439.03 502.50 438.96 484.45 439.00 467.00 C 439.04 449.55 438.92 431.25 439.00 414.00 C 439.08 396.75 438.83 377.77 439.00 361.00 C 439.17 344.23 438.63 323.68 439.00 308.00 C 439.37 292.32 455.87 292.10 466.00 283.00&#10;C 457.61 287.83 448.12 294.42 439.00 298.00 Z"/>
</g>
<g fill="#7B392D" fill-opacity="1.00" stroke="None">
<path d="&#10;M 668.00 356.00 &#10;C 668.00 356.50 668.00 357.00 668.00 357.00&#10;C 670.07 335.59 668.15 312.20 669.00 290.00&#10;C 666.05 310.64 667.98 334.45 668.00 356.00 Z"/>
</g>
<g fill="#C04827" fill-opacity="1.00" stroke="None">
<path d="&#10;M 437.00 523.00 &#10;C 437.01 513.66 436.98 504.35 437.00 495.00 C 437.02 485.65 436.97 476.36 437.00 467.00 C 437.03 457.64 436.93 448.38 437.00 439.00 C 437.07 429.62 436.85 419.33 437.00 410.00 C 437.15 400.67 436.65 391.14 437.00 382.00 C 437.35 372.86 436.23 362.81 437.00 354.00 C 437.77 345.19 435.29 334.14 437.00 326.00 C 438.71 317.86 432.88 304.34 438.00 298.00&#10;C 433.09 299.46 436.90 311.92 436.00 317.00 C 435.10 322.08 436.41 331.91 436.00 338.00 C 435.59 344.09 436.19 352.50 436.00 359.00 C 435.81 365.50 436.07 372.28 436.00 379.00 C 435.93 385.72 436.02 393.17 436.00 400.00 C 435.98 406.83 435.97 414.16 436.00 421.00 C 436.03 427.84 435.91 435.27 436.00 442.00 C 436.09 448.73 435.77 455.47 436.00 462.00 C 436.23 468.53 435.51 476.84 436.00 483.00 C 436.49 489.16 434.92 498.76 436.00 504.00 C 437.08 509.24 432.99 520.61 437.00 523.00 Z"/>
</g>
<g fill="#432830" fill-opacity="1.00" stroke="None">
<path d="&#10;M 437.00 523.00 &#10;C 439.25 524.34 441.80 519.85 443.00 519.00&#10;C 441.13 519.70 439.67 520.89 438.00 522.00&#10;C 438.06 509.47 437.92 496.49 438.00 484.00 C 438.08 471.51 437.84 459.43 438.00 447.00 C 438.16 434.57 437.67 421.33 438.00 409.00 C 438.33 396.67 437.24 384.10 438.00 372.00 C 438.76 359.90 436.37 345.62 438.00 334.00 C 439.63 322.38 433.82 308.19 439.00 298.00&#10;C 439.00 298.00 438.46 297.86 438.00 298.00&#10;C 432.88 304.34 438.71 317.86 437.00 326.00 C 435.29 334.14 437.77 345.19 437.00 354.00 C 436.23 362.81 437.35 372.86 437.00 382.00 C 436.65 391.14 437.15 400.67 437.00 410.00 C 436.85 419.33 437.07 429.62 437.00 439.00 C 436.93 448.38 437.03 457.64 437.00 467.00 C 436.97 476.36 437.02 485.65 437.00 495.00 C 436.98 504.35 437.01 513.66 437.00 523.00 Z"/>
</g>
<g fill="#051933" fill-opacity="1.00" stroke="None">
<path d="&#10;M 411.00 545.00 &#10;C 405.54 536.80 408.56 526.82 408.00 517.00 C 407.44 507.18 408.28 496.09 408.00 486.00 C 407.72 475.91 408.18 465.20 408.00 455.00 C 407.82 444.80 408.20 434.23 408.00 424.00 C 407.80 413.77 408.35 403.18 408.00 393.00 C 407.65 382.82 408.74 372.03 408.00 362.00 C 407.26 351.97 409.62 340.68 408.00 331.00 C 406.38 321.32 411.58 308.89 408.00 300.00&#10;C 406.01 312.82 407.20 327.31 407.00 341.00 C 406.80 354.69 407.01 369.31 407.00 383.00 C 406.99 396.69 406.80 410.40 407.00 424.00 C 407.20 437.60 406.47 452.65 407.00 466.00 C 407.53 479.35 405.80 495.32 407.00 508.00 C 408.20 520.68 402.43 536.92 411.00 545.00 Z"/>
</g>
<g fill="#2E2232" fill-opacity="1.00" stroke="None">
<path d="&#10;M 713.00 397.00 &#10;C 710.33 394.30 704.22 386.97 698.00 386.00&#10;C 698.66 363.75 696.67 340.80 699.00 319.00&#10;C 700.68 318.82 704.80 322.96 703.00 319.00&#10;C 700.59 317.84 698.73 315.31 696.00 315.00&#10;C 696.10 325.37 695.86 337.84 696.00 348.00 C 696.14 358.16 695.73 371.62 696.00 381.00 C 696.27 390.38 706.05 393.08 713.00 397.00 Z"/>
</g>
<g fill="#13202F" fill-opacity="1.00" stroke="None">
<path d="&#10;M 806.00 359.00 &#10;C 799.96 365.10 804.28 378.73 803.00 387.00 C 801.72 395.27 804.04 395.95 803.00 402.00 C 801.96 408.05 804.47 413.25 803.00 418.00 C 801.53 422.75 805.09 429.80 805.00 430.00&#10;C 812.19 424.65 820.73 421.24 827.92 415.92 C 835.12 410.60 844.12 407.93 850.92 401.92 C 857.71 395.91 868.38 395.60 874.25 388.25 C 880.11 380.89 874.24 363.01 876.00 353.00 C 877.76 342.99 874.68 327.51 876.00 317.00&#10;C 851.38 327.99 830.25 347.51 806.00 359.00 Z"/>
</g>
<g fill="#12212F" fill-opacity="1.00" stroke="None">
<path d="&#10;M 713.00 397.00 &#10;C 731.46 407.40 749.48 421.38 769.00 430.00&#10;C 768.59 428.67 772.34 425.09 771.00 419.00 C 769.66 412.91 771.43 412.61 771.00 404.00 C 770.57 395.39 771.47 382.64 771.00 374.00 C 770.54 365.36 773.51 366.23 770.00 360.00&#10;C 762.26 350.67 746.54 346.96 736.70 339.30 C 726.85 331.65 713.72 325.64 703.00 319.00&#10;C 704.80 322.96 700.68 318.82 699.00 319.00&#10;C 696.67 340.80 698.66 363.75 698.00 386.00&#10;C 704.22 386.97 710.33 394.30 713.00 397.00 Z"/>
</g>
<g fill="#535E67" fill-opacity="1.00" stroke="None">
<path d="&#10;M 579.00 333.00 &#10;C 585.00 333.00 591.00 333.00 597.00 333.00&#10;C 591.40 332.46 584.66 332.45 579.00 333.00 Z"/>
</g>
<g fill="#A9B1B6" fill-opacity="1.00" stroke="None">
<path d="&#10;M 543.00 339.00 &#10;C 543.88 348.77 542.89 359.20 543.00 369.00 C 543.11 378.80 543.53 390.43 543.00 400.00 C 542.47 409.57 544.59 421.09 543.00 430.00 C 541.41 438.91 547.04 453.17 542.00 460.00&#10;C 542.00 460.50 542.00 461.00 542.00 461.00&#10;C 547.86 459.36 552.87 453.77 558.00 451.00&#10;C 562.06 447.67 565.98 444.42 570.75 441.75 C 575.52 439.09 580.48 436.10 585.23 433.23 C 589.98 430.36 594.99 427.72 599.70 424.70 C 604.41 421.68 609.38 419.09 614.23 416.23 C 619.07 413.37 623.10 409.78 628.23 407.23 C 633.36 404.68 637.49 401.46 642.75 398.75 C 648.00 396.03 651.18 392.33 657.23 390.23 C 663.28 388.13 666.73 382.60 667.00 377.00 C 667.27 371.40 664.38 358.50 667.00 356.00&#10;C 661.44 347.10 645.12 344.74 635.68 340.32 C 626.24 335.90 608.00 333.00 597.00 333.00&#10;C 591.00 333.00 585.00 333.00 579.00 333.00&#10;C 566.25 333.00 555.04 336.75 543.00 339.00 Z"/>
</g>
<g fill="#B69A9A" fill-opacity="1.00" stroke="None">
<path d="&#10;M 542.00 461.00 &#10;C 542.00 461.00 542.00 460.50 542.00 460.00&#10;C 542.00 439.95 542.69 420.07 542.00 400.00 C 541.31 379.93 543.79 359.02 542.00 339.00&#10;C 542.00 339.00 541.00 338.96 541.00 339.00&#10;C 541.00 347.18 540.90 355.87 541.00 364.00 C 541.10 372.13 540.74 381.06 541.00 389.00 C 541.26 396.94 540.37 405.45 541.00 413.00 C 541.63 420.55 539.65 431.18 541.00 438.00 C 542.35 444.82 537.42 456.59 542.00 461.00 Z"/>
</g>
<g fill="#99C7D6" fill-opacity="1.00" stroke="None">
<path d="&#10;M 542.00 460.00 &#10;C 547.04 453.17 541.41 438.91 543.00 430.00 C 544.59 421.09 542.47 409.57 543.00 400.00 C 543.53 390.43 543.11 378.80 543.00 369.00 C 542.89 359.20 543.88 348.77 543.00 339.00&#10;C 543.00 339.00 542.25 339.25 542.00 339.00&#10;C 543.79 359.02 541.31 379.93 542.00 400.00 C 542.69 420.07 542.00 439.95 542.00 460.00 Z"/>
</g>
<g fill="#9FBFCA" fill-opacity="1.00" stroke="None">
<path d="&#10;M 558.00 451.00 &#10;C 566.76 446.27 575.20 441.06 583.92 435.92 C 592.64 430.78 600.37 425.38 609.31 420.31 C 618.24 415.23 625.74 410.32 634.92 404.92 C 644.11 399.52 650.57 395.05 660.77 389.77 C 670.97 384.49 667.99 368.02 668.00 357.00&#10;C 668.00 357.00 668.00 356.50 668.00 356.00&#10;C 668.00 356.00 667.14 356.22 667.00 356.00&#10;C 664.38 358.50 667.27 371.40 667.00 377.00 C 666.73 382.60 663.28 388.13 657.23 390.23 C 651.18 392.33 648.00 396.03 642.75 398.75 C 637.49 401.46 633.36 404.68 628.23 407.23 C 623.10 409.78 619.07 413.37 614.23 416.23 C 609.38 419.09 604.41 421.68 599.70 424.70 C 594.99 427.72 589.98 430.36 585.23 433.23 C 580.48 436.10 575.52 439.09 570.75 441.75 C 565.98 444.42 562.06 447.67 558.00 451.00 Z"/>
</g>
<g fill="#081631" fill-opacity="1.00" stroke="None">
<path d="&#10;M 803.00 360.00 &#10;C 798.30 364.68 803.49 376.34 802.00 383.00 C 800.51 389.66 802.75 399.56 802.00 407.00 C 801.25 414.44 802.56 424.34 802.00 432.00&#10;C 803.08 431.54 804.01 430.68 805.00 430.00&#10;C 805.09 429.80 801.53 422.75 803.00 418.00 C 804.47 413.25 801.96 408.05 803.00 402.00 C 804.04 395.95 801.72 395.27 803.00 387.00 C 804.28 378.73 799.96 365.10 806.00 359.00&#10;C 804.99 359.48 804.04 359.31 803.00 360.00 Z"/>
</g>
<g fill="#061632" fill-opacity="1.00" stroke="None">
<path d="&#10;M 769.00 430.00 &#10;C 769.32 431.46 771.13 431.05 772.00 432.00&#10;C 770.71 420.77 773.72 405.87 772.00 395.00 C 770.28 384.13 776.20 367.47 770.00 360.00&#10;C 773.51 366.23 770.54 365.36 771.00 374.00 C 771.47 382.64 770.57 395.39 771.00 404.00 C 771.43 412.61 769.66 412.91 771.00 419.00 C 772.34 425.09 768.59 428.67 769.00 430.00 Z"/>
</g>
<g fill="#85332B" fill-opacity="1.00" stroke="None">
<path d="&#10;M 802.00 432.00 &#10;C 802.56 424.34 801.25 414.44 802.00 407.00 C 802.75 399.56 800.51 389.66 802.00 383.00 C 803.49 376.34 798.30 364.68 803.00 360.00&#10;C 797.49 363.65 802.12 376.31 801.00 383.00 C 799.89 389.69 801.39 400.68 801.00 408.00 C 800.61 415.32 800.47 425.30 802.00 432.00 Z"/>
</g>
<g fill="#A9B1B7" fill-opacity="1.00" stroke="None">
<path d="&#10;M 325.00 599.00 &#10;C 312.81 591.21 302.28 585.82 304.00 569.00 C 305.72 552.18 303.33 534.89 304.00 518.00 C 304.67 501.11 303.95 483.88 304.00 467.00 C 304.05 450.12 304.53 432.79 304.00 416.00 C 303.47 399.21 305.51 382.66 304.00 366.00&#10;C 304.00 366.00 303.49 365.92 303.00 366.00&#10;C 292.46 367.73 280.60 371.54 271.23 376.23 C 261.86 380.92 253.90 386.18 245.75 392.75 C 237.61 399.33 232.07 406.49 225.75 414.75 C 219.44 423.02 214.57 431.18 210.31 441.31 C 206.04 451.43 203.52 463.42 201.93 474.93 C 200.34 486.44 201.15 501.98 204.01 512.99 C 206.87 524.01 209.53 534.28 215.23 543.77 C 220.93 553.27 225.54 559.67 233.25 567.75 C 240.96 575.84 247.51 580.14 256.92 586.08 C 266.33 592.02 276.43 593.95 287.33 597.67 C 298.22 601.39 313.90 597.32 325.00 599.00 Z"/>
</g>
<g fill="#9EC0CB" fill-opacity="1.00" stroke="None">
<path d="&#10;M 778.00 596.00 &#10;C 778.95 595.87 780.04 596.00 781.00 596.00&#10;C 796.92 591.24 803.50 578.29 802.00 562.00 C 800.50 545.71 802.51 523.11 802.00 507.00 C 801.49 490.89 797.92 468.80 811.23 461.23 C 824.53 453.66 833.49 447.92 845.70 440.70 C 857.90 433.47 868.20 426.95 879.75 419.75 C 891.29 412.54 907.97 407.60 906.00 391.00&#10;C 907.00 390.89 908.73 391.47 909.00 390.00&#10;C 907.35 389.66 905.93 388.29 904.00 389.00&#10;C 904.00 406.69 891.26 411.39 878.08 419.08 C 864.90 426.78 856.43 431.99 843.75 439.75 C 831.07 447.50 822.00 452.69 809.08 461.08 C 796.15 469.47 800.92 491.42 801.00 508.00 C 801.08 524.58 799.58 546.73 801.00 564.00 C 802.42 581.27 792.13 589.01 778.00 596.00 Z"/>
</g>
<g fill="#A9B1B7" fill-opacity="1.00" stroke="None">
<path d="&#10;M 781.00 596.00 &#10;C 783.33 596.00 785.67 596.00 788.00 596.00&#10;C 822.37 592.72 861.66 593.98 896.00 596.00&#10;C 947.41 594.25 985.78 549.66 991.00 499.00 C 996.22 448.34 958.93 400.42 909.00 390.00&#10;C 908.73 391.47 907.00 390.89 906.00 391.00&#10;C 907.97 407.60 891.29 412.54 879.75 419.75 C 868.20 426.95 857.90 433.47 845.70 440.70 C 833.49 447.92 824.53 453.66 811.23 461.23 C 797.92 468.80 801.49 490.89 802.00 507.00 C 802.51 523.11 800.50 545.71 802.00 562.00 C 803.50 578.29 796.92 591.24 781.00 596.00 Z"/>
</g>
<g fill="#12202F" fill-opacity="1.00" stroke="None">
<path d="&#10;M 757.00 456.00 &#10;C 746.04 448.12 734.27 443.73 723.25 435.75 C 712.23 427.77 701.42 424.41 690.23 415.77 C 679.04 407.13 668.29 417.36 657.23 424.23 C 646.17 431.10 635.14 437.38 624.08 444.08 C 613.02 450.78 602.07 457.26 591.08 464.08 C 580.09 470.90 568.95 477.17 558.08 484.08 C 547.20 490.98 535.53 496.77 524.70 503.70 C 513.86 510.62 502.14 516.48 491.25 523.25 C 480.35 530.01 469.23 536.64 459.00 544.00&#10;C 470.77 550.23 482.10 556.00 493.25 563.75 C 504.41 571.49 515.22 574.96 526.25 583.75 C 537.29 592.54 548.93 584.45 559.75 576.75 C 570.58 569.06 581.78 563.80 592.75 556.75 C 603.73 549.71 614.76 543.58 625.75 536.75 C 636.74 529.93 647.76 523.47 658.75 516.75 C 669.75 510.04 680.69 503.29 691.75 496.75 C 702.82 490.22 713.55 482.95 724.75 476.75 C 735.96 470.56 746.49 462.86 757.00 456.00 Z"/>
</g>
<g fill="#722F2C" fill-opacity="1.00" stroke="None">
<path d="&#10;M 769.00 483.00 &#10;C 770.16 482.49 770.78 481.33 772.00 481.00&#10;C 771.06 496.11 773.25 514.19 772.00 529.00 C 770.75 543.81 777.37 561.15 765.00 570.00&#10;C 779.60 562.49 771.12 542.71 773.00 528.00 C 774.88 513.29 770.79 494.60 774.00 480.00&#10;C 771.22 478.78 770.52 481.96 769.00 483.00 Z"/>
</g>
<g fill="#071633" fill-opacity="1.00" stroke="None">
<path d="&#10;M 769.00 483.00 &#10;C 767.79 483.83 766.31 484.29 765.00 485.00&#10;C 765.78 484.74 769.84 485.55 771.00 483.00&#10;C 770.22 497.87 772.04 515.39 771.00 530.00 C 769.96 544.61 775.89 560.47 764.00 570.00&#10;C 764.00 570.00 764.56 570.16 765.00 570.00&#10;C 777.37 561.15 770.75 543.81 772.00 529.00 C 773.25 514.19 771.06 496.11 772.00 481.00&#10;C 770.78 481.33 770.16 482.49 769.00 483.00 Z"/>
</g>
<g fill="#12202F" fill-opacity="1.00" stroke="None">
<path d="&#10;M 765.00 485.00 &#10;C 693.39 528.44 621.92 572.46 550.00 615.00&#10;C 550.00 643.33 550.00 671.67 550.00 700.00&#10;C 621.07 656.57 693.09 614.10 764.00 570.00&#10;C 775.89 560.47 769.96 544.61 771.00 530.00 C 772.04 515.39 770.22 497.87 771.00 483.00&#10;C 769.84 485.55 765.78 484.74 765.00 485.00 Z"/>
</g>
<g fill="#C6CED1" fill-opacity="1.00" stroke="None">
<path d="&#10;M 788.00 596.00 &#10;C 807.00 596.00 826.00 596.00 845.00 596.00&#10;C 852.33 596.00 859.67 596.00 867.00 596.00&#10;C 874.33 596.00 881.67 596.00 889.00 596.00&#10;C 891.33 596.00 893.67 596.08 896.00 596.00&#10;C 861.66 593.98 822.37 592.72 788.00 596.00 Z"/>
</g>
<g fill="#576572" fill-opacity="1.00" stroke="None">
<path d="&#10;M 867.00 597.00 &#10;C 866.96 597.00 867.00 596.00 867.00 596.00&#10;C 859.67 596.00 852.33 596.00 845.00 596.00&#10;C 851.60 596.64 859.64 597.00 867.00 597.00 Z"/>
</g>














<g fill="#FAFAFA" fill-opacity="1.00" stroke="None">

</g>





































</svg>
