<svg xmlns="http://www.w3.org/2000/svg" data-name="Layer 1" viewBox="0 0 58.06 56.1"><path fill="#fcd606" d="M12.32,5.75A8.62,8.62,0,0,1,16.53,17.2a8.53,8.53,0,0,1-3.14,3.61L12.92,25l-3.09-2.9A8.62,8.62,0,1,1,12.32,5.75Z"/><path d="M13,25.11a.1.1,0,0,1-.09,0L9.8,22.21A8.7,8.7,0,1,1,12.36,5.68h0a8.7,8.7,0,0,1,1.11,15.18L13,25A.09.09,0,0,1,13,25.11ZM5.76,5.58A8.53,8.53,0,0,0,9.82,22a.06.06,0,0,1,.07,0l3,2.78.45-4,0-.06A8.52,8.52,0,0,0,12.29,5.83h0A8.53,8.53,0,0,0,5.76,5.58Z"/><path fill="#fff" d="M2.71,11.33a1.09,1.09,0,0,0,.07,1.05,10.88,10.88,0,0,0,10.31,4.76,1.12,1.12,0,0,0,.84-.64l.62-1.33a.34.34,0,0,0-.16-.45l-2.45-1.13a.34.34,0,0,0-.45.17l-.43.93a.33.33,0,0,1-.34.19,8.47,8.47,0,0,1-2.51-.72A8.68,8.68,0,0,1,6,12.72.34.34,0,0,1,6,12.33l.43-.93A.34.34,0,0,0,6.23,11L3.77,9.82a.33.33,0,0,0-.44.17Z"/><path fill="#000100" d="M33.86,3.74c-.69-1.28-1.57-2-2.5-2a2,2,0,0,0-1.05.32C30.14,1.5,29.43,0,26.72,0a10.46,10.46,0,0,0-2.4.31c-3.7.85-4.58.6-4.59.6a.15.15,0,0,0-.19.18A3,3,0,0,0,21,2.72a2.49,2.49,0,0,0-1.48.69,2.53,2.53,0,0,0-.59,2,5.25,5.25,0,0,0,1.32,3.3A2.3,2.3,0,0,1,20.91,10a2.71,2.71,0,0,1-.46,1.24c-.53,1-1.2,2.17.66,3.53,2.51,1.85,4.84,2.79,6.9,2.79a6.31,6.31,0,0,0,5.36-3.09A11.24,11.24,0,0,0,33.86,3.74Z"/><path fill="#fff" d="M32.9,9.53H33a.94.94,0,0,1,1,.76,2.81,2.81,0,0,1-.68,2.52Z"/><path d="M33.08,9.68a.75.75,0,0,1,.81.63,2.63,2.63,0,0,1-.43,2.12l-.38-2.75ZM33,9.37a1.67,1.67,0,0,0-.27,0l.51,3.72a2.88,2.88,0,0,0,.95-2.86A1.09,1.09,0,0,0,33,9.37Z"/><path fill="#fff" d="M27.28,56c.09-1.57.3-6.54.19-12-.1-4.43-1.8-8.13-3.17-11.11A24.81,24.81,0,0,1,22.73,29c-.87-3.6-1.28-5.87,1.2-7a15.13,15.13,0,0,1,5.8-1,8.62,8.62,0,0,1,3.3.48c.92.43,2.25,2.13,3.24,4.13C41,35.1,40.82,53.38,40.69,56Z"/><path fill="#000100" d="M40.69,56.1H27.28a.09.09,0,0,1-.07,0,.11.11,0,0,1,0-.08c0-.59.32-5.94.19-11.94-.1-4.41-1.8-8.1-3.16-11.06a23.54,23.54,0,0,1-1.57-4c-.89-3.65-1.3-5.95,1.25-7.11a15.34,15.34,0,0,1,5.84-1,8.62,8.62,0,0,1,3.34.49c.94.44,2.29,2.16,3.29,4.18C40.83,34.62,41,52.15,40.79,56A.11.11,0,0,1,40.69,56.1Zm-13.3-.2h13.2c.19-4,0-21.3-4.41-30.28-1-2-2.29-3.66-3.19-4.08a8.66,8.66,0,0,0-3.26-.47,15.12,15.12,0,0,0-5.76,1c-2.4,1.1-2,3.33-1.14,6.89a23.9,23.9,0,0,0,1.56,3.91c1.37,3,3.08,6.71,3.18,11.15C27.69,49.79,27.44,54.94,27.39,55.9Z"/><path fill="#fff" d="M22.76,14.27A2.81,2.81,0,0,1,21.53,12a1,1,0,0,1,.95-1Z"/><path d="M22.34,11.16l.24,2.78a2.69,2.69,0,0,1-.89-2,.78.78,0,0,1,.65-.8Zm.28-.35s-1.28,0-1.24,1.16a2.86,2.86,0,0,0,1.56,2.57l-.32-3.73Z"/><path fill="#fff" d="M29.06,21.66A12.87,12.87,0,0,1,25.72,21,10.64,10.64,0,0,0,26,18.56l5.22-.66a22.94,22.94,0,0,0,.21,2.83,3.41,3.41,0,0,1-1.95.91Z"/><path fill="#000100" d="M29.06,21.76a13.25,13.25,0,0,1-3.37-.67.11.11,0,0,1-.07-.12,10.32,10.32,0,0,0,.23-2.41.09.09,0,0,1,.09-.1l5.22-.66.08,0a.11.11,0,0,1,0,.08,23.24,23.24,0,0,0,.21,2.81.09.09,0,0,1,0,.09,3.5,3.5,0,0,1-2,.94Zm-3.23-.84a11.26,11.26,0,0,0,3.59.62,3.33,3.33,0,0,0,1.86-.85A24.59,24.59,0,0,1,31.07,18l-5,.63A10.12,10.12,0,0,1,25.83,20.92Z"/><path fill="#fff" d="M28,19.93c-.37-.84-1.16-.87-1.85-.9a1.92,1.92,0,0,1-1.27-.31c-1.28-1.14-1.56-3.07-1.78-4.62-.06-.38-.11-.73-.17-1a27.2,27.2,0,0,1-.17-5.92c.12-.9,1.72-2.64,4.25-2.64a5.93,5.93,0,0,1,1.49.2h.08a3.14,3.14,0,0,1,.89-.11,2.82,2.82,0,0,1,2.92,2.52,57.08,57.08,0,0,1,.88,6c0,.21,0,.42.06.64.12,1.44.28,3.23-.52,4.15A6.36,6.36,0,0,1,28,19.93Z"/><path d="M27,4.66h0a6.06,6.06,0,0,1,1.45.18l.08,0,.08,0a3.72,3.72,0,0,1,.85-.1,2.67,2.67,0,0,1,2.77,2.4,59.85,59.85,0,0,1,.88,6c0,.21,0,.42,0,.64.12,1.41.28,3.17-.47,4a6.18,6.18,0,0,1-4.6,2,2,2,0,0,0-1.95-.89A1.84,1.84,0,0,1,25,18.61c-1.23-1.11-1.51-3-1.73-4.54-.06-.37-.11-.72-.17-1a27.46,27.46,0,0,1-.17-5.88C23,6.31,24.55,4.66,27,4.66Zm0-.31c-2.59,0-4.27,1.78-4.4,2.77a27,27,0,0,0,.17,6c.31,1.58.36,4.28,2,5.75.84.75,2.57-.2,3.12,1.25a6.65,6.65,0,0,0,5-2.1c1-1.11.61-3.36.5-4.9a56.87,56.87,0,0,0-.89-6,3,3,0,0,0-3.07-2.64,3.78,3.78,0,0,0-.93.11A6.07,6.07,0,0,0,27,4.35Z"/><path fill="#000100" d="M24.5,13.94a3.47,3.47,0,0,1-1.67-.41c.26,1.6.43,4,1.93,5.31.84.75,2.57-.2,3.12,1.25a6.65,6.65,0,0,0,5-2.1c1-1.11.61-3.36.5-4.9,0-.2,0-.44-.08-.72a3.3,3.3,0,0,1-1.78.48,9.63,9.63,0,0,1-2.06-.48,3.29,3.29,0,0,0-2.37.51A4.12,4.12,0,0,1,24.5,13.94Zm2.42.84a.69.69,0,0,1,.7-.69h.73l.15,0,.31-.09.29-.1,0,0,.15-.08c.21-.1.41-.22.61-.34a.7.7,0,0,1,.95.25.69.69,0,0,1-.25.94,6.26,6.26,0,0,1-1.43.68,4.59,4.59,0,0,1-1.56.2A.7.7,0,0,1,26.92,14.78Z"/><path fill="#000100" d="M27.81,14.53A3.41,3.41,0,0,0,30,13.43a.14.14,0,0,1,.2,0,.14.14,0,0,1,0,.21,3.69,3.69,0,0,1-2.41,1.2h0a.15.15,0,0,1,0-.29Z"/><path fill="#000100" d="M22.85,9.34a.59.59,0,0,0-.09.48l.19.79a1.24,1.24,0,0,0,1.21.94h.14l1.85-.21a1.24,1.24,0,0,0,1.1-1.22V9.3a.59.59,0,0,0-.17-.42.6.6,0,0,0-.49-.17l-3.32.39A.6.6,0,0,0,22.85,9.34Zm.24.17a.3.3,0,0,1,.21-.13L26.62,9h0a.31.31,0,0,1,.22.09A.36.36,0,0,1,27,9.3v.81a.94.94,0,0,1-.84.93l-1.85.22a1,1,0,0,1-1-.72L23,9.75A.26.26,0,0,1,23.09,9.51Z"/><path fill="#000100" d="M28.1,8.73a.63.63,0,0,0-.09.48l.19.79a1.25,1.25,0,0,0,1.21.94h.15l1.85-.22a1.24,1.24,0,0,0,1.1-1.21V8.69a.59.59,0,0,0-.67-.59l-3.32.38A.6.6,0,0,0,28.1,8.73Zm.24.17a.29.29,0,0,1,.22-.13l3.32-.39h0a.31.31,0,0,1,.22.09.29.29,0,0,1,.09.22V9.5a1,1,0,0,1-.85.93l-1.85.22a1,1,0,0,1-1-.72l-.2-.79A.3.3,0,0,1,28.34,8.9Z"/><path fill="#000100" d="M28.24,9.06a.14.14,0,0,1-.17.23.67.67,0,0,0-.86.11.12.12,0,0,1-.1,0,.13.13,0,0,1-.1,0,.14.14,0,0,1,0-.2A1,1,0,0,1,28.24,9.06Z"/><path fill="#000100" d="M28.68,7A3.59,3.59,0,0,1,31,7.19a.14.14,0,0,1,0,.28h-.05a3.49,3.49,0,0,0-2.09-.17.15.15,0,0,1-.19-.08A.13.13,0,0,1,28.68,7Z"/><path fill="#000100" d="M23.94,7.38a3.61,3.61,0,0,1,2.19-.67.14.14,0,0,1,.12.16.14.14,0,0,1-.16.12,3.47,3.47,0,0,0-2,.64l-.08,0a.15.15,0,0,1-.12-.07A.15.15,0,0,1,23.94,7.38Z"/><path fill="#000100" d="M25.23,9.76a.34.34,0,1,1,0,.67.34.34,0,1,1,0-.67Z"/><path fill="#000100" d="M30.22,9.19a.34.34,0,0,1,.34.33.34.34,0,0,1-.67,0A.33.33,0,0,1,30.22,9.19Z"/><path fill="#37bebe" d="M18.23,23.46A35.61,35.61,0,0,1,24,21.52s2.64,12.36,2.92,14.6A164.89,164.89,0,0,1,28.09,56H18.37s.36-5.52.22-12.14-3.36-10.37-4.18-13.78S15.56,24.68,18.23,23.46Z"/><path fill="#000100" d="M28.09,56.1H18.37a.09.09,0,0,1-.07,0,.11.11,0,0,1,0-.08c0-.05.36-5.59.22-12.13a24,24,0,0,0-2.74-10.08,21.25,21.25,0,0,1-1.44-3.67c-.71-2.93.63-5.26,3.88-6.74h0A36.29,36.29,0,0,1,24,21.42a.12.12,0,0,1,.08,0,.16.16,0,0,1,0,.07c0,.12,2.64,12.39,2.92,14.61A168,168,0,0,1,28.19,56,.1.1,0,0,1,28.09,56.1Zm-9.61-.2H28a169.4,169.4,0,0,0-1.17-19.77c-.27-2.1-2.64-13.31-2.89-14.49a35,35,0,0,0-5.66,1.91h0c-2.19,1-4.63,2.95-3.77,6.51a20.92,20.92,0,0,0,1.43,3.64,24.06,24.06,0,0,1,2.76,10.16C18.82,49.9,18.53,55.1,18.48,55.9Z"/><path fill="#fff" d="M44.79,50.13h-.23a4.5,4.5,0,0,1-2.76-2A3.11,3.11,0,0,1,41,45.74a5.13,5.13,0,0,1,4.26-3h.08l3,3.12a1.61,1.61,0,0,1-1.08,1.83,13.18,13.18,0,0,1-2.28.74l0,.3a7.46,7.46,0,0,1,.88-.06c.62,0,.8.12.84.17a.32.32,0,0,1,.07.4A2.32,2.32,0,0,1,44.79,50.13Z"/><path fill="#000100" d="M44.79,50.23h-.23a4.64,4.64,0,0,1-2.84-2.08,3.25,3.25,0,0,1-.78-2.43,5.25,5.25,0,0,1,4.36-3.07c.05,0,.12,0,.16,0l3,3.12,0,.05a1.74,1.74,0,0,1-1.14,1.95,16.3,16.3,0,0,1-2.21.72l0,.11a7,7,0,0,1,.8,0c.6,0,.83.11.92.2a.44.44,0,0,1,.09.51A2.41,2.41,0,0,1,44.79,50.23Zm.51-7.39h0a5,5,0,0,0-4.17,2.93A3,3,0,0,0,41.88,48a4.37,4.37,0,0,0,2.69,2h.22a2.27,2.27,0,0,0,2-.83.23.23,0,0,0-.05-.29s-.15-.14-.77-.14c-.41,0-.82.06-.86.06a.1.1,0,0,1-.12-.08l0-.3a.11.11,0,0,1,0-.08s0,0,.07,0a14.3,14.3,0,0,0,2.25-.73,1.5,1.5,0,0,0,1-1.7l-2.95-3.06Z"/><path fill="#37bebe" d="M58,38c0,4.74-9.77,10.66-9.77,10.66s-1-3.89-3.69-5.82a46.8,46.8,0,0,1,4.31-4.06s-5.28-2.48-6.2-3.31L32.68,20.88s6-1.11,13.84,4.36C50.47,28,58,33.24,58,38Z"/><path fill="#000100" d="M48.19,48.76h0a.13.13,0,0,1-.06-.07s-1-3.88-3.65-5.77a.16.16,0,0,1,0-.07.11.11,0,0,1,0-.08,48.79,48.79,0,0,1,4.19-4,47.92,47.92,0,0,1-6.08-3.26L32.6,20.93a.07.07,0,0,1,0-.09.09.09,0,0,1,.07-.06c.07,0,6.12-1.05,13.92,4.38,3.73,2.6,11.48,8,11.48,12.84s-9.42,10.51-9.82,10.75Zm-3.54-5.94a11.64,11.64,0,0,1,3.6,5.69c1.08-.68,9.61-6.16,9.61-10.51,0-4.74-7.69-10.1-11.39-12.68-7-4.9-12.63-4.49-13.62-4.37l9.84,14.46a54.55,54.55,0,0,0,6.16,3.28.16.16,0,0,1,.06.08.1.1,0,0,1,0,.09A48.08,48.08,0,0,0,44.65,42.82Z"/><path fill="#37bebe" d="M43.09,29.23,32.68,20.88a51,51,0,0,1,5,21.86A35.7,35.7,0,0,0,40.69,56h4.64S44.46,38,43.09,29.23Z"/><path fill="#000100" d="M45.33,56.1H40.69A.09.09,0,0,1,40.6,56a36,36,0,0,1-3.07-13.3,51.37,51.37,0,0,0-4.94-21.82.1.1,0,0,1,0-.13.1.1,0,0,1,.14,0,51.54,51.54,0,0,1,5,21.91,35.77,35.77,0,0,0,3,13.16h4.47c-.07-1.49-.92-18.34-2.23-26.66a.1.1,0,0,1,.2,0c1.36,8.67,2.23,26.61,2.24,26.79a.11.11,0,0,1,0,.07A.09.09,0,0,1,45.33,56.1Z"/><path fill="#000100" d="M27.52,11.5a.41.41,0,0,0,0,.35c.05.08.19.08.3.07l0,.29h-.1a.51.51,0,0,1-.45-.19.68.68,0,0,1,0-.63Z"/><path fill="#fff" d="M4,19.5a15.44,15.44,0,0,1,1.42-1.29c.63-.44,1-.18,1.62-.27s1,.27.87.55-.81.49-.81.49,1,.09,1.54.18a2.49,2.49,0,0,1,1,.45,5.65,5.65,0,0,1,.34.5s1.68,1.31,1.32,1.92-1.3-.44-1.3-.44c-.33.16-.78-.13-.78-.13-.1,1.08.42,1.15,2.5,2s.71,1.42,1.21,2.46,1.6,3.45,1.6,3.45c-1,3.92-4,4-4,4S10.44,27.68,8.35,26s-3.83-.82-4-2.82S3.59,19.81,4,19.5Z"/><path d="M10.4,33.47v-.11s-.09-5.65-2.12-7.29A6.51,6.51,0,0,0,5.94,24.9c-.94-.29-1.61-.51-1.74-1.73-.08-.75-.2-1.42-.3-2-.18-1-.29-1.56,0-1.79A5.51,5.51,0,0,0,4.32,19a8.23,8.23,0,0,1,1-.88,1.53,1.53,0,0,1,1.12-.28,2.52,2.52,0,0,0,.55,0h.2a.87.87,0,0,1,.75.33.39.39,0,0,1,0,.39.94.94,0,0,1-.45.37c.33,0,.78.09,1.09.15a2.41,2.41,0,0,1,1.1.48,4.39,4.39,0,0,1,.34.5c.24.19,1.72,1.39,1.33,2.05a.48.48,0,0,1-.43.25c-.4,0-.84-.45-1-.62a1,1,0,0,1-.65-.08c0,.74.36.88,1.86,1.46l.58.23c1.42.56,1.32,1.06,1.21,1.6a1.38,1.38,0,0,0,0,.91c.5,1,1.6,3.43,1.61,3.46v.07c-1,3.95-4.09,4.1-4.12,4.1ZM6.21,18.05a1.22,1.22,0,0,0-.77.25,7.51,7.51,0,0,0-1,.85,5.77,5.77,0,0,1-.45.43c-.19.16-.07.79.08,1.59.1.54.23,1.22.31,2,.11,1.08.66,1.26,1.58,1.54A6.79,6.79,0,0,1,8.42,25.9c2,1.6,2.17,6.51,2.19,7.34.55-.05,2.92-.51,3.8-3.89-.14-.3-1.13-2.45-1.59-3.42a1.5,1.5,0,0,1-.07-1.05c.1-.5.17-.86-1.08-1.35l-.58-.23c-1.6-.62-2.08-.8-2-1.84l0-.18.15.1a1.12,1.12,0,0,0,.49.15.48.48,0,0,0,.18,0l.08,0,.05.07c.14.16.58.6.88.6a.27.27,0,0,0,.24-.15c.23-.39-.67-1.3-1.29-1.78l0,0c-.11-.17-.27-.43-.32-.48a2.19,2.19,0,0,0-1-.42c-.55-.1-1.52-.19-1.53-.19L6.5,19,7,18.87a1.51,1.51,0,0,0,.75-.42.21.21,0,0,0,0-.19A.78.78,0,0,0,7,18a2.86,2.86,0,0,1-.59,0Z"/><path d="M5.07,20.19,5,20.1l.1-.06A3.37,3.37,0,0,0,6,19L6,19h.06s.76-.06,1.06-.11a.12.12,0,1,1,0,.23c-.26,0-.82.09-1,.1a3.44,3.44,0,0,1-.83,1,1.42,1.42,0,0,1,.18.88.11.11,0,0,1-.08.08H5.36A.13.13,0,0,1,5.27,21,1.25,1.25,0,0,0,5.07,20.19Z"/><path d="M7.74,21c.19-.39.66-1.06,1-1.15A3.87,3.87,0,0,1,10,20a.11.11,0,0,1,.08.14.12.12,0,0,1-.14.09,3.47,3.47,0,0,0-1.1-.14c-.26.05-.67.58-.89,1a5.8,5.8,0,0,0-.39,1.13.11.11,0,0,1-.08.09s0,0-.06,0a.11.11,0,0,1-.09-.14A5.49,5.49,0,0,1,7.74,21Z"/><path d="M6.59,18.94a.1.1,0,0,1,.16,0,.11.11,0,0,1,0,.16,7,7,0,0,0-1.41,2.51s0,.06-.08.08H5.19a.13.13,0,0,1-.08-.15A7.43,7.43,0,0,1,6.59,18.94Z"/><path d="M7.32,19.66c.74-.55,2.44.16,2.52.19a.12.12,0,0,1-.1.22c-.45-.2-1.76-.61-2.28-.22a6,6,0,0,0-1.3,1.9.13.13,0,0,1-.07.06.14.14,0,0,1-.09,0,.13.13,0,0,1-.06-.16A6.39,6.39,0,0,1,7.32,19.66Z"/><path fill="#37bebe" d="M20.16,38.51c1.53,8.6-2.65,11.49-6.41,8.75-5.94-4.33-6-17.48-6-17.48L15.25,27S19.56,35.1,20.16,38.51Z"/><path fill="#000100" d="M16.48,48.36a4.85,4.85,0,0,1-2.79-1C7.78,43,7.62,29.92,7.62,29.78a.1.1,0,0,1,.07-.09l7.52-2.82a.1.1,0,0,1,.13.05c0,.08,4.32,8.19,4.92,11.58h0c.81,4.56.06,8.06-2,9.36A3.35,3.35,0,0,1,16.48,48.36ZM7.82,29.85c0,1,.38,13.24,6,17.32,1.51,1.1,3.08,1.29,4.32.52,2-1.26,2.73-4.68,1.94-9.16h0c-.57-3.18-4.43-10.6-4.87-11.44Z"/><path fill="#fff" d="M28,24.29a10.5,10.5,0,0,1-4-2.77,3.71,3.71,0,0,1,1.8-1,7.94,7.94,0,0,0,3.68,1.09A3.2,3.2,0,0,0,28,24.29Z"/><path fill="#000100" d="M28,24.39h0a10.69,10.69,0,0,1-4.06-2.81.11.11,0,0,1,0-.14,3.76,3.76,0,0,1,1.86-1,.07.07,0,0,1,.06,0,8,8,0,0,0,3.63,1.07c.05,0,.09,0,.09.08a.09.09,0,0,1-.05.11,3.12,3.12,0,0,0-1.39,2.57.09.09,0,0,1,0,.08A.07.07,0,0,1,28,24.39Zm-3.89-2.87a10.56,10.56,0,0,0,3.79,2.63,3.48,3.48,0,0,1,1.23-2.44,8.17,8.17,0,0,1-3.38-1.06A3.69,3.69,0,0,0,24.14,21.52Z"/><path fill="#fff" d="M32,23.79a4,4,0,0,0-2.56-2.16,8.58,8.58,0,0,0,1.85-1.35,2.39,2.39,0,0,1,1.35.6C32.92,21.85,32.14,23.3,32,23.79Z"/><path fill="#000100" d="M32,23.89a.11.11,0,0,1-.09-.06,3.93,3.93,0,0,0-2.49-2.1.09.09,0,0,1-.08-.08.09.09,0,0,1,.06-.11,7.88,7.88,0,0,0,1.81-1.33.11.11,0,0,1,.08,0,2.44,2.44,0,0,1,1.42.63s0,0,0,0a4.61,4.61,0,0,1-.45,2.4,3.34,3.34,0,0,0-.19.56.12.12,0,0,1-.09.08ZM29.76,21.6A4.28,4.28,0,0,1,32,23.51c0-.1.08-.21.12-.33a4.55,4.55,0,0,0,.45-2.25,2.31,2.31,0,0,0-1.22-.55A9.26,9.26,0,0,1,29.76,21.6Z"/></svg>